<svg width="24" height="24" viewBox="0 0 24 24" fill="none" xmlns="http://www.w3.org/2000/svg">
<g clip-path="url(#clip0_420_8)">
<path d="M19.152 0H4.848C2.169 0 0 2.169 0 4.848V19.155C0 21.831 2.169 24 4.848 24H19.155C21.831 24 24.003 21.831 24.003 19.152V4.848C24 2.169 21.831 0 19.152 0Z" fill="url(#paint0_linear_420_8)"/>
<path d="M11.898 5.514L12.384 4.674C12.684 4.149 13.353 3.972 13.878 4.272C14.403 4.572 14.58 5.241 14.28 5.766L9.597 13.872H12.984C14.082 13.872 14.697 15.162 14.22 16.056H4.29C3.684 16.056 3.198 15.57 3.198 14.964C3.198 14.358 3.684 13.872 4.29 13.872H7.074L10.638 7.695L9.525 5.763C9.225 5.238 9.402 4.575 9.927 4.269C10.452 3.969 11.115 4.146 11.421 4.671L11.898 5.514ZM7.686 17.181L6.636 19.002C6.336 19.527 5.667 19.704 5.142 19.404C4.617 19.104 4.44 18.435 4.74 17.91L5.52 16.56C6.402 16.287 7.119 16.497 7.686 17.181ZM16.728 13.878H19.569C20.175 13.878 20.661 14.364 20.661 14.97C20.661 15.576 20.175 16.062 19.569 16.062H17.991L19.056 17.91C19.356 18.435 19.179 19.098 18.654 19.404C18.129 19.704 17.466 19.527 17.16 19.002C15.366 15.891 14.019 13.563 13.125 12.012C12.21 10.434 12.864 8.85 13.509 8.313C14.226 9.543 15.297 11.4 16.728 13.878Z" fill="white"/>
</g>
<defs>
<linearGradient id="paint0_linear_420_8" x1="12.0015" y1="0" x2="12.0015" y2="24" gradientUnits="userSpaceOnUse">
<stop stop-color="#18BFFB"/>
<stop offset="1" stop-color="#2072F3"/>
</linearGradient>
<clipPath id="clip0_420_8">
<rect width="24" height="24" fill="white"/>
</clipPath>
</defs>
</svg>
