<svg width="28" height="28" viewBox="0 0 28 28" fill="none" xmlns="http://www.w3.org/2000/svg">
<path d="M14 4.5625C13.4822 4.5625 13.0625 4.98223 13.0625 5.5C13.0625 6.01777 13.4822 6.4375 14 6.4375V4.5625ZM24 6.4375C24.5178 6.4375 24.9375 6.01777 24.9375 5.5C24.9375 4.98223 24.5178 4.5625 24 4.5625V6.4375ZM14 22.0625C13.4822 22.0625 13.0625 22.4822 13.0625 23C13.0625 23.5178 13.4822 23.9375 14 23.9375V22.0625ZM24 23.9375C24.5178 23.9375 24.9375 23.5178 24.9375 23C24.9375 22.4822 24.5178 22.0625 24 22.0625V23.9375ZM14 15.1875C14.5178 15.1875 14.9375 14.7678 14.9375 14.25C14.9375 13.7322 14.5178 13.3125 14 13.3125V15.1875ZM4 13.3125C3.48223 13.3125 3.0625 13.7322 3.0625 14.25C3.0625 14.7678 3.48223 15.1875 4 15.1875L4 13.3125ZM14 6.4375L24 6.4375V4.5625L14 4.5625V6.4375ZM14 23.9375H24V22.0625H14V23.9375ZM14 13.3125L4 13.3125L4 15.1875L14 15.1875V13.3125ZM3.0625 5.5C3.0625 7.39848 4.60152 8.9375 6.5 8.9375V7.0625C5.63706 7.0625 4.9375 6.36295 4.9375 5.5H3.0625ZM6.5 8.9375C8.39848 8.9375 9.9375 7.39848 9.9375 5.5H8.0625C8.0625 6.36295 7.36295 7.0625 6.5 7.0625V8.9375ZM9.9375 5.5C9.9375 3.60152 8.39848 2.0625 6.5 2.0625V3.9375C7.36295 3.9375 8.0625 4.63706 8.0625 5.5H9.9375ZM6.5 2.0625C4.60152 2.0625 3.0625 3.60152 3.0625 5.5H4.9375C4.9375 4.63706 5.63706 3.9375 6.5 3.9375V2.0625ZM3.0625 23C3.0625 24.8985 4.60152 26.4375 6.5 26.4375V24.5625C5.63706 24.5625 4.9375 23.8629 4.9375 23H3.0625ZM6.5 26.4375C8.39848 26.4375 9.9375 24.8985 9.9375 23H8.0625C8.0625 23.8629 7.36295 24.5625 6.5 24.5625V26.4375ZM9.9375 23C9.9375 21.1015 8.39848 19.5625 6.5 19.5625V21.4375C7.36295 21.4375 8.0625 22.1371 8.0625 23H9.9375ZM6.5 19.5625C4.60152 19.5625 3.0625 21.1015 3.0625 23H4.9375C4.9375 22.1371 5.63706 21.4375 6.5 21.4375V19.5625ZM24.9375 14.25C24.9375 12.3515 23.3985 10.8125 21.5 10.8125V12.6875C22.3629 12.6875 23.0625 13.3871 23.0625 14.25H24.9375ZM21.5 10.8125C19.6015 10.8125 18.0625 12.3515 18.0625 14.25H19.9375C19.9375 13.3871 20.6371 12.6875 21.5 12.6875V10.8125ZM18.0625 14.25C18.0625 16.1485 19.6015 17.6875 21.5 17.6875V15.8125C20.6371 15.8125 19.9375 15.1129 19.9375 14.25H18.0625ZM21.5 17.6875C23.3985 17.6875 24.9375 16.1485 24.9375 14.25H23.0625C23.0625 15.1129 22.3629 15.8125 21.5 15.8125V17.6875Z" fill="url(#paint0_linear_2032_8518)"/>
<defs>
<linearGradient id="paint0_linear_2032_8518" x1="4" y1="14.25" x2="24" y2="14.25" gradientUnits="userSpaceOnUse">
<stop stop-color="#5D5CE6"/>
<stop offset="1" stop-color="#D72BEA"/>
</linearGradient>
</defs>
</svg>
