<svg width="28" height="28" viewBox="0 0 28 28" fill="none" xmlns="http://www.w3.org/2000/svg">
<path d="M5.73005 19.455L6.07054 18.7868L5.73005 19.455ZM3.54497 17.27L4.21322 16.9295L3.54497 17.27ZM24.455 17.27L23.7868 16.9295L24.455 17.27ZM22.27 19.455L21.9295 18.7868L22.27 19.455ZM22.27 4.54497L21.9295 5.21322L22.27 4.54497ZM24.455 6.73005L23.7868 7.07054L24.455 6.73005ZM5.73005 4.54497L6.07054 5.21322L5.73005 4.54497ZM3.54497 6.73005L4.21322 7.07054L3.54497 6.73005ZM9.8181 23.2724C9.41625 23.3729 9.17193 23.7801 9.27239 24.1819C9.37285 24.5837 9.78006 24.8281 10.1819 24.7276L9.8181 23.2724ZM11.5746 23.6063L11.3927 22.8787L11.5746 23.6063ZM16.4254 23.6063L16.6073 22.8787L16.4254 23.6063ZM17.8181 24.7276C18.2199 24.8281 18.6271 24.5837 18.7276 24.1819C18.8281 23.7801 18.5837 23.3729 18.1819 23.2724L17.8181 24.7276ZM14.75 20C14.75 19.5858 14.4142 19.25 14 19.25C13.5858 19.25 13.25 19.5858 13.25 20H14.75ZM14 16.25C13.5858 16.25 13.25 16.5858 13.25 17C13.25 17.4142 13.5858 17.75 14 17.75V16.25ZM20 17.75C20.4142 17.75 20.75 17.4142 20.75 17C20.75 16.5858 20.4142 16.25 20 16.25V17.75ZM14 23.3078V24.0578V23.3078ZM11 4.75H17V3.25H11V4.75ZM17 19.25H11V20.75H17V19.25ZM11 19.25C9.58749 19.25 8.57322 19.2494 7.77708 19.1844C6.9897 19.12 6.48197 18.9964 6.07054 18.7868L5.38955 20.1233C6.04768 20.4586 6.77479 20.6075 7.65494 20.6794C8.52632 20.7506 9.61224 20.75 11 20.75V19.25ZM2.25 12C2.25 13.3878 2.24942 14.4737 2.32061 15.3451C2.39252 16.2252 2.54138 16.9523 2.87671 17.6104L4.21322 16.9295C4.00359 16.518 3.87996 16.0103 3.81563 15.2229C3.75058 14.4268 3.75 13.4125 3.75 12H2.25ZM6.07054 18.7868C5.27085 18.3793 4.62068 17.7291 4.21322 16.9295L2.87671 17.6104C3.42798 18.6924 4.30762 19.572 5.38955 20.1233L6.07054 18.7868ZM24.25 12C24.25 13.4125 24.2494 14.4268 24.1844 15.2229C24.12 16.0103 23.9964 16.518 23.7868 16.9295L25.1233 17.6104C25.4586 16.9523 25.6075 16.2252 25.6794 15.3451C25.7506 14.4737 25.75 13.3878 25.75 12H24.25ZM17 20.75C18.3878 20.75 19.4737 20.7506 20.3451 20.6794C21.2252 20.6075 21.9523 20.4586 22.6104 20.1233L21.9295 18.7868C21.518 18.9964 21.0103 19.12 20.2229 19.1844C19.4268 19.2494 18.4125 19.25 17 19.25V20.75ZM23.7868 16.9295C23.3793 17.7291 22.7291 18.3793 21.9295 18.7868L22.6104 20.1233C23.6924 19.572 24.572 18.6924 25.1233 17.6104L23.7868 16.9295ZM17 4.75C18.4125 4.75 19.4268 4.75058 20.2229 4.81563C21.0103 4.87996 21.518 5.00359 21.9295 5.21322L22.6104 3.87671C21.9523 3.54138 21.2252 3.39252 20.3451 3.32061C19.4737 3.24942 18.3878 3.25 17 3.25V4.75ZM25.75 12C25.75 10.6122 25.7506 9.52632 25.6794 8.65494C25.6075 7.77479 25.4586 7.04768 25.1233 6.38955L23.7868 7.07054C23.9964 7.48197 24.12 7.9897 24.1844 8.77708C24.2494 9.57322 24.25 10.5875 24.25 12H25.75ZM21.9295 5.21322C22.7291 5.62068 23.3793 6.27085 23.7868 7.07054L25.1233 6.38955C24.572 5.30762 23.6924 4.42798 22.6104 3.87671L21.9295 5.21322ZM11 3.25C9.61224 3.25 8.52632 3.24942 7.65494 3.32061C6.77479 3.39252 6.04768 3.54138 5.38955 3.87671L6.07054 5.21322C6.48197 5.00359 6.9897 4.87996 7.77708 4.81563C8.57322 4.75058 9.58749 4.75 11 4.75V3.25ZM3.75 12C3.75 10.5875 3.75058 9.57322 3.81563 8.77708C3.87996 7.9897 4.00359 7.48197 4.21322 7.07054L2.87671 6.38955C2.54138 7.04768 2.39252 7.77479 2.32061 8.65494C2.24942 9.52632 2.25 10.6122 2.25 12H3.75ZM5.38955 3.87671C4.30762 4.42798 3.42798 5.30762 2.87671 6.38955L4.21322 7.07054C4.62068 6.27085 5.27085 5.62068 6.07054 5.21322L5.38955 3.87671ZM10.1819 24.7276L11.7565 24.3339L11.3927 22.8787L9.8181 23.2724L10.1819 24.7276ZM16.2435 24.3339L17.8181 24.7276L18.1819 23.2724L16.6073 22.8787L16.2435 24.3339ZM14.75 23V20H13.25V23H14.75ZM14 17.75L20 17.75V16.25L14 16.25V17.75ZM11.7565 24.3339C12.493 24.1498 13.2465 24.0578 14 24.0578V22.5578C13.1243 22.5578 12.2487 22.6648 11.3927 22.8787L11.7565 24.3339ZM14 24.0578C14.7535 24.0578 15.507 24.1498 16.2435 24.3339L16.6073 22.8787C15.7513 22.6648 14.8757 22.5578 14 22.5578V24.0578ZM13.25 23V23.3078H14.75V23H13.25Z" fill="url(#paint0_linear_2032_8512)"/>
<path d="M9.5 17C9.5 17.2761 9.27614 17.5 9 17.5C8.72386 17.5 8.5 17.2761 8.5 17C8.5 16.7239 8.72386 16.5 9 16.5C9.27614 16.5 9.5 16.7239 9.5 17Z" stroke="url(#paint1_linear_2032_8512)"/>
<defs>
<linearGradient id="paint0_linear_2032_8512" x1="3" y1="14" x2="25" y2="14" gradientUnits="userSpaceOnUse">
<stop stop-color="#5D5CE6"/>
<stop offset="1" stop-color="#D72BEA"/>
</linearGradient>
<linearGradient id="paint1_linear_2032_8512" x1="8" y1="17" x2="10" y2="17" gradientUnits="userSpaceOnUse">
<stop stop-color="#5D5CE6"/>
<stop offset="1" stop-color="#D72BEA"/>
</linearGradient>
</defs>
</svg>
