<svg width="28" height="28" viewBox="0 0 28 28" fill="none" xmlns="http://www.w3.org/2000/svg">
<path d="M15.8979 9.76992C16.2042 10.7038 17.0824 11.336 18.0734 11.336M7.45009 8.91578C8.9419 8.91578 10.2641 7.9235 10.725 6.45789C11.7559 3.1807 16.2441 3.1807 17.275 6.45789C17.7359 7.9235 19.0581 8.91578 20.5499 8.91578C23.8857 8.91578 25.2727 13.3252 22.5739 15.3506C21.367 16.2564 20.862 17.862 21.323 19.3276C22.3538 22.6048 18.7227 25.3299 16.024 23.3045C14.8171 22.3987 13.1829 22.3987 11.976 23.3045C9.27725 25.3299 5.64616 22.6048 6.67698 19.3276C7.13797 17.862 6.63296 16.2564 5.42606 15.3506C2.72735 13.3252 4.1143 8.91578 7.45009 8.91578Z" stroke="url(#paint0_linear_2032_8506)" stroke-width="2" stroke-linecap="round"/>
<defs>
<linearGradient id="paint0_linear_2032_8506" x1="4" y1="14" x2="24" y2="14" gradientUnits="userSpaceOnUse">
<stop stop-color="#5D5CE6"/>
<stop offset="1" stop-color="#D72BEA"/>
</linearGradient>
</defs>
</svg>
