<svg width="28" height="28" viewBox="0 0 28 28" fill="none" xmlns="http://www.w3.org/2000/svg">
<path d="M5.90459 24.5523L6.4189 23.8444L5.90459 24.5523ZM4.61407 23.2618L5.32196 22.7474L4.61407 23.2618ZM23.3859 23.2618L22.678 22.7474L23.3859 23.2618ZM22.0954 24.5523L21.5811 23.8444L22.0954 24.5523ZM22.0954 3.44708L21.5811 4.15497L22.0954 3.44708ZM23.3859 4.73759L22.678 5.25191L23.3859 4.73759ZM5.90459 3.44708L6.4189 4.15497L5.90459 3.44708ZM4.61407 4.73759L5.32196 5.25191L4.61407 4.73759ZM9.33333 17.7913C8.85008 17.7913 8.45833 18.1831 8.45833 18.6663C8.45833 19.1496 8.85008 19.5413 9.33333 19.5413V17.7913ZM18.6667 19.5413C19.1499 19.5413 19.5417 19.1496 19.5417 18.6663C19.5417 18.1831 19.1499 17.7913 18.6667 17.7913V19.5413ZM9.33333 13.1247C8.85008 13.1247 8.45833 13.5164 8.45833 13.9997C8.45833 14.4829 8.85008 14.8747 9.33333 14.8747V13.1247ZM18.6667 14.8747C19.1499 14.8747 19.5417 14.4829 19.5417 13.9997C19.5417 13.5164 19.1499 13.1247 18.6667 13.1247V14.8747ZM9.33333 8.45801C8.85008 8.45801 8.45833 8.84976 8.45833 9.33301C8.45833 9.81626 8.85008 10.208 9.33333 10.208V8.45801ZM12.8333 10.208C13.3166 10.208 13.7083 9.81626 13.7083 9.33301C13.7083 8.84976 13.3166 8.45801 12.8333 8.45801V10.208ZM23.625 12.833V15.1663H25.375V12.833H23.625ZM4.375 15.1663V12.833H2.625V15.1663H4.375ZM14 24.7913C11.7932 24.7913 10.2083 24.7901 8.98105 24.6572C7.77016 24.526 7.01157 24.275 6.4189 23.8444L5.39027 25.2602C6.33098 25.9436 7.43276 26.2497 8.79255 26.397C10.136 26.5425 11.8321 26.5413 14 26.5413V24.7913ZM2.625 15.1663C2.625 17.3342 2.6238 19.0304 2.76935 20.3738C2.91667 21.7336 3.22271 22.8354 3.90618 23.7761L5.32196 22.7474C4.89136 22.1548 4.64036 21.3962 4.50917 20.1853C4.3762 18.958 4.375 17.3732 4.375 15.1663H2.625ZM6.4189 23.8444C5.99796 23.5386 5.62779 23.1684 5.32196 22.7474L3.90618 23.7761C4.31994 24.3456 4.82077 24.8464 5.39027 25.2602L6.4189 23.8444ZM23.625 15.1663C23.625 17.3732 23.6238 18.958 23.4908 20.1853C23.3596 21.3962 23.1086 22.1548 22.678 22.7474L24.0938 23.7761C24.7773 22.8354 25.0833 21.7336 25.2306 20.3738C25.3762 19.0304 25.375 17.3342 25.375 15.1663H23.625ZM14 26.5413C16.1679 26.5413 17.864 26.5425 19.2074 26.397C20.5672 26.2497 21.669 25.9436 22.6097 25.2602L21.5811 23.8444C20.9884 24.275 20.2298 24.526 19.0189 24.6572C17.7917 24.7901 16.2068 24.7913 14 24.7913V26.5413ZM22.678 22.7474C22.3722 23.1684 22.002 23.5386 21.5811 23.8444L22.6097 25.2602C23.1792 24.8464 23.6801 24.3456 24.0938 23.7761L22.678 22.7474ZM14 3.20801C16.2068 3.20801 17.7917 3.20921 19.0189 3.34218C20.2298 3.47337 20.9884 3.72436 21.5811 4.15497L22.6097 2.73919C21.669 2.05572 20.5672 1.74968 19.2074 1.60236C17.864 1.45681 16.1679 1.45801 14 1.45801V3.20801ZM25.375 12.833C25.375 10.6652 25.3762 8.96898 25.2306 7.62556C25.0833 6.26577 24.7773 5.16399 24.0938 4.22328L22.678 5.25191C23.1086 5.84458 23.3596 6.60316 23.4908 7.81406C23.6238 9.04133 23.625 10.6262 23.625 12.833H25.375ZM21.5811 4.15497C22.002 4.46079 22.3722 4.83097 22.678 5.25191L24.0938 4.22328C23.6801 3.65378 23.1792 3.15295 22.6097 2.73919L21.5811 4.15497ZM14 1.45801C11.8321 1.45801 10.136 1.45681 8.79255 1.60236C7.43276 1.74968 6.33098 2.05572 5.39027 2.73919L6.4189 4.15497C7.01157 3.72436 7.77016 3.47337 8.98105 3.34218C10.2083 3.20921 11.7932 3.20801 14 3.20801V1.45801ZM4.375 12.833C4.375 10.6262 4.3762 9.04133 4.50917 7.81406C4.64036 6.60316 4.89136 5.84458 5.32196 5.25191L3.90618 4.22328C3.22271 5.16399 2.91667 6.26577 2.76935 7.62556C2.6238 8.96898 2.625 10.6652 2.625 12.833H4.375ZM5.39027 2.73919C4.82077 3.15295 4.31994 3.65378 3.90618 4.22328L5.32196 5.25191C5.62779 4.83097 5.99796 4.46079 6.4189 4.15497L5.39027 2.73919ZM9.33333 19.5413H18.6667V17.7913H9.33333V19.5413ZM9.33333 14.8747H18.6667V13.1247H9.33333V14.8747ZM9.33333 10.208H12.8333V8.45801H9.33333V10.208Z" fill="url(#paint0_linear_2032_8493)"/>
<defs>
<linearGradient id="paint0_linear_2032_8493" x1="3.5" y1="13.9997" x2="24.5" y2="13.9997" gradientUnits="userSpaceOnUse">
<stop stop-color="#5D5CE6"/>
<stop offset="1" stop-color="#D72BEA"/>
</linearGradient>
</defs>
</svg>
