<svg width="28" height="28" viewBox="0 0 28 28" fill="none" xmlns="http://www.w3.org/2000/svg">
<path d="M18.6667 12.8333V19.8333M14 8.16667V19.8333M9.33333 15.1667V19.8333M14 24.5C9.62531 24.5 7.43797 24.5 5.90459 23.3859C5.40937 23.0261 4.97387 22.5906 4.61407 22.0954C3.5 20.562 3.5 18.3747 3.5 14C3.5 9.62531 3.5 7.43797 4.61407 5.90459C4.97387 5.40937 5.40937 4.97387 5.90459 4.61407C7.43797 3.5 9.62531 3.5 14 3.5C18.3747 3.5 20.562 3.5 22.0954 4.61407C22.5906 4.97387 23.0261 5.40937 23.3859 5.90459C24.5 7.43797 24.5 9.62531 24.5 14C24.5 18.3747 24.5 20.562 23.3859 22.0954C23.0261 22.5906 22.5906 23.0261 22.0954 23.3859C20.562 24.5 18.3747 24.5 14 24.5Z" stroke="url(#paint0_linear_4041_1920)" stroke-width="1.75" stroke-linecap="round"/>
<defs>
<linearGradient id="paint0_linear_4041_1920" x1="3.5" y1="14" x2="24.5" y2="14" gradientUnits="userSpaceOnUse">
<stop stop-color="#5D5CE6"/>
<stop offset="1" stop-color="#D72BEA"/>
</linearGradient>
</defs>
</svg>
