<svg width="28" height="28" viewBox="0 0 28 28" fill="none" xmlns="http://www.w3.org/2000/svg">
<path d="M10.5 23.9167L13.6181 18.4C13.7695 18.1322 13.9023 17.8972 14.0212 17.6892M14.0212 17.6892C14.3898 17.0447 14.6242 16.6607 14.8584 16.3726C16.7974 13.9866 20.2555 13.5152 22.7624 15.2952C23.1602 15.5776 23.6027 16.0194 24.4825 16.8992M14.0212 17.6892L13.4167 17.5C12.0219 17.221 11.3245 17.0816 10.6844 17.0952C8.97149 17.1315 7.36115 17.9191 6.28079 19.2489C5.8771 19.7458 5.55904 20.3819 4.92292 21.6542L4.7948 21.9104L4.65354 22.1491M24.4825 16.8992C24.5 16.0539 24.5 15.0955 24.5 14C24.5 9.62531 24.5 7.43797 23.3859 5.90459C23.0261 5.40937 22.5906 4.97387 22.0954 4.61407C20.562 3.5 18.3747 3.5 14 3.5C9.62531 3.5 7.43797 3.5 5.90459 4.61407C5.40937 4.97387 4.97387 5.40937 4.61407 5.90459C3.5 7.43797 3.5 9.62531 3.5 14C3.5 18.3747 3.5 20.562 4.61407 22.0954C4.62712 22.1134 4.64028 22.1313 4.65354 22.1491M24.4825 16.8992C24.4301 19.4292 24.221 20.946 23.3859 22.0954C23.0261 22.5906 22.5906 23.0261 22.0954 23.3859C20.562 24.5 18.3747 24.5 14 24.5C9.62531 24.5 7.43797 24.5 5.90459 23.3859C5.42734 23.0392 5.00555 22.6221 4.65354 22.1491M10.5 10.5C10.5 11.7887 11.5447 12.8333 12.8333 12.8333C14.122 12.8333 15.1667 11.7887 15.1667 10.5C15.1667 9.21134 14.122 8.16667 12.8333 8.16667C11.5447 8.16667 10.5 9.21134 10.5 10.5Z" stroke="url(#paint0_linear_4041_1287)" stroke-width="1.75" stroke-linecap="round"/>
<defs>
<linearGradient id="paint0_linear_4041_1287" x1="3.5" y1="14" x2="24.5" y2="14" gradientUnits="userSpaceOnUse">
<stop stop-color="#5D5CE6"/>
<stop offset="1" stop-color="#D72BEA"/>
</linearGradient>
</defs>
</svg>
