<svg width="446" height="230" viewBox="0 0 446 230" fill="none" xmlns="http://www.w3.org/2000/svg">
<rect width="446" height="230" fill="black"/>
<path d="M250.084 126.035V119.735H250.936V124.739L255.148 119.735H255.904V126.035H255.052V121.019L250.852 126.035H250.084Z" fill="white"/>
<path d="M241.822 126.035V119.735H242.674V124.739L246.886 119.735H247.642V126.035H246.79V121.019L242.59 126.035H241.822Z" fill="white"/>
<path d="M233.619 126.035V119.735H234.471V125.291H238.323V119.735H239.175V126.035H233.619ZM239.391 127.559V125.963L239.607 126.035H238.323V125.291H240.195V127.559H239.391Z" fill="white"/>
<path d="M230.535 126.036V124.644L230.499 124.416V122.088C230.499 121.552 230.347 121.14 230.043 120.852C229.747 120.564 229.303 120.42 228.711 120.42C228.303 120.42 227.915 120.488 227.547 120.624C227.179 120.76 226.867 120.94 226.611 121.164L226.227 120.528C226.547 120.256 226.931 120.048 227.379 119.904C227.827 119.752 228.299 119.676 228.795 119.676C229.611 119.676 230.239 119.88 230.679 120.288C231.127 120.688 231.351 121.3 231.351 122.124V126.036H230.535ZM228.363 126.096C227.891 126.096 227.479 126.02 227.127 125.868C226.783 125.708 226.519 125.492 226.335 125.22C226.151 124.94 226.059 124.62 226.059 124.26C226.059 123.932 226.135 123.636 226.287 123.372C226.447 123.1 226.703 122.884 227.055 122.724C227.415 122.556 227.895 122.472 228.495 122.472H230.667V123.108H228.519C227.911 123.108 227.487 123.216 227.247 123.432C227.015 123.648 226.899 123.916 226.899 124.236C226.899 124.596 227.039 124.884 227.319 125.1C227.599 125.316 227.991 125.424 228.495 125.424C228.975 125.424 229.387 125.316 229.731 125.1C230.083 124.876 230.339 124.556 230.499 124.14L230.691 124.728C230.531 125.144 230.251 125.476 229.851 125.724C229.459 125.972 228.963 126.096 228.363 126.096Z" fill="white"/>
<path d="M221.684 126.096C221.14 126.096 220.648 125.972 220.208 125.724C219.768 125.468 219.416 125.104 219.152 124.632C218.896 124.152 218.768 123.568 218.768 122.88C218.768 122.192 218.896 121.612 219.152 121.14C219.408 120.66 219.756 120.296 220.196 120.048C220.636 119.8 221.132 119.676 221.684 119.676C222.284 119.676 222.82 119.812 223.292 120.084C223.772 120.348 224.148 120.724 224.42 121.212C224.692 121.692 224.828 122.248 224.828 122.88C224.828 123.52 224.692 124.08 224.42 124.56C224.148 125.04 223.772 125.416 223.292 125.688C222.82 125.96 222.284 126.096 221.684 126.096ZM218.432 128.364V119.736H219.248V121.632L219.164 122.892L219.284 124.164V128.364H218.432ZM221.624 125.34C222.072 125.34 222.472 125.24 222.824 125.04C223.176 124.832 223.456 124.544 223.664 124.176C223.872 123.8 223.976 123.368 223.976 122.88C223.976 122.392 223.872 121.964 223.664 121.596C223.456 121.228 223.176 120.94 222.824 120.732C222.472 120.524 222.072 120.42 221.624 120.42C221.176 120.42 220.772 120.524 220.412 120.732C220.06 120.94 219.78 121.228 219.572 121.596C219.372 121.964 219.272 122.392 219.272 122.88C219.272 123.368 219.372 123.8 219.572 124.176C219.78 124.544 220.06 124.832 220.412 125.04C220.772 125.24 221.176 125.34 221.624 125.34Z" fill="white"/>
<path d="M213.714 126.096C213.058 126.096 212.482 125.96 211.986 125.688C211.49 125.408 211.102 125.028 210.822 124.548C210.542 124.06 210.402 123.504 210.402 122.88C210.402 122.256 210.534 121.704 210.798 121.224C211.07 120.744 211.438 120.368 211.902 120.096C212.374 119.816 212.902 119.676 213.486 119.676C214.078 119.676 214.602 119.812 215.058 120.084C215.522 120.348 215.886 120.724 216.15 121.212C216.414 121.692 216.546 122.248 216.546 122.88C216.546 122.92 216.542 122.964 216.534 123.012C216.534 123.052 216.534 123.096 216.534 123.144H211.05V122.508H216.078L215.742 122.76C215.742 122.304 215.642 121.9 215.442 121.548C215.25 121.188 214.986 120.908 214.65 120.708C214.314 120.508 213.926 120.408 213.486 120.408C213.054 120.408 212.666 120.508 212.322 120.708C211.978 120.908 211.71 121.188 211.518 121.548C211.326 121.908 211.23 122.32 211.23 122.784V122.916C211.23 123.396 211.334 123.82 211.542 124.188C211.758 124.548 212.054 124.832 212.43 125.04C212.814 125.24 213.25 125.34 213.738 125.34C214.122 125.34 214.478 125.272 214.806 125.136C215.142 125 215.43 124.792 215.67 124.512L216.15 125.064C215.87 125.4 215.518 125.656 215.094 125.832C214.678 126.008 214.218 126.096 213.714 126.096Z" fill="white"/>
<path d="M202.916 126.035V119.735H203.768V122.519H207.74V119.735H208.592V126.035H207.74V123.251H203.768V126.035H202.916Z" fill="white"/>
<path d="M198.198 126.096C197.542 126.096 196.966 125.96 196.47 125.688C195.974 125.408 195.586 125.028 195.306 124.548C195.026 124.06 194.886 123.504 194.886 122.88C194.886 122.256 195.018 121.704 195.282 121.224C195.554 120.744 195.922 120.368 196.386 120.096C196.858 119.816 197.386 119.676 197.97 119.676C198.562 119.676 199.086 119.812 199.542 120.084C200.006 120.348 200.37 120.724 200.634 121.212C200.898 121.692 201.03 122.248 201.03 122.88C201.03 122.92 201.026 122.964 201.018 123.012C201.018 123.052 201.018 123.096 201.018 123.144H195.534V122.508H200.562L200.226 122.76C200.226 122.304 200.126 121.9 199.926 121.548C199.734 121.188 199.47 120.908 199.134 120.708C198.798 120.508 198.41 120.408 197.97 120.408C197.538 120.408 197.15 120.508 196.806 120.708C196.462 120.908 196.194 121.188 196.002 121.548C195.81 121.908 195.714 122.32 195.714 122.784V122.916C195.714 123.396 195.818 123.82 196.026 124.188C196.242 124.548 196.538 124.832 196.914 125.04C197.298 125.24 197.734 125.34 198.222 125.34C198.606 125.34 198.962 125.272 199.29 125.136C199.626 125 199.914 124.792 200.154 124.512L200.634 125.064C200.354 125.4 200.002 125.656 199.578 125.832C199.162 126.008 198.702 126.096 198.198 126.096Z" fill="white"/>
<path d="M190.096 126.035V119.735H194.56V120.479H190.732L190.948 120.263V126.035H190.096Z" fill="white"/>
<path d="M249.983 110.035V104.251L250.199 104.479H247.595V103.735H253.223V104.479H250.619L250.835 104.251V110.035H249.983Z" fill="white"/>
<path d="M245.699 110.036V108.644L245.663 108.416V106.088C245.663 105.552 245.511 105.14 245.207 104.852C244.911 104.564 244.467 104.42 243.875 104.42C243.467 104.42 243.079 104.488 242.711 104.624C242.343 104.76 242.031 104.94 241.775 105.164L241.391 104.528C241.711 104.256 242.095 104.048 242.543 103.904C242.991 103.752 243.463 103.676 243.959 103.676C244.775 103.676 245.403 103.88 245.843 104.288C246.291 104.688 246.515 105.3 246.515 106.124V110.036H245.699ZM243.527 110.096C243.055 110.096 242.643 110.02 242.291 109.868C241.947 109.708 241.683 109.492 241.499 109.22C241.315 108.94 241.223 108.62 241.223 108.26C241.223 107.932 241.299 107.636 241.451 107.372C241.611 107.1 241.867 106.884 242.219 106.724C242.579 106.556 243.059 106.472 243.659 106.472H245.831V107.108H243.683C243.075 107.108 242.651 107.216 242.411 107.432C242.179 107.648 242.063 107.916 242.063 108.236C242.063 108.596 242.203 108.884 242.483 109.1C242.763 109.316 243.155 109.424 243.659 109.424C244.139 109.424 244.551 109.316 244.895 109.1C245.247 108.876 245.503 108.556 245.663 108.14L245.855 108.728C245.695 109.144 245.415 109.476 245.015 109.724C244.623 109.972 244.127 110.096 243.527 110.096Z" fill="white"/>
<path d="M237.315 110.035V104.251L237.531 104.479H234.927V103.735H240.555V104.479H237.951L238.167 104.251V110.035H237.315Z" fill="white"/>
<path d="M232.698 105.955C233.49 105.963 234.09 106.139 234.498 106.483C234.914 106.827 235.122 107.323 235.122 107.971C235.122 108.643 234.898 109.159 234.45 109.519C234.01 109.879 233.37 110.055 232.53 110.047L229.986 110.035V103.735H230.838V105.931L232.698 105.955ZM232.482 109.399C233.066 109.407 233.506 109.291 233.802 109.051C234.106 108.803 234.258 108.443 234.258 107.971C234.258 107.499 234.11 107.155 233.814 106.939C233.518 106.715 233.074 106.599 232.482 106.591L230.838 106.567V109.375L232.482 109.399Z" fill="white"/>
<path d="M221.252 110.023L221.312 109.291C221.368 109.299 221.42 109.311 221.468 109.327C221.524 109.335 221.572 109.339 221.612 109.339C221.868 109.339 222.072 109.243 222.224 109.051C222.384 108.859 222.504 108.603 222.584 108.283C222.664 107.963 222.72 107.603 222.752 107.203C222.784 106.795 222.812 106.387 222.836 105.979L222.944 103.735H227.564V110.035H226.712V104.227L226.928 104.479H223.496L223.7 104.215L223.604 106.039C223.58 106.583 223.536 107.103 223.472 107.599C223.416 108.095 223.324 108.531 223.196 108.907C223.076 109.283 222.908 109.579 222.692 109.795C222.476 110.003 222.2 110.107 221.864 110.107C221.768 110.107 221.668 110.099 221.564 110.083C221.468 110.067 221.364 110.047 221.252 110.023Z" fill="white"/>
<path d="M216.102 112.423C215.806 112.423 215.522 112.375 215.25 112.279C214.986 112.183 214.758 112.039 214.566 111.847L214.962 111.211C215.122 111.363 215.294 111.479 215.478 111.559C215.67 111.647 215.882 111.691 216.114 111.691C216.394 111.691 216.634 111.611 216.834 111.451C217.042 111.299 217.238 111.027 217.422 110.635L217.83 109.711L217.926 109.579L220.518 103.735H221.358L218.202 110.791C218.026 111.199 217.83 111.523 217.614 111.763C217.406 112.003 217.178 112.171 216.93 112.267C216.682 112.371 216.406 112.423 216.102 112.423ZM217.782 110.215L214.878 103.735H215.766L218.334 109.519L217.782 110.215Z" fill="white"/>
<path d="M211.276 110.108C210.82 110.108 210.368 110.044 209.92 109.916C209.472 109.788 209.076 109.592 208.732 109.328L209.008 108.692C209.312 108.916 209.664 109.088 210.064 109.208C210.464 109.32 210.86 109.376 211.252 109.376C211.644 109.368 211.984 109.312 212.272 109.208C212.56 109.104 212.784 108.96 212.944 108.776C213.104 108.592 213.184 108.384 213.184 108.152C213.184 107.816 213.032 107.556 212.728 107.372C212.424 107.18 212.008 107.084 211.48 107.084H210.4V106.46H211.42C211.732 106.46 212.008 106.42 212.248 106.34C212.488 106.26 212.672 106.144 212.8 105.992C212.936 105.84 213.004 105.66 213.004 105.452C213.004 105.228 212.924 105.036 212.764 104.876C212.612 104.716 212.4 104.596 212.128 104.516C211.856 104.436 211.548 104.396 211.204 104.396C210.892 104.404 210.568 104.452 210.232 104.54C209.896 104.62 209.564 104.744 209.236 104.912L208.996 104.252C209.364 104.06 209.728 103.916 210.088 103.82C210.456 103.716 210.824 103.664 211.192 103.664C211.696 103.648 212.148 103.708 212.548 103.844C212.956 103.98 213.28 104.176 213.52 104.432C213.76 104.68 213.88 104.98 213.88 105.332C213.88 105.644 213.784 105.916 213.592 106.148C213.4 106.38 213.144 106.56 212.824 106.688C212.504 106.816 212.14 106.88 211.732 106.88L211.768 106.652C212.488 106.652 213.048 106.792 213.448 107.072C213.856 107.352 214.06 107.732 214.06 108.212C214.06 108.588 213.936 108.92 213.688 109.208C213.44 109.488 213.104 109.708 212.68 109.868C212.264 110.028 211.796 110.108 211.276 110.108Z" fill="white"/>
<path d="M205.042 110.096C204.386 110.096 203.81 109.96 203.314 109.688C202.818 109.408 202.43 109.028 202.15 108.548C201.87 108.06 201.73 107.504 201.73 106.88C201.73 106.256 201.862 105.704 202.126 105.224C202.398 104.744 202.766 104.368 203.23 104.096C203.702 103.816 204.23 103.676 204.814 103.676C205.406 103.676 205.93 103.812 206.386 104.084C206.85 104.348 207.214 104.724 207.478 105.212C207.742 105.692 207.874 106.248 207.874 106.88C207.874 106.92 207.87 106.964 207.862 107.012C207.862 107.052 207.862 107.096 207.862 107.144H202.378V106.508H207.406L207.07 106.76C207.07 106.304 206.97 105.9 206.77 105.548C206.578 105.188 206.314 104.908 205.978 104.708C205.642 104.508 205.254 104.408 204.814 104.408C204.382 104.408 203.994 104.508 203.65 104.708C203.306 104.908 203.038 105.188 202.846 105.548C202.654 105.908 202.558 106.32 202.558 106.784V106.916C202.558 107.396 202.662 107.82 202.87 108.188C203.086 108.548 203.382 108.832 203.758 109.04C204.142 109.24 204.578 109.34 205.066 109.34C205.45 109.34 205.806 109.272 206.134 109.136C206.47 109 206.758 108.792 206.998 108.512L207.478 109.064C207.198 109.4 206.846 109.656 206.422 109.832C206.006 110.008 205.546 110.096 205.042 110.096Z" fill="white"/>
<path d="M194.19 110.036V101.636H197.334C198.046 101.636 198.658 101.752 199.17 101.984C199.682 102.208 200.074 102.536 200.346 102.968C200.626 103.392 200.766 103.908 200.766 104.516C200.766 105.108 200.626 105.62 200.346 106.052C200.074 106.476 199.682 106.804 199.17 107.036C198.658 107.268 198.046 107.384 197.334 107.384H194.682L195.078 106.964V110.036H194.19ZM195.078 107.036L194.682 106.604H197.31C198.15 106.604 198.786 106.424 199.218 106.064C199.658 105.696 199.878 105.18 199.878 104.516C199.878 103.844 199.658 103.324 199.218 102.956C198.786 102.588 198.15 102.404 197.31 102.404H194.682L195.078 101.984V107.036Z" fill="white"/>
</svg>
