<svg width="1440" height="365" viewBox="0 0 1440 365" fill="none" xmlns="http://www.w3.org/2000/svg">
<g clip-path="url(#clip0_2032_8732)" filter="url(#filter0_b_2032_8732)">
<rect width="1440" height="364" transform="translate(0 0.888672)" fill="url(#paint0_linear_2032_8732)"/>
<g clip-path="url(#clip1_2032_8732)">
<rect width="1440" height="364" transform="translate(0 0.888672)" fill="#0E0E41"/>
<g filter="url(#filter1_f_2032_8732)">
<path d="M1098.5 481.095C1098.5 843.946 788.457 1138.09 406 1138.09C23.5428 1138.09 -286.5 843.946 -286.5 481.095C-286.5 118.244 23.5428 -175.905 406 -175.905C582.341 -175.905 546.24 69.9218 668.5 172.889C811.404 293.243 1098.5 285.545 1098.5 481.095Z" fill="#2524EA" fill-opacity="0.5"/>
</g>
<g filter="url(#filter2_f_2032_8732)">
<path d="M2410 -442.111C2410 -79.2603 2099.96 214.889 1717.5 214.889C1335.04 214.889 1025 -79.2603 1025 -442.111C1025 -804.962 1335.04 -1099.11 1717.5 -1099.11C1893.84 -1099.11 1857.74 -853.284 1980 -750.317C2122.9 -629.963 2410 -637.661 2410 -442.111Z" fill="#2524EA" fill-opacity="0.5"/>
</g>
<g filter="url(#filter3_f_2032_8732)">
<path d="M1571 623.889C1571 402.975 1300.58 223.889 967 223.889C633.42 223.889 363 402.975 363 623.889C363 733.756 608.82 781.097 717.095 853.389C717.095 987.389 799.319 1023.89 967 1023.89C1300.58 1023.89 1571 844.803 1571 623.889Z" fill="#D72BEA"/>
</g>
<g filter="url(#filter4_b_2032_8732)">
<rect width="1440" height="362" transform="translate(0 0.888672)" fill="url(#paint1_linear_2032_8732)" fill-opacity="0.1"/>
</g>
</g>
</g>
<defs>
<filter id="filter0_b_2032_8732" x="-10" y="-9.11133" width="1460" height="384" filterUnits="userSpaceOnUse" color-interpolation-filters="sRGB">
<feFlood flood-opacity="0" result="BackgroundImageFix"/>
<feGaussianBlur in="BackgroundImageFix" stdDeviation="5"/>
<feComposite in2="SourceAlpha" operator="in" result="effect1_backgroundBlur_2032_8732"/>
<feBlend mode="normal" in="SourceGraphic" in2="effect1_backgroundBlur_2032_8732" result="shape"/>
</filter>
<filter id="filter1_f_2032_8732" x="-486.5" y="-375.905" width="1785" height="1714" filterUnits="userSpaceOnUse" color-interpolation-filters="sRGB">
<feFlood flood-opacity="0" result="BackgroundImageFix"/>
<feBlend mode="normal" in="SourceGraphic" in2="BackgroundImageFix" result="shape"/>
<feGaussianBlur stdDeviation="100" result="effect1_foregroundBlur_2032_8732"/>
</filter>
<filter id="filter2_f_2032_8732" x="825" y="-1299.11" width="1785" height="1714" filterUnits="userSpaceOnUse" color-interpolation-filters="sRGB">
<feFlood flood-opacity="0" result="BackgroundImageFix"/>
<feBlend mode="normal" in="SourceGraphic" in2="BackgroundImageFix" result="shape"/>
<feGaussianBlur stdDeviation="100" result="effect1_foregroundBlur_2032_8732"/>
</filter>
<filter id="filter3_f_2032_8732" x="163" y="23.8887" width="1608" height="1200" filterUnits="userSpaceOnUse" color-interpolation-filters="sRGB">
<feFlood flood-opacity="0" result="BackgroundImageFix"/>
<feBlend mode="normal" in="SourceGraphic" in2="BackgroundImageFix" result="shape"/>
<feGaussianBlur stdDeviation="100" result="effect1_foregroundBlur_2032_8732"/>
</filter>
<filter id="filter4_b_2032_8732" x="-100" y="-99.1113" width="1640" height="562" filterUnits="userSpaceOnUse" color-interpolation-filters="sRGB">
<feFlood flood-opacity="0" result="BackgroundImageFix"/>
<feGaussianBlur in="BackgroundImageFix" stdDeviation="50"/>
<feComposite in2="SourceAlpha" operator="in" result="effect1_backgroundBlur_2032_8732"/>
<feBlend mode="normal" in="SourceGraphic" in2="effect1_backgroundBlur_2032_8732" result="shape"/>
</filter>
<linearGradient id="paint0_linear_2032_8732" x1="1440" y1="182" x2="0" y2="182" gradientUnits="userSpaceOnUse">
<stop stop-color="white" stop-opacity="0.05"/>
<stop offset="1" stop-color="white" stop-opacity="0.1"/>
</linearGradient>
<linearGradient id="paint1_linear_2032_8732" x1="0" y1="181" x2="1440" y2="181" gradientUnits="userSpaceOnUse">
<stop stop-color="#999999"/>
<stop offset="1" stop-color="white"/>
</linearGradient>
<clipPath id="clip0_2032_8732">
<rect width="1440" height="364" fill="white" transform="translate(0 0.888672)"/>
</clipPath>
<clipPath id="clip1_2032_8732">
<rect width="1440" height="364" fill="white" transform="translate(0 0.888672)"/>
</clipPath>
</defs>
</svg>
