<svg width="1206" height="985" viewBox="0 0 1206 985" fill="none" xmlns="http://www.w3.org/2000/svg">
<g opacity="0.2">
<path fill-rule="evenodd" clip-rule="evenodd" d="M110.134 0L110.134 984.921H109.134L109.134 0L110.134 0Z" fill="url(#paint0_linear_291_2)"/>
<path fill-rule="evenodd" clip-rule="evenodd" d="M219.771 0L219.771 984.921H218.771L218.771 0L219.771 0Z" fill="url(#paint1_linear_291_2)"/>
<path fill-rule="evenodd" clip-rule="evenodd" d="M329.407 0V984.921H328.407V0L329.407 0Z" fill="url(#paint2_linear_291_2)"/>
<path fill-rule="evenodd" clip-rule="evenodd" d="M439.042 0V984.921H438.042V0L439.042 0Z" fill="url(#paint3_linear_291_2)"/>
<path fill-rule="evenodd" clip-rule="evenodd" d="M548.679 0V984.921H547.679V0L548.679 0Z" fill="url(#paint4_linear_291_2)"/>
<path fill-rule="evenodd" clip-rule="evenodd" d="M658.316 0V984.921H657.316V0L658.316 0Z" fill="url(#paint5_linear_291_2)"/>
<path fill-rule="evenodd" clip-rule="evenodd" d="M767.952 0V984.921H766.952V0L767.952 0Z" fill="url(#paint6_linear_291_2)"/>
<path fill-rule="evenodd" clip-rule="evenodd" d="M877.589 0V984.921H876.589V0L877.589 0Z" fill="url(#paint7_linear_291_2)"/>
<path fill-rule="evenodd" clip-rule="evenodd" d="M987.226 0V984.921H986.226V0L987.226 0Z" fill="url(#paint8_linear_291_2)"/>
<path fill-rule="evenodd" clip-rule="evenodd" d="M1096.86 0V984.921H1095.86V0L1096.86 0Z" fill="url(#paint9_linear_291_2)"/>
<path fill-rule="evenodd" clip-rule="evenodd" d="M1206 90.0381L-5.89762e-08 90.0381L0 89.0381L1206 89.0381L1206 90.0381Z" fill="url(#paint10_linear_291_2)"/>
<path fill-rule="evenodd" clip-rule="evenodd" d="M1206 179.577L-5.89762e-08 179.577L0 178.577L1206 178.577L1206 179.577Z" fill="url(#paint11_linear_291_2)"/>
<path fill-rule="evenodd" clip-rule="evenodd" d="M1206 269.115L-5.89762e-08 269.115L0 268.115L1206 268.115L1206 269.115Z" fill="url(#paint12_linear_291_2)"/>
<path fill-rule="evenodd" clip-rule="evenodd" d="M1206 358.653L-5.89762e-08 358.653L0 357.653L1206 357.653L1206 358.653Z" fill="url(#paint13_linear_291_2)"/>
<path fill-rule="evenodd" clip-rule="evenodd" d="M1206 448.191L-5.89762e-08 448.191L0 447.191L1206 447.191L1206 448.191Z" fill="url(#paint14_linear_291_2)"/>
<path fill-rule="evenodd" clip-rule="evenodd" d="M1206 537.729L-5.89762e-08 537.729L0 536.729L1206 536.729L1206 537.729Z" fill="url(#paint15_linear_291_2)"/>
<path fill-rule="evenodd" clip-rule="evenodd" d="M1206 627.269L-5.89762e-08 627.269L0 626.269L1206 626.269L1206 627.269Z" fill="url(#paint16_linear_291_2)"/>
<path fill-rule="evenodd" clip-rule="evenodd" d="M1206 716.807L-5.89762e-08 716.807L0 715.807L1206 715.807L1206 716.807Z" fill="url(#paint17_linear_291_2)"/>
<path fill-rule="evenodd" clip-rule="evenodd" d="M1206 806.345L-5.89762e-08 806.345L0 805.345L1206 805.345L1206 806.345Z" fill="url(#paint18_linear_291_2)"/>
<path fill-rule="evenodd" clip-rule="evenodd" d="M1206 895.883L-5.89762e-08 895.883L0 894.883L1206 894.883L1206 895.883Z" fill="url(#paint19_linear_291_2)"/>
</g>
<defs>
<linearGradient id="paint0_linear_291_2" x1="110.134" y1="0" x2="110.134" y2="984.921" gradientUnits="userSpaceOnUse">
<stop stop-color="#A129FF" stop-opacity="0"/>
<stop offset="0.505208" stop-color="#AE47FF"/>
<stop offset="1" stop-color="#A129FF" stop-opacity="0"/>
</linearGradient>
<linearGradient id="paint1_linear_291_2" x1="219.771" y1="0" x2="219.771" y2="984.921" gradientUnits="userSpaceOnUse">
<stop stop-color="#A129FF" stop-opacity="0"/>
<stop offset="0.505208" stop-color="#AE47FF"/>
<stop offset="1" stop-color="#A129FF" stop-opacity="0"/>
</linearGradient>
<linearGradient id="paint2_linear_291_2" x1="329.407" y1="0" x2="329.407" y2="984.921" gradientUnits="userSpaceOnUse">
<stop stop-color="#A129FF" stop-opacity="0"/>
<stop offset="0.505208" stop-color="#AE47FF"/>
<stop offset="1" stop-color="#A129FF" stop-opacity="0"/>
</linearGradient>
<linearGradient id="paint3_linear_291_2" x1="439.042" y1="0" x2="439.042" y2="984.921" gradientUnits="userSpaceOnUse">
<stop stop-color="#A129FF" stop-opacity="0"/>
<stop offset="0.505208" stop-color="#AE47FF"/>
<stop offset="1" stop-color="#A129FF" stop-opacity="0"/>
</linearGradient>
<linearGradient id="paint4_linear_291_2" x1="548.679" y1="0" x2="548.679" y2="984.921" gradientUnits="userSpaceOnUse">
<stop stop-color="#A129FF" stop-opacity="0"/>
<stop offset="0.505208" stop-color="#AE47FF"/>
<stop offset="1" stop-color="#A129FF" stop-opacity="0"/>
</linearGradient>
<linearGradient id="paint5_linear_291_2" x1="658.316" y1="0" x2="658.316" y2="984.921" gradientUnits="userSpaceOnUse">
<stop stop-color="#A129FF" stop-opacity="0"/>
<stop offset="0.505208" stop-color="#AE47FF"/>
<stop offset="1" stop-color="#A129FF" stop-opacity="0"/>
</linearGradient>
<linearGradient id="paint6_linear_291_2" x1="767.952" y1="0" x2="767.952" y2="984.921" gradientUnits="userSpaceOnUse">
<stop stop-color="#A129FF" stop-opacity="0"/>
<stop offset="0.505208" stop-color="#AE47FF"/>
<stop offset="1" stop-color="#A129FF" stop-opacity="0"/>
</linearGradient>
<linearGradient id="paint7_linear_291_2" x1="877.589" y1="0" x2="877.589" y2="984.921" gradientUnits="userSpaceOnUse">
<stop stop-color="#A129FF" stop-opacity="0"/>
<stop offset="0.505208" stop-color="#AE47FF"/>
<stop offset="1" stop-color="#A129FF" stop-opacity="0"/>
</linearGradient>
<linearGradient id="paint8_linear_291_2" x1="987.226" y1="0" x2="987.226" y2="984.921" gradientUnits="userSpaceOnUse">
<stop stop-color="#A129FF" stop-opacity="0"/>
<stop offset="0.505208" stop-color="#AE47FF"/>
<stop offset="1" stop-color="#A129FF" stop-opacity="0"/>
</linearGradient>
<linearGradient id="paint9_linear_291_2" x1="1096.86" y1="0" x2="1096.86" y2="984.921" gradientUnits="userSpaceOnUse">
<stop stop-color="#A129FF" stop-opacity="0"/>
<stop offset="0.505208" stop-color="#AE47FF"/>
<stop offset="1" stop-color="#A129FF" stop-opacity="0"/>
</linearGradient>
<linearGradient id="paint10_linear_291_2" x1="1206" y1="90.0381" x2="-2.9486e-08" y2="90.038" gradientUnits="userSpaceOnUse">
<stop stop-color="#A129FF" stop-opacity="0"/>
<stop offset="0.505208" stop-color="#AE47FF"/>
<stop offset="1" stop-color="#A129FF" stop-opacity="0"/>
</linearGradient>
<linearGradient id="paint11_linear_291_2" x1="1206" y1="179.577" x2="-2.94858e-08" y2="179.577" gradientUnits="userSpaceOnUse">
<stop stop-color="#A129FF" stop-opacity="0"/>
<stop offset="0.505208" stop-color="#AE47FF"/>
<stop offset="1" stop-color="#A129FF" stop-opacity="0"/>
</linearGradient>
<linearGradient id="paint12_linear_291_2" x1="1206" y1="269.115" x2="-2.9486e-08" y2="269.115" gradientUnits="userSpaceOnUse">
<stop stop-color="#A129FF" stop-opacity="0"/>
<stop offset="0.505208" stop-color="#AE47FF"/>
<stop offset="1" stop-color="#A129FF" stop-opacity="0"/>
</linearGradient>
<linearGradient id="paint13_linear_291_2" x1="1206" y1="358.653" x2="-2.9486e-08" y2="358.653" gradientUnits="userSpaceOnUse">
<stop stop-color="#A129FF" stop-opacity="0"/>
<stop offset="0.505208" stop-color="#AE47FF"/>
<stop offset="1" stop-color="#A129FF" stop-opacity="0"/>
</linearGradient>
<linearGradient id="paint14_linear_291_2" x1="1206" y1="448.191" x2="-2.9486e-08" y2="448.191" gradientUnits="userSpaceOnUse">
<stop stop-color="#A129FF" stop-opacity="0"/>
<stop offset="0.505208" stop-color="#AE47FF"/>
<stop offset="1" stop-color="#A129FF" stop-opacity="0"/>
</linearGradient>
<linearGradient id="paint15_linear_291_2" x1="1206" y1="537.729" x2="-2.9486e-08" y2="537.729" gradientUnits="userSpaceOnUse">
<stop stop-color="#A129FF" stop-opacity="0"/>
<stop offset="0.505208" stop-color="#AE47FF"/>
<stop offset="1" stop-color="#A129FF" stop-opacity="0"/>
</linearGradient>
<linearGradient id="paint16_linear_291_2" x1="1206" y1="627.269" x2="-2.9486e-08" y2="627.268" gradientUnits="userSpaceOnUse">
<stop stop-color="#A129FF" stop-opacity="0"/>
<stop offset="0.505208" stop-color="#AE47FF"/>
<stop offset="1" stop-color="#A129FF" stop-opacity="0"/>
</linearGradient>
<linearGradient id="paint17_linear_291_2" x1="1206" y1="716.807" x2="-2.94858e-08" y2="716.807" gradientUnits="userSpaceOnUse">
<stop stop-color="#A129FF" stop-opacity="0"/>
<stop offset="0.505208" stop-color="#AE47FF"/>
<stop offset="1" stop-color="#A129FF" stop-opacity="0"/>
</linearGradient>
<linearGradient id="paint18_linear_291_2" x1="1206" y1="806.345" x2="-2.9486e-08" y2="806.345" gradientUnits="userSpaceOnUse">
<stop stop-color="#A129FF" stop-opacity="0"/>
<stop offset="0.505208" stop-color="#AE47FF"/>
<stop offset="1" stop-color="#A129FF" stop-opacity="0"/>
</linearGradient>
<linearGradient id="paint19_linear_291_2" x1="1206" y1="895.883" x2="-2.9486e-08" y2="895.883" gradientUnits="userSpaceOnUse">
<stop stop-color="#A129FF" stop-opacity="0"/>
<stop offset="0.505208" stop-color="#AE47FF"/>
<stop offset="1" stop-color="#A129FF" stop-opacity="0"/>
</linearGradient>
</defs>
</svg>
