<?xml version="1.0" standalone="no"?>
<!DOCTYPE svg PUBLIC "-//W3C//DTD SVG 20010904//EN"
 "http://www.w3.org/TR/2001/REC-SVG-20010904/DTD/svg10.dtd">
<svg version="1.0" xmlns="http://www.w3.org/2000/svg"
 width="1000.000000pt" height="1000.000000pt" viewBox="0 0 1000.000000 1000.000000"
 preserveAspectRatio="xMidYMid meet">
<metadata>
Created by potrace 1.14, written by Peter Selinger 2001-2017
</metadata>
<g transform="translate(0.000000,1000.000000) scale(0.100000,-0.100000)"
fill="#000000" stroke="none">
<path d="M1235 9980 c-98 -17 -175 -35 -205 -47 -8 -4 -17 -7 -20 -8 -30 -7
-88 -30 -97 -38 -7 -5 -13 -7 -13 -3 0 4 -11 -1 -25 -10 -14 -9 -25 -12 -25
-8 0 5 -4 4 -8 -1 -4 -6 -29 -21 -57 -35 -27 -14 -52 -27 -55 -31 -3 -3 -12
-9 -20 -13 -35 -16 -107 -65 -145 -97 -134 -114 -223 -207 -283 -294 -15 -22
-30 -41 -34 -43 -5 -2 -8 -10 -8 -18 0 -8 -3 -14 -7 -14 -5 0 -13 -10 -19 -23
-6 -12 -27 -51 -46 -87 -59 -112 -119 -278 -134 -370 -3 -19 -11 -53 -17 -75
-8 -30 -12 -998 -14 -3720 -2 -3905 -3 -3766 42 -3933 9 -31 18 -64 20 -72 2
-8 4 -16 5 -17 2 -2 3 -6 4 -10 1 -5 6 -21 13 -38 6 -16 15 -39 19 -50 4 -11
6 -23 6 -27 -1 -5 2 -8 8 -8 5 0 10 -9 10 -20 0 -11 5 -20 10 -20 6 0 10 -6
10 -13 0 -18 41 -94 92 -171 91 -136 240 -293 366 -384 39 -29 72 -49 72 -45
0 5 4 3 8 -3 6 -10 128 -84 137 -84 3 0 28 -11 57 -24 64 -28 170 -66 218 -76
19 -5 46 -11 60 -14 50 -12 86 -18 160 -25 85 -9 7354 -7 7385 1 11 3 43 9 70
13 76 11 79 12 95 17 8 3 62 21 120 39 156 49 330 142 455 244 88 72 255 246
255 266 0 5 5 9 10 9 6 0 10 5 10 10 0 6 9 20 20 32 11 12 20 28 20 35 0 7 4
13 9 13 8 0 123 219 127 240 0 3 14 50 32 105 72 229 65 -139 67 3932 2 3693
1 3702 -29 3868 -9 44 -44 163 -64 211 -12 29 -18 55 -15 58 4 3 2 6 -4 6 -6
0 -14 10 -18 23 -4 12 -8 24 -9 27 -5 15 -42 86 -48 95 -16 20 -58 86 -58 91
0 5 -34 52 -75 104 -36 45 -199 205 -240 235 -22 17 -42 32 -45 35 -15 15 -71
50 -80 50 -5 0 -10 5 -10 10 0 6 -6 10 -14 10 -8 0 -16 3 -18 8 -4 9 -131 72
-146 72 -7 0 -12 5 -12 10 0 6 -11 10 -25 10 -14 0 -25 5 -25 11 0 5 -5 7 -11
4 -5 -4 -19 1 -30 11 -10 9 -19 14 -19 11 0 -4 -12 -2 -27 4 -16 6 -37 13 -48
15 -11 2 -49 10 -85 18 -36 8 -99 19 -140 25 -47 6 -1421 9 -3720 9 -3452 0
-3650 -1 -3745 -18z"/>
</g>
</svg>
