<svg width="28" height="28" viewBox="0 0 28 28" xmlns="http://www.w3.org/2000/svg"><path fill-rule="evenodd" clip-rule="evenodd" d="M13.9472 2.625H14.0528C16.1954 2.62499 17.875 2.62498 19.2074 2.76935C20.5672 2.91667 21.669 3.22271 22.6097 3.90618C23.1792 4.31994 23.6801 4.82077 24.0938 5.39027C24.7773 6.33099 25.0833 7.43276 25.2306 8.79256C25.375 10.1251 25.375 11.8046 25.375 13.9473V14.0527C25.375 16.1954 25.375 17.8749 25.2306 19.2074C25.0833 20.5672 24.7773 21.669 24.0938 22.6097C23.6801 23.1792 23.1792 23.6801 22.6097 24.0938C21.669 24.7773 20.5672 25.0833 19.2074 25.2306C17.8749 25.375 16.1954 25.375 14.0527 25.375H13.9473C11.8046 25.375 10.1251 25.375 8.79256 25.2306C7.43276 25.0833 6.33099 24.7773 5.39027 24.0938C4.82077 23.6801 4.31994 23.1792 3.90618 22.6097C3.22271 21.669 2.91667 20.5672 2.76935 19.2074C2.62498 17.875 2.62499 16.1954 2.625 14.0528V13.9472C2.62499 11.8046 2.62498 10.125 2.76935 8.79255C2.91667 7.43276 3.22271 6.33099 3.90618 5.39027C4.31995 4.82077 4.82077 4.31995 5.39027 3.90618C6.33099 3.22271 7.43276 2.91667 8.79255 2.76935C10.125 2.62498 11.8046 2.62499 13.9472 2.625ZM8.98105 4.50917C7.77016 4.64036 7.01157 4.89136 6.4189 5.32196C5.99796 5.62779 5.62779 5.99796 5.32196 6.4189C4.89136 7.01157 4.64036 7.77016 4.50917 8.98105C4.3762 10.2083 4.375 11.7932 4.375 14C4.375 16.2068 4.3762 17.7917 4.50917 19.0189C4.64036 20.2298 4.89136 20.9884 5.32196 21.5811C5.62779 22.002 5.99796 22.3722 6.4189 22.678C7.01157 23.1086 7.77016 23.3596 8.98105 23.4908C10.2083 23.6238 11.7932 23.625 14 23.625C16.2068 23.625 17.7917 23.6238 19.0189 23.4908C20.2298 23.3596 20.9884 23.1086 21.5811 22.678C22.002 22.3722 22.3722 22.002 22.678 21.5811C23.1086 20.9884 23.3596 20.2298 23.4908 19.0189C23.6238 17.7917 23.625 16.2068 23.625 14C23.625 11.7932 23.6238 10.2083 23.4908 8.98105C23.3596 7.77016 23.1086 7.01157 22.678 6.4189C22.3722 5.99796 22.002 5.62779 21.5811 5.32196C20.9884 4.89136 20.2298 4.64036 19.0189 4.50917C17.7917 4.3762 16.2068 4.375 14 4.375C11.7932 4.375 10.2083 4.3762 8.98105 4.50917ZM14 7.29167C14.4832 7.29167 14.875 7.68342 14.875 8.16667V19.8333C14.875 20.3166 14.4832 20.7083 14 20.7083C13.5168 20.7083 13.125 20.3166 13.125 19.8333V8.16667C13.125 7.68342 13.5168 7.29167 14 7.29167ZM18.6667 11.9583C19.1499 11.9583 19.5417 12.3501 19.5417 12.8333V19.8333C19.5417 20.3166 19.1499 20.7083 18.6667 20.7083C18.1834 20.7083 17.7917 20.3166 17.7917 19.8333V12.8333C17.7917 12.3501 18.1834 11.9583 18.6667 11.9583ZM9.33333 14.2917C9.81658 14.2917 10.2083 14.6834 10.2083 15.1667V19.8333C10.2083 20.3166 9.81658 20.7083 9.33333 20.7083C8.85008 20.7083 8.45833 20.3166 8.45833 19.8333V15.1667C8.45833 14.6834 8.85008 14.2917 9.33333 14.2917Z"/></svg>