<svg width="28" height="28" viewBox="0 0 28 28" xmlns="http://www.w3.org/2000/svg"><path fill-rule="evenodd" clip-rule="evenodd" d="M19.1604 3.95197C18.3603 3.73758 17.5519 3.83931 16.8641 4.18122L16.4905 3.42967L16.8641 4.18122C16.4415 4.39132 16.0657 4.69159 15.7674 5.0635C15.4774 5.42508 14.9491 5.48308 14.5876 5.19305C14.226 4.90303 14.168 4.37479 14.458 4.01321C14.9107 3.44883 15.4792 2.99513 16.1169 2.67812C17.1569 2.16112 18.3846 2.00631 19.5948 2.33059C22.2315 3.03708 23.7962 5.74723 23.0897 8.38388L20.4347 18.2923C19.7283 20.929 17.0181 22.4937 14.3815 21.7872C11.7448 21.0807 10.1801 18.3706 10.8866 15.7339L11.9486 11.7705C12.0685 11.3228 12.5288 11.0571 12.9765 11.1771C13.4242 11.297 13.6899 11.7573 13.57 12.205L12.508 16.1684C12.0414 17.9096 13.0747 19.6993 14.8159 20.1658C16.5571 20.6324 18.3468 19.5991 18.8134 17.8579L21.4683 7.94943C21.9349 6.20825 20.9016 4.41852 19.1604 3.95197ZM13.604 8.83507C11.8628 8.36852 10.0731 9.40182 9.60657 11.143L6.95161 21.0515C6.48506 22.7927 7.51835 24.5824 9.25954 25.0489C10.0597 25.2633 10.868 25.1616 11.5558 24.8197C11.9785 24.6096 12.3542 24.3093 12.6525 23.9374C12.9426 23.5758 13.4708 23.5178 13.8324 23.8078C14.194 24.0979 14.252 24.6261 13.9619 24.9877C13.5092 25.5521 12.9407 26.0058 12.303 26.3228C11.263 26.8398 10.0353 26.9946 8.82509 26.6703C6.18844 25.9638 4.62373 23.2537 5.33022 20.617L7.98519 10.7086C8.69168 8.0719 11.4018 6.50719 14.0385 7.21368C16.6751 7.92017 18.2398 10.6303 17.5333 13.267L16.4714 17.2304C16.3514 17.6781 15.8912 17.9438 15.4434 17.8238C14.9957 17.7039 14.73 17.2436 14.85 16.7959L15.912 12.8325C16.3785 11.0913 15.3452 9.30162 13.604 8.83507Z"/></svg>