<svg width="28" height="28" viewBox="0 0 28 28" xmlns="http://www.w3.org/2000/svg"><path fill-rule="evenodd" clip-rule="evenodd" d="M13.9497 3.16699H14.0503C16.0909 3.16698 17.6905 3.16698 18.9595 3.30447C20.2545 3.44478 21.3038 3.73624 22.1998 4.38716C22.7421 4.78123 23.2191 5.2582 23.6132 5.80059C24.2641 6.6965 24.5556 7.74581 24.6959 9.04085C24.8334 10.3099 24.8334 11.9094 24.8334 13.95V14.0506C24.8334 16.0912 24.8334 17.6908 24.6959 18.9598C24.5556 20.2548 24.2641 21.3041 23.6132 22.2001C23.2191 22.7424 22.7421 23.2194 22.1998 23.6135C21.3038 24.2644 20.2545 24.5559 18.9595 24.6962C17.6905 24.8337 16.0909 24.8337 14.0503 24.8337H13.9497C11.9091 24.8337 10.3096 24.8337 9.04055 24.6962C7.74551 24.5559 6.6962 24.2644 5.80028 23.6135C5.2579 23.2194 4.78092 22.7424 4.38686 22.2001C3.73594 21.3041 3.44447 20.2548 3.30416 18.9598C3.16667 17.6908 3.16668 16.0912 3.16669 14.0506V13.95C3.16668 11.9095 3.16667 10.3099 3.30416 9.04085C3.44447 7.74581 3.73594 6.6965 4.38686 5.80059C4.78092 5.2582 5.2579 4.78123 5.80028 4.38716C6.6962 3.73624 7.74551 3.44478 9.04055 3.30447C10.3096 3.16698 11.9091 3.16698 13.9497 3.16699ZM9.22007 4.96144C8.06684 5.08638 7.34437 5.32543 6.77992 5.73552C6.37903 6.02679 6.02648 6.37934 5.73522 6.78023C5.32512 7.34468 5.08608 8.06714 4.96113 9.22038C4.8345 10.3892 4.83335 11.8986 4.83335 14.0003C4.83335 16.1021 4.8345 17.6114 4.96113 18.7803C5.08608 19.9335 5.32512 20.656 5.73522 21.2204C6.02648 21.6213 6.37903 21.9739 6.77992 22.2651C7.34437 22.6752 8.06684 22.9143 9.22007 23.0392C10.3889 23.1658 11.8983 23.167 14 23.167C16.1018 23.167 17.6111 23.1658 18.78 23.0392C19.9332 22.9143 20.6557 22.6752 21.2201 22.2651C21.621 21.9739 21.9736 21.6213 22.2648 21.2204C22.6749 20.656 22.914 19.9335 23.0389 18.7803C23.1655 17.6114 23.1667 16.1021 23.1667 14.0003C23.1667 11.8986 23.1655 10.3892 23.0389 9.22038C22.914 8.06714 22.6749 7.34468 22.2648 6.78023C21.9736 6.37934 21.621 6.02679 21.2201 5.73552C20.6557 5.32543 19.9332 5.08638 18.78 4.96144C17.6111 4.8348 16.1018 4.83366 14 4.83366C11.8983 4.83366 10.3889 4.8348 9.22007 4.96144ZM19.9226 10.0776C20.3358 10.2802 20.5064 10.7795 20.3037 11.1927L18.6812 14.5006C17.545 16.8168 14.2056 16.7037 13.2287 14.3159C12.7963 13.2589 11.3182 13.2088 10.8152 14.2341L9.19263 17.5419C8.98995 17.9551 8.49067 18.1258 8.07747 17.9231C7.66426 17.7204 7.49361 17.2211 7.6963 16.8079L9.31889 13.5001C10.4551 11.1839 13.7945 11.297 14.7713 13.6848C15.2037 14.7418 16.6819 14.7918 17.1848 13.7666L18.8074 10.4587C19.0101 10.0455 19.5094 9.87487 19.9226 10.0776Z"/></svg>