<?xml version="1.0" encoding="utf-8"?><svg viewBox="0 0 48 48" xmlns="http://www.w3.org/2000/svg" xmlns:xlink="http://www.w3.org/1999/xlink"><style>:root>svg{display:none}:root>svg:target{display:block}</style><svg viewBox="0 0 28 28" id="analysis" xmlns="http://www.w3.org/2000/svg"><path fill-rule="evenodd" clip-rule="evenodd" d="M13.947 2.625h.106c2.142 0 3.822 0 5.154.144 1.36.148 2.462.454 3.403 1.137.57.414 1.07.915 1.484 1.484.683.941.99 2.043 1.137 3.403.144 1.332.144 3.012.144 5.154v.106c0 2.142 0 3.822-.144 5.154-.148 1.36-.454 2.462-1.137 3.403a6.706 6.706 0 01-1.484 1.484c-.941.683-2.043.99-3.403 1.137-1.332.144-3.012.144-5.154.144h-.106c-2.142 0-3.822 0-5.154-.144-1.36-.148-2.462-.454-3.403-1.137a6.707 6.707 0 01-1.484-1.484c-.683-.941-.99-2.043-1.137-3.403-.144-1.332-.144-3.012-.144-5.154v-.106c0-2.142 0-3.822.144-5.154.148-1.36.454-2.462 1.137-3.403.414-.57.915-1.07 1.484-1.484.941-.683 2.043-.99 3.403-1.137 1.332-.144 3.012-.144 5.154-.144zM8.981 4.509c-1.21.131-1.97.382-2.562.813-.421.306-.791.676-1.097 1.097-.43.593-.682 1.351-.813 2.562-.133 1.227-.134 2.812-.134 5.019 0 2.207.001 3.792.134 5.019.131 1.21.382 1.97.813 2.562.306.421.676.791 1.097 1.097.593.43 1.351.682 2.562.813 1.227.133 2.812.134 5.019.134 2.207 0 3.792-.001 5.019-.134 1.21-.131 1.97-.382 2.562-.813.421-.306.791-.676 1.097-1.097.43-.593.682-1.351.813-2.562.133-1.227.134-2.812.134-5.019 0-2.207-.001-3.792-.134-5.019-.131-1.21-.382-1.97-.813-2.562a4.958 4.958 0 00-1.097-1.097c-.593-.43-1.351-.682-2.562-.813-1.227-.133-2.812-.134-5.019-.134-2.207 0-3.792.001-5.019.134zM14 7.292c.483 0 .875.391.875.875v11.666a.875.875 0 11-1.75 0V8.167c0-.484.392-.875.875-.875zm4.667 4.666c.483 0 .875.392.875.875v7a.875.875 0 11-1.75 0v-7c0-.483.391-.875.875-.875zm-9.334 2.334c.484 0 .875.391.875.875v4.666a.875.875 0 11-1.75 0v-4.666c0-.484.392-.875.875-.875z"/></svg><svg viewBox="0 0 24 24" id="arrow-type-1" xmlns="http://www.w3.org/2000/svg"><path fill-rule="evenodd" clip-rule="evenodd" d="M11.293 8.293a1 1 0 011.414 0l6 6a1 1 0 01-1.414 1.414L12 10.414l-5.293 5.293a1 1 0 01-1.414-1.414l6-6z"/></svg><svg viewBox="0 0 24 24" id="arrow-type-2" xmlns="http://www.w3.org/2000/svg"><path fill-rule="evenodd" clip-rule="evenodd" d="M14.475 19.071L8.11 12.707a1 1 0 010-1.414l6.364-6.364a1 1 0 111.414 1.414l-5.571 5.572v.171l5.571 5.571a1 1 0 01-1.414 1.414z"/></svg><svg viewBox="0 0 28 28" id="attach" xmlns="http://www.w3.org/2000/svg"><path fill-rule="evenodd" clip-rule="evenodd" d="M19.16 3.952a3.248 3.248 0 00-2.296.23l-.373-.752.373.751c-.422.21-.798.51-1.097.883a.84.84 0 11-1.309-1.05 4.954 4.954 0 011.659-1.336 4.942 4.942 0 016.973 5.706l-2.655 9.908a4.942 4.942 0 11-9.548-2.558l1.062-3.963a.84.84 0 111.621.434l-1.062 3.963a3.264 3.264 0 106.305 1.69l2.655-9.909a3.264 3.264 0 00-2.308-3.997zm-5.556 4.883a3.264 3.264 0 00-3.997 2.308l-2.655 9.909a3.264 3.264 0 005.7 2.885.84.84 0 011.31 1.05 4.954 4.954 0 01-1.659 1.336 4.942 4.942 0 01-6.973-5.706l2.655-9.908a4.942 4.942 0 119.548 2.558l-1.062 3.963a.84.84 0 01-1.621-.434l1.062-3.963a3.264 3.264 0 00-2.308-3.998z"/></svg><svg viewBox="0 0 30 30" id="close" xmlns="http://www.w3.org/2000/svg"><path fill-rule="evenodd" clip-rule="evenodd" d="M6.952 6.951a1.2 1.2 0 011.697 0L15 13.303l6.352-6.352a1.2 1.2 0 111.697 1.698L16.697 15l6.352 6.352a1.2 1.2 0 11-1.697 1.697L15 16.697 8.65 23.05a1.2 1.2 0 11-1.697-1.697L13.303 15 6.952 8.649a1.2 1.2 0 010-1.698z"/></svg><svg viewBox="0 0 24 24" id="copy" xmlns="http://www.w3.org/2000/svg"><path fill-rule="evenodd" clip-rule="evenodd" d="M8.889 6.556h6.063c.867 0 1.181.09 1.498.26.316.169.565.418.735.734.17.317.26.631.26 1.498v6.063a.778.778 0 001.555 0V8.988c0-1.386-.145-1.89-.415-2.397a2.828 2.828 0 00-1.176-1.176c-.507-.27-1.01-.415-2.397-.415H8.889a.778.778 0 100 1.556zm6.005 1.815c-.316-.17-.63-.26-1.498-.26H7.493c-.867 0-1.182.09-1.498.26-.313.166-.57.422-.735.735-.17.316-.26.63-.26 1.498v5.903c0 .867.09 1.182.26 1.498.17.317.418.566.735.735.316.17.63.26 1.498.26h5.903c.867 0 1.182-.09 1.498-.26a1.77 1.77 0 00.735-.735c.17-.316.26-.63.26-1.498v-5.903c0-.867-.09-1.182-.26-1.498a1.767 1.767 0 00-.735-.735z"/></svg><svg viewBox="0 0 14 14" id="delete" xmlns="http://www.w3.org/2000/svg"><path fill-rule="evenodd" clip-rule="evenodd" d="M1 3.333c0-.368.298-.666.667-.666h10.666a.667.667 0 110 1.333H1.667A.667.667 0 011 3.333z"/><path fill-rule="evenodd" clip-rule="evenodd" d="M3 2.667c.368 0 .667.298.667.666v7.334C3.667 11.403 4.264 12 5 12h4c.736 0 1.333-.597 1.333-1.333V3.333a.667.667 0 111.334 0v7.334A2.667 2.667 0 019 13.333H5a2.667 2.667 0 01-2.667-2.666V3.333c0-.368.299-.666.667-.666z"/><path fill-rule="evenodd" clip-rule="evenodd" d="M6.333 1.333A.667.667 0 005.667 2v.667h2.666V2a.667.667 0 00-.666-.667H6.333zm-2 .667a2 2 0 012-2h1.334a2 2 0 012 2v1.333A.667.667 0 019 4H5a.667.667 0 01-.667-.667V2z"/></svg><svg viewBox="0 0 24 24" id="details" xmlns="http://www.w3.org/2000/svg"><path fill-rule="evenodd" clip-rule="evenodd" d="M7.293 14.293a1 1 0 011.414 0L12 17.586l3.293-3.293a1 1 0 011.414 1.414l-4 4a1 1 0 01-1.414 0l-4-4a1 1 0 010-1.414z"/><path fill-rule="evenodd" clip-rule="evenodd" d="M12.834 9v8.667h-1.668V9h1.668z"/><path d="M12 10.334A2.667 2.667 0 1012 5a2.667 2.667 0 000 5.334z"/></svg><svg viewBox="0 0 24 24" id="dislike" xmlns="http://www.w3.org/2000/svg"><path d="M10.591 19.314c-.607-.444-.914-1.205-.914-2.253v-2.488H6.23A2.233 2.233 0 014 12.343v-.068c0-.02.003-.042.007-.062l.917-5.762c.17-1.384 1.136-2.18 2.648-2.18h6.83c1.227 0 2.229.998 2.229 2.23v6.401c0 .193.157.35.35.35h1.87a.35.35 0 00.35-.35V6.115a.35.35 0 00-.35-.35h-1.08a.401.401 0 110-.803h1.08c.633 0 1.149.516 1.149 1.15v6.79a1.15 1.15 0 01-1.15 1.15h-1.87c-.45 0-.842-.262-1.031-.64a.353.353 0 01-.089.035c-.107.03-2.657.777-2.657 2.978v2.794a.4.4 0 01-.28.382c-.053.016-1.372.418-2.332-.287zm5.057-6.634a.387.387 0 01.183-.006V6.5c0-.787-.64-1.43-1.43-1.43H7.572c-1.11 0-1.734.496-1.858 1.492L4.8 12.308v.036c0 .787.64 1.43 1.43 1.43h3.849c.222 0 .401.18.401.401v2.886c0 .78.196 1.32.585 1.606.42.314 1.002.284 1.341.229v-2.468c0-2.808 3.108-3.712 3.242-3.748z"/></svg><svg viewBox="0 0 14 14" id="edit" xmlns="http://www.w3.org/2000/svg"><path fill-rule="evenodd" clip-rule="evenodd" d="M10.5 2.333a.654.654 0 00-.462.192L2.86 9.703l-.308 1.233 1.233-.309 7.177-7.177a.654.654 0 00-.462-1.117zM9.212 1.7a1.821 1.821 0 012.576 2.575l-7.292 7.292a.583.583 0 01-.272.153l-2.333.583a.583.583 0 01-.707-.707l.583-2.333a.584.584 0 01.153-.271L9.212 1.7zM6.417 11.738c0-.322.26-.583.583-.583h5.25a.584.584 0 010 1.167H7a.583.583 0 01-.583-.584z"/></svg><svg viewBox="0 0 28 28" id="edit-square" xmlns="http://www.w3.org/2000/svg"><path fill-rule="evenodd" clip-rule="evenodd" d="M16.93 6.192l4.92 5.02c.421-.435.731-.774.955-1.073.303-.405.373-.643.373-.85 0-.207-.07-.445-.373-.85-.317-.424-.807-.926-1.54-1.673-.732-.747-1.224-1.247-1.64-1.57-.396-.309-.622-.374-.81-.374-.188 0-.414.065-.81.374-.3.232-.637.556-1.075.996zm3.772 6.195l-4.924-5.022-5.182 5.285c-.566.578-.708.737-.793.919-.087.183-.12.398-.209 1.21-.14 1.28-.233 2.154-.212 2.804.02.63.145.884.302 1.044.153.157.394.281 1.002.301.633.02 1.485-.074 2.742-.216.798-.09 1-.125 1.173-.21.174-.084.329-.227.896-.805l5.205-5.31zM16.995 3.9c.541-.422 1.118-.721 1.82-.721s1.279.3 1.82.72c.513.4 1.082.98 1.764 1.676l.08.081c.682.696 1.25 1.277 1.642 1.8.413.552.7 1.133.7 1.833s-.287 1.281-.7 1.834c-.391.523-.96 1.103-1.643 1.8l-5.808 5.924a28.11 28.11 0 00-.078.08c-.45.46-.809.826-1.267 1.051-.46.226-.968.283-1.6.354l-.112.012-.064.008c-1.176.133-2.15.244-2.917.218-.805-.026-1.545-.204-2.122-.793-.573-.584-.745-1.33-.77-2.142-.025-.78.083-1.769.214-2.972l.007-.062.012-.111c.07-.648.125-1.158.343-1.621.22-.465.577-.83 1.03-1.29l.077-.079 5.808-5.925c.682-.695 1.251-1.276 1.764-1.675zM11.338 5.28a.821.821 0 01-.811.832c-2.686.032-3.935.217-4.825.876a4.603 4.603 0 00-1.008 1.029c-.396.557-.628 1.27-.749 2.41-.122 1.153-.124 2.642-.124 4.714 0 2.071.002 3.56.124 4.714.121 1.139.353 1.853.75 2.41.281.395.621.742 1.007 1.028.542.402 1.235.636 2.346.759 1.128.124 2.585.126 4.616.126 2.032 0 3.49-.002 4.617-.126 1.11-.123 1.804-.357 2.346-.759a4.602 4.602 0 001.007-1.028c.653-.916.834-2.203.866-4.943a.822.822 0 011.643.02c-.032 2.657-.174 4.477-1.17 5.876a6.248 6.248 0 01-1.368 1.395c-.87.645-1.889.933-3.144 1.072-1.228.136-2.776.136-4.746.136h-.101c-1.97 0-3.518 0-4.746-.136-1.255-.139-2.274-.427-3.144-1.072a6.247 6.247 0 01-1.368-1.395c-.628-.882-.91-1.915-1.045-3.19-.133-1.25-.133-2.826-.133-4.839v-.097c0-2.012 0-3.589.133-4.839.136-1.275.417-2.307 1.045-3.19A6.246 6.246 0 014.724 5.67c1.38-1.022 3.177-1.167 5.783-1.2a.821.821 0 01.831.812z"/></svg><svg viewBox="0 0 28 28" id="file-plus" xmlns="http://www.w3.org/2000/svg"><path fill-rule="evenodd" clip-rule="evenodd" d="M18.78 3.961c-1.169-.126-2.678-.127-4.78-.127-.943 0-1.769 0-2.502.012-.005.527-.021.915-.077 1.265a6.389 6.389 0 01-5.31 5.31c-.35.056-.738.072-1.266.077-.012.734-.012 1.56-.012 2.502v2.223c0 2.101.002 3.61.128 4.78.125 1.153.364 1.875.774 2.44.291.4.644.753 1.045 1.044.564.41 1.287.65 2.44.774 1.169.127 2.678.128 4.78.128 2.102 0 3.611 0 4.78-.128 1.153-.124 1.876-.364 2.44-.774.401-.29.754-.643 1.045-1.044.41-.565.649-1.287.774-2.44.127-1.17.128-2.679.128-4.78V13c0-2.101-.002-3.61-.128-4.78-.125-1.153-.364-1.875-.774-2.44a4.72 4.72 0 00-1.045-1.044c-.564-.41-1.287-.65-2.44-.775zM4.908 8.831c.45-.006.714-.02.942-.055A4.722 4.722 0 009.775 4.85c.036-.228.05-.491.055-.941-1.511.104-2.384.343-3.05.827-.401.29-.754.643-1.045 1.044-.484.666-.723 1.54-.827 3.05zM18.96 2.304c1.296.14 2.345.432 3.24 1.083.543.394 1.02.871 1.414 1.414.651.896.943 1.945 1.083 3.24.137 1.269.137 2.868.137 4.909v2.323c0 2.04 0 3.64-.137 4.909-.14 1.295-.432 2.344-1.083 3.24a6.392 6.392 0 01-1.413 1.414c-.896.65-1.945.942-3.24 1.082-1.27.138-2.87.138-4.91.138h-.1c-2.04 0-3.64 0-4.91-.138-1.294-.14-2.344-.431-3.24-1.082a6.39 6.39 0 01-1.413-1.414c-.651-.896-.943-1.945-1.083-3.24-.137-1.269-.137-2.869-.137-4.91v-2.284c0-1.289 0-2.397.032-3.35.072-2.081.297-3.611 1.188-4.837A6.389 6.389 0 015.8 3.387c1.227-.89 2.757-1.116 4.838-1.187.953-.033 2.06-.033 3.35-.033h.062c2.04 0 3.64 0 4.91.137zM14 11.056c.46 0 .833.373.833.833v2.5h2.5a.833.833 0 010 1.667h-2.5v2.5a.833.833 0 01-1.666 0v-2.5h-2.5a.833.833 0 010-1.667h2.5v-2.5c0-.46.373-.833.833-.833z"/></svg><svg fill="none" viewBox="0 0 24 24" id="google-color" xmlns="http://www.w3.org/2000/svg"><g clip-path="url(#amclip0_300_8)"><path d="M23.766 12.276c0-.816-.066-1.636-.207-2.438H12.24v4.62h6.482a5.555 5.555 0 01-2.399 3.647v2.999h3.867c2.271-2.09 3.576-5.177 3.576-8.828z" fill="#4285F4"/><path d="M12.24 24.001c3.236 0 5.966-1.062 7.954-2.897l-3.867-2.998c-1.076.732-2.464 1.146-4.083 1.146-3.13 0-5.785-2.112-6.737-4.951h-3.99v3.09a12.002 12.002 0 0010.723 6.61z" fill="#34A853"/><path d="M5.503 14.3a7.188 7.188 0 010-4.594v-3.09H1.517a12.01 12.01 0 000 10.776L5.503 14.3z" fill="#FBBC04"/><path d="M12.24 4.75a6.521 6.521 0 014.603 1.799l3.426-3.426A11.533 11.533 0 0012.24 0 11.998 11.998 0 001.517 6.615l3.986 3.09C6.45 6.863 9.11 4.75 12.24 4.75z" fill="#EA4335"/></g><defs><clipPath id="amclip0_300_8"><path fill="#fff" d="M0 0h24v24H0z"/></clipPath></defs></svg><svg viewBox="0 0 28 28" id="graph" xmlns="http://www.w3.org/2000/svg"><path fill-rule="evenodd" clip-rule="evenodd" d="M13.95 3.167h.1c2.04 0 3.64 0 4.91.137 1.294.14 2.344.432 3.24 1.083.542.394 1.02.871 1.413 1.414.651.896.943 1.945 1.083 3.24.137 1.269.137 2.868.137 4.909v.1c0 2.041 0 3.64-.137 4.91-.14 1.295-.432 2.344-1.083 3.24a6.394 6.394 0 01-1.413 1.413c-.896.651-1.945.943-3.24 1.083-1.27.138-2.87.138-4.91.138h-.1c-2.04 0-3.64 0-4.91-.138-1.294-.14-2.344-.432-3.24-1.083A6.391 6.391 0 014.387 22.2c-.651-.896-.943-1.945-1.083-3.24-.137-1.27-.137-2.869-.137-4.91v-.1c0-2.04 0-3.64.137-4.91.14-1.294.432-2.343 1.083-3.24A6.389 6.389 0 015.8 4.388c.896-.65 1.946-.942 3.24-1.083 1.27-.137 2.87-.137 4.91-.137zM9.22 4.961c-1.153.125-1.876.364-2.44.775-.401.29-.754.643-1.045 1.044-.41.565-.649 1.287-.774 2.44-.127 1.17-.128 2.679-.128 4.78 0 2.102.002 3.611.128 4.78.125 1.153.364 1.876.774 2.44.291.401.644.754 1.045 1.045.564.41 1.287.65 2.44.774 1.169.127 2.678.128 4.78.128 2.102 0 3.611-.001 4.78-.128 1.153-.125 1.876-.364 2.44-.774a4.72 4.72 0 001.045-1.045c.41-.564.649-1.287.774-2.44.127-1.169.128-2.678.128-4.78 0-2.101-.002-3.61-.128-4.78-.125-1.153-.364-1.875-.774-2.44a4.72 4.72 0 00-1.045-1.044c-.564-.41-1.287-.65-2.44-.775-1.169-.126-2.678-.127-4.78-.127-2.102 0-3.611 0-4.78.127zm10.703 5.117a.833.833 0 01.38 1.115L18.682 14.5c-1.136 2.316-4.475 2.203-5.452-.185-.433-1.057-1.91-1.107-2.414-.082l-1.622 3.308a.833.833 0 11-1.497-.734L9.32 13.5c1.136-2.316 4.475-2.203 5.452.185.433 1.057 1.91 1.107 2.414.082l1.622-3.308a.833.833 0 011.116-.381z"/></svg><svg viewBox="0 0 24 24" id="like" xmlns="http://www.w3.org/2000/svg"><path d="M13.409 4.686c.607.444.914 1.205.914 2.253v2.487h3.447c1.228 0 2.23 1 2.23 2.23v.069c0 .02-.003.042-.006.062l-.918 5.762c-.17 1.384-1.136 2.18-2.648 2.18h-6.83A2.233 2.233 0 017.37 17.5v-6.401a.35.35 0 00-.35-.35H5.15a.35.35 0 00-.35.35v6.787c0 .193.158.35.35.35h1.08a.401.401 0 110 .803H5.15A1.15 1.15 0 014 17.888v-6.79c0-.633.516-1.15 1.15-1.15h1.87c.45 0 .842.262 1.031.64a.357.357 0 01.089-.035c.107-.03 2.657-.777 2.657-2.978V4.781a.4.4 0 01.28-.382c.053-.016 1.372-.418 2.332.287zM8.352 11.32a.387.387 0 01-.183.006V17.5c0 .787.64 1.43 1.43 1.43h6.83c1.11 0 1.733-.496 1.857-1.492l.914-5.746v-.036c0-.787-.64-1.43-1.43-1.43h-3.849a.401.401 0 01-.401-.401V6.939c0-.78-.196-1.32-.585-1.606-.42-.314-1.002-.284-1.341-.229v2.468c0 2.808-3.108 3.712-3.242 3.748z"/></svg><svg viewBox="0 0 24 24" id="menu-close" xmlns="http://www.w3.org/2000/svg"><path fill-rule="evenodd" clip-rule="evenodd" d="M3.952 3.951a1.2 1.2 0 011.697 0L12 10.303l6.352-6.352a1.2 1.2 0 111.697 1.697L13.697 12l6.352 6.351a1.2 1.2 0 11-1.697 1.697L12 13.697 5.65 20.048a1.2 1.2 0 11-1.697-1.697L10.303 12 3.952 5.648a1.2 1.2 0 010-1.697z"/></svg><svg viewBox="0 0 24 24" id="menu-open" xmlns="http://www.w3.org/2000/svg"><path d="M3 8a1 1 0 011-1h16a1 1 0 110 2H4a1 1 0 01-1-1zM3 12a1 1 0 011-1h16a1 1 0 110 2H4a1 1 0 01-1-1zM3 16a1 1 0 011-1h16a1 1 0 110 2H4a1 1 0 01-1-1z"/></svg><svg viewBox="0 0 24 24" id="paper-plane" xmlns="http://www.w3.org/2000/svg"><path fill-rule="evenodd" clip-rule="evenodd" d="M21.024 2.492l-.001.002zm-.295.78l-6.462 17.072-2.8-6.9a1.5 1.5 0 00-.912-.912L3.653 9.734 20.73 3.27zm.245-1.697a1.125 1.125 0 011.451 1.452l-7.1 18.76a1.126 1.126 0 01-2.1-.025l-3.155-7.771a.795.795 0 01-.016-.045.783.783 0 01-.044-.016l-7.77-3.15a1.125 1.125 0 01-.019-2.108l.004-.001 18.747-7.096h.002z"/><path fill-rule="evenodd" clip-rule="evenodd" d="M22.093 1.907a.75.75 0 010 1.06L11.17 13.89a.75.75 0 01-1.06-1.061L21.031 1.907a.75.75 0 011.06 0z"/></svg><svg viewBox="0 0 28 28" id="picture" xmlns="http://www.w3.org/2000/svg"><path fill-rule="evenodd" clip-rule="evenodd" d="M13.947 2.625h.106c2.142 0 3.822 0 5.154.144 1.36.148 2.462.454 3.403 1.137.57.414 1.07.915 1.484 1.484.683.941.99 2.043 1.137 3.403.144 1.332.144 3.012.144 5.154v.06c0 1.09 0 2.056-.018 2.91-.052 2.513-.248 4.296-1.263 5.693a6.706 6.706 0 01-1.484 1.484c-.941.683-2.043.99-3.403 1.137-1.332.144-3.012.144-5.154.144h-.106c-2.142 0-3.822 0-5.154-.144-1.36-.148-2.462-.454-3.403-1.137a6.707 6.707 0 01-1.484-1.484c-.683-.941-.99-2.043-1.137-3.403-.144-1.332-.144-3.012-.144-5.154v-.106c0-2.142 0-3.822.144-5.154.148-1.36.454-2.462 1.137-3.403.414-.57.915-1.07 1.484-1.484.941-.683 2.043-.99 3.403-1.137 1.332-.144 3.012-.144 5.154-.144zM8.981 4.509c-1.21.131-1.97.382-2.562.813-.421.306-.791.676-1.097 1.097-.43.593-.682 1.351-.813 2.562-.133 1.227-.134 2.812-.134 5.019 0 2.207.001 3.792.134 5.019.047.433.11.808.19 1.139.32-.618.587-1.073.903-1.46a6.708 6.708 0 015.064-2.478c.737-.015 1.522.142 2.805.398l.117.024.028.006c.201-.333.378-.6.563-.827a6.708 6.708 0 019.09-1.24c.115.083.232.175.356.28V14c0-2.207-.001-3.792-.134-5.019-.131-1.21-.382-1.97-.813-2.562a4.958 4.958 0 00-1.097-1.097c-.593-.43-1.351-.682-2.562-.813-1.227-.133-2.812-.134-5.019-.134-2.207 0-3.792.001-5.019.134zm14.618 12.744c-.72-.718-1.054-1.04-1.343-1.244a4.958 4.958 0 00-6.719.915c-.182.225-.384.548-.756 1.2-.118.205-.25.438-.401.707l-2.705 4.786c.69.008 1.46.008 2.325.008 2.207 0 3.792-.001 5.019-.134 1.21-.131 1.97-.382 2.562-.813.421-.306.791-.676 1.097-1.097.623-.857.854-2.029.92-4.328zm-13.895 6.3a.895.895 0 01.034-.067l2.96-5.237c-1.05-.207-1.546-.289-1.995-.279-1.456.03-2.825.7-3.743 1.83-.328.405-.599.935-1.254 2.245.216.233.455.446.713.633.593.43 1.351.682 2.562.813.228.025.469.045.723.061zM9.625 10.5a3.208 3.208 0 116.417 0 3.208 3.208 0 01-6.417 0zm3.208-1.458a1.458 1.458 0 100 2.916 1.458 1.458 0 000-2.916z"/></svg><svg fill="none" viewBox="0 0 48 48" id="plan-adv" xmlns="http://www.w3.org/2000/svg"><path d="M18.746 33.263h3.84L16.581 16h-4.247L6.34 33.263h3.709l1.316-4.187h6.065l1.316 4.187zm-4.39-13.961h.083l2.213 7.07h-4.51l2.213-7.07zM24.602 16v17.263h6.592c5.18 0 8.23-3.218 8.23-8.697 0-5.48-3.05-8.566-8.23-8.566h-6.592zm3.613 2.979h2.548c3.183 0 4.977 1.986 4.977 5.599 0 3.732-1.747 5.694-4.977 5.694h-2.548V18.98z" fill="#fff"/><path fill-rule="evenodd" clip-rule="evenodd" d="M4.703 22.89c0-.716.58-1.296 1.297-1.296h35.009a1.297 1.297 0 110 2.593H6c-.716 0-1.297-.58-1.297-1.297z" fill="#fff"/></svg><svg fill="none" viewBox="0 0 48 48" id="plan-atoms" xmlns="http://www.w3.org/2000/svg"><path d="M23.604 26.672a3.816 3.816 0 100-7.631 3.816 3.816 0 000 7.631z" fill="#E6E6E6"/><path fill-rule="evenodd" clip-rule="evenodd" d="M23.605 7.908c-1.174 0-2.762 1.073-4.158 4.03-1.334 2.825-2.207 6.85-2.207 11.39 0 4.541.873 8.567 2.207 11.392l-.78.369.78-.369c1.396 2.957 2.984 4.03 4.158 4.03 1.174 0 2.762-1.073 4.158-4.03l.786.371-.786-.371c1.335-2.825 2.207-6.85 2.207-11.391 0-4.54-.872-8.566-2.207-11.391-1.396-2.957-2.984-4.03-4.158-4.03zm-5.73 3.288c1.468-3.109 3.495-5.026 5.73-5.026 2.236 0 4.262 1.917 5.73 5.026l-.786.37.786-.37c1.466 3.105 2.373 7.394 2.373 12.133 0 4.738-.907 9.028-2.373 12.133-1.468 3.108-3.494 5.026-5.73 5.026-2.235 0-4.262-1.918-5.73-5.026-1.466-3.105-2.373-7.395-2.373-12.133 0-4.739.907-9.028 2.374-12.133zm.786.37l-.785-.37.785.37z" fill="#E6E6E6"/><path fill-rule="evenodd" clip-rule="evenodd" d="M15.818 14.02c-3.259-.268-4.982.57-5.57 1.587-.586 1.017-.45 2.928 1.412 5.616 1.78 2.568 4.83 5.337 8.761 7.607 3.932 2.27 7.855 3.527 10.969 3.784 3.258.27 4.982-.57 5.569-1.586.587-1.017.451-2.928-1.411-5.616-1.78-2.568-4.83-5.337-8.762-7.607-3.932-2.27-7.854-3.527-10.968-3.784zm-7.074.718c1.118-1.936 3.791-2.732 7.217-2.45 3.422.284 7.59 1.643 11.694 4.012l-.434.753.434-.753c4.104 2.37 7.365 5.3 9.321 8.122l-.714.495.714-.495c1.958 2.825 2.606 5.539 1.488 7.475-1.118 1.936-3.792 2.732-7.217 2.45-3.423-.284-7.591-1.643-11.695-4.012-4.103-2.37-7.365-5.3-9.32-8.122-1.958-2.825-2.606-5.539-1.488-7.475z" fill="#E6E6E6"/><path fill-rule="evenodd" clip-rule="evenodd" d="M36.958 15.632c-.587-1.016-2.31-1.855-5.57-1.586-3.113.257-7.036 1.514-10.968 3.785-3.932 2.27-6.981 5.038-8.761 7.606-1.863 2.688-1.998 4.6-1.411 5.616.587 1.017 2.31 1.856 5.569 1.586 3.114-.257 7.037-1.514 10.968-3.784l.435.753-.435-.753c3.932-2.27 6.982-5.038 8.762-7.607 1.863-2.687 1.998-4.599 1.411-5.616zm-5.712-3.318c3.425-.283 6.1.513 7.217 2.45 1.118 1.936.47 4.65-1.488 7.474-1.956 2.823-5.217 5.753-9.32 8.122l-.402-.694.401.694c-4.103 2.37-8.272 3.729-11.694 4.011-3.426.283-6.1-.513-7.217-2.449-1.118-1.936-.47-4.65 1.487-7.474 1.956-2.823 5.218-5.753 9.322-8.122 4.103-2.37 8.272-3.729 11.694-4.012z" fill="#E6E6E6"/><path d="M29.323 14.743a3.336 3.336 0 100-6.673 3.336 3.336 0 000 6.673z" fill="#E6E6E6"/><path fill-rule="evenodd" clip-rule="evenodd" d="M25.033 11.407a4.29 4.29 0 118.58 0 4.29 4.29 0 01-8.58 0zm4.29-2.383a2.383 2.383 0 100 4.766 2.383 2.383 0 000-4.766z" fill="#ABABAB"/><path d="M8.351 31.907a3.336 3.336 0 100-6.673 3.336 3.336 0 000 6.673z" fill="#E6E6E6"/><path fill-rule="evenodd" clip-rule="evenodd" d="M4.062 28.571a4.29 4.29 0 118.58 0 4.29 4.29 0 01-8.58 0zm4.29-2.383a2.383 2.383 0 100 4.766 2.383 2.383 0 000-4.766z" fill="#ABABAB"/><path d="M35.996 37.632a3.337 3.337 0 100-6.673 3.337 3.337 0 000 6.673z" fill="#E6E6E6"/><path fill-rule="evenodd" clip-rule="evenodd" d="M31.706 34.296a4.29 4.29 0 118.58 0 4.29 4.29 0 01-8.58 0zm4.29-2.384a2.383 2.383 0 100 4.767 2.383 2.383 0 000-4.767z" fill="#ABABAB"/></svg><svg fill="none" viewBox="0 0 48 48" id="plan-chatgpt-v-3" xmlns="http://www.w3.org/2000/svg"><path d="M40.79 21.447a9.41 9.41 0 00-.81-7.724 9.51 9.51 0 00-10.24-4.561 9.541 9.541 0 00-16.162 3.415A9.413 9.413 0 007.29 17.14 9.51 9.51 0 008.458 28.3a9.406 9.406 0 00.804 7.724 9.518 9.518 0 0010.246 4.561A9.411 9.411 0 0026.6 43.75a9.524 9.524 0 009.078-6.615 9.42 9.42 0 006.288-4.562 9.525 9.525 0 00-1.176-11.125zM26.6 41.28a7.04 7.04 0 01-4.524-1.637l.223-.127 7.516-4.338a1.251 1.251 0 00.617-1.072V23.509l3.177 1.838a.112.112 0 01.06.082v8.78a7.084 7.084 0 01-7.07 7.07zm-15.195-6.49a7.032 7.032 0 01-.841-4.74l.223.135 7.523 4.338a1.214 1.214 0 001.228 0l9.19-5.298v3.668a.127.127 0 01-.052.097l-7.613 4.39a7.077 7.077 0 01-9.658-2.59zm-1.98-16.37a7.056 7.056 0 013.721-3.103v8.93a1.205 1.205 0 00.61 1.064l9.146 5.275-3.178 1.838a.12.12 0 01-.112 0l-7.597-4.382a7.084 7.084 0 01-2.59-9.66v.038zm26.104 6.065l-9.175-5.328 3.17-1.831a.118.118 0 01.112 0l7.598 4.39a7.07 7.07 0 01-1.065 12.747v-8.93a1.242 1.242 0 00-.64-1.048zm3.163-4.755l-.223-.134-7.508-4.376a1.22 1.22 0 00-1.236 0l-9.182 5.298V16.85a.105.105 0 01.045-.097l7.597-4.383a7.076 7.076 0 0110.507 7.33v.03zm-19.883 6.503l-3.178-1.83a.126.126 0 01-.06-.09v-8.758a7.075 7.075 0 017.98-7.01 7.076 7.076 0 013.622 1.578l-.223.126-7.516 4.338a1.25 1.25 0 00-.618 1.072l-.007 10.574zm1.726-3.72l4.093-2.36 4.1 2.36v4.717l-4.085 2.359-4.1-2.359-.008-4.717z" fill="#fff"/></svg><svg fill="none" viewBox="0 0 48 48" id="plan-chatgpt-v-4" xmlns="http://www.w3.org/2000/svg"><path d="M17.91 26.468l-3.665-2.111a.146.146 0 01-.07-.103V14.152a8.162 8.162 0 0113.382-6.266l-.258.146-8.668 5.004a1.443 1.443 0 00-.713 1.236l-.009 12.196z" fill="#fff"/><path d="M40.844 18.967l-.258-.155-8.66-5.046a1.406 1.406 0 00-1.425 0l-10.591 6.11v-4.23a.122.122 0 01.051-.112l8.764-5.056a8.162 8.162 0 0112.119 8.455v.034z" fill="#fff"/><path d="M37.196 24.452l-10.583-6.146 3.656-2.112a.137.137 0 01.129 0l8.763 5.064a8.154 8.154 0 01-1.227 14.703v-10.3a1.432 1.432 0 00-.738-1.21z" fill="#fff"/><path d="M26.896 43.823a8.12 8.12 0 01-5.218-1.888l.257-.146 8.669-5.004a1.44 1.44 0 00.713-1.236V23.327l3.664 2.12a.129.129 0 01.07.095V35.67a8.17 8.17 0 01-8.155 8.153z" fill="#fff"/><path d="M9.37 36.34a8.112 8.112 0 01-.97-5.469l.257.155 8.678 5.004a1.4 1.4 0 001.416 0l10.6-6.111v4.231a.146.146 0 01-.06.112l-8.78 5.064a8.163 8.163 0 01-11.142-2.987z" fill="#fff"/><path d="M7.087 17.456a8.137 8.137 0 014.291-3.579v10.3a1.392 1.392 0 00.704 1.227L22.63 31.49l-3.665 2.12a.136.136 0 01-.128 0l-8.764-5.056a8.172 8.172 0 01-2.986-11.14v.042z" fill="#fff"/><path d="M19.9 22.177l4.722-2.721 4.729 2.72v5.443l-4.712 2.72-4.73-2.72-.008-5.442z" fill="#fff"/></svg><svg fill="none" viewBox="0 0 48 48" id="plan-infinite" xmlns="http://www.w3.org/2000/svg"><path fill-rule="evenodd" clip-rule="evenodd" d="M17.173 21.372c-1.52-1.29-3.181-1.834-4.404-1.723-3.631.33-5.135 2.5-5.135 4.168 0 1.67 1.504 3.84 5.135 4.169 1.223.111 2.884-.434 4.404-1.723.77-.653 1.271-1.299 1.566-1.81.188-.328.261-.542.289-.636a2.98 2.98 0 00-.289-.634c-.295-.512-.797-1.158-1.566-1.811zm-4.914-7.334c3.128-.284 6.233 1.065 8.558 3.037 1.237 1.049 2.168 2.19 2.804 3.295.602 1.044 1.057 2.262 1.057 3.447 0 1.186-.455 2.404-1.056 3.448-.637 1.105-1.568 2.246-2.805 3.295-2.325 1.972-5.43 3.322-8.558 3.037m0-19.56C6.574 14.555 2 18.455 2 23.818c0 5.364 4.574 9.264 10.26 9.78" fill="#fff"/><path fill-rule="evenodd" clip-rule="evenodd" d="M30.026 21.372c1.52-1.29 3.18-1.834 4.403-1.723 3.632.33 5.135 2.5 5.135 4.168 0 1.67-1.503 3.84-5.134 4.169-1.224.111-2.884-.434-4.404-1.723-.77-.653-1.272-1.299-1.567-1.81a2.981 2.981 0 01-.288-.636c.027-.093.1-.308.288-.634.295-.512.797-1.158 1.567-1.811zm4.913-7.334c-3.128-.284-6.233 1.065-8.558 3.037-1.236 1.049-2.167 2.19-2.804 3.295-.602 1.044-1.057 2.262-1.057 3.447 0 1.186.456 2.404 1.057 3.448.637 1.105 1.567 2.246 2.804 3.295 2.325 1.972 5.43 3.322 8.558 3.037m0-19.56c5.686.517 10.26 4.417 10.26 9.78 0 5.364-4.574 9.264-10.26 9.78" fill="#fff"/></svg><svg viewBox="0 0 24 24" id="plan-minus" xmlns="http://www.w3.org/2000/svg"><path d="M3 12a1 1 0 011-1h16a1 1 0 110 2H4a1 1 0 01-1-1z"/></svg><svg viewBox="0 0 24 24" id="plan-plus" xmlns="http://www.w3.org/2000/svg"><path fill-rule="evenodd" clip-rule="evenodd" d="M21.28 5.22a.75.75 0 010 1.06L8.905 18.655a.75.75 0 01-1.06 0L2.22 13.03a.75.75 0 111.06-1.06l5.095 5.094L20.22 5.22a.75.75 0 011.06 0z"/></svg><svg viewBox="0 0 24 24" id="plus" xmlns="http://www.w3.org/2000/svg"><path fill-rule="evenodd" clip-rule="evenodd" d="M12 24a1 1 0 01-1-1V1a1 1 0 112 0v22a1 1 0 01-1 1z"/><path fill-rule="evenodd" clip-rule="evenodd" d="M24 12a1 1 0 01-1 1H1a1 1 0 110-2h22a1 1 0 011 1z"/></svg><svg viewBox="0 0 28 28" id="plus-box" xmlns="http://www.w3.org/2000/svg"><path fill-rule="evenodd" clip-rule="evenodd" d="M7.718 3.063h.064c.555 0 1.019 0 1.4.025.396.028.77.086 1.133.236a3.437 3.437 0 011.86 1.86c.151.364.21.738.236 1.134.027.381.027.845.027 1.4v.064c0 .555 0 1.019-.027 1.4-.027.396-.085.77-.235 1.133a3.437 3.437 0 01-1.86 1.86c-.364.151-.738.21-1.134.236-.381.027-.845.027-1.4.027h-.064c-.555 0-1.019 0-1.4-.027-.396-.027-.77-.085-1.133-.235a3.437 3.437 0 01-1.86-1.86c-.151-.364-.21-.738-.237-1.134-.026-.381-.026-.845-.026-1.4v-.064c0-.555 0-1.019.026-1.4.028-.396.086-.77.236-1.133a3.438 3.438 0 011.86-1.86c.364-.151.738-.21 1.134-.237.381-.026.845-.026 1.4-.026zM6.446 4.958c-.301.02-.447.057-.544.097a1.562 1.562 0 00-.846.846c-.04.096-.076.243-.097.544-.021.31-.021.709-.021 1.304 0 .595 0 .995.021 1.304.02.301.057.447.097.544.159.383.463.687.846.846.096.04.243.076.544.097.31.021.709.021 1.304.021.595 0 .995 0 1.304-.021.301-.02.447-.058.544-.097.383-.159.687-.463.846-.846.04-.097.076-.243.097-.544.021-.31.021-.709.021-1.304 0-.595 0-.995-.021-1.304-.02-.301-.058-.447-.097-.544a1.563 1.563 0 00-.846-.846c-.097-.04-.243-.076-.544-.097-.31-.021-.709-.021-1.304-.021-.595 0-.995 0-1.304.021zM20.25 3.063c.518 0 .938.42.938.937v2.813H24a.937.937 0 110 1.875h-2.813V11.5a.937.937 0 11-1.875 0V8.687H16.5a.937.937 0 110-1.874h2.813V4c0-.518.42-.938.937-.938zm-12.532 12.5h.064c.555 0 1.019 0 1.4.025.396.028.77.086 1.133.236a3.437 3.437 0 011.86 1.86c.151.363.21.738.236 1.134.027.381.027.845.027 1.4v.064c0 .555 0 1.019-.027 1.4-.027.396-.085.77-.235 1.134a3.437 3.437 0 01-1.86 1.86c-.364.15-.738.209-1.134.236-.381.026-.845.026-1.4.026h-.064c-.555 0-1.019 0-1.4-.026-.396-.027-.77-.086-1.133-.236a3.437 3.437 0 01-1.86-1.86c-.151-.363-.21-.738-.237-1.134-.026-.381-.026-.845-.026-1.4v-.064c0-.555 0-1.019.026-1.4.028-.396.086-.77.236-1.134a3.437 3.437 0 011.86-1.86c.364-.15.738-.208 1.134-.236.381-.025.845-.025 1.4-.025zm-1.272 1.896c-.301.02-.447.058-.544.097a1.563 1.563 0 00-.846.846c-.04.096-.076.243-.097.544-.021.31-.021.709-.021 1.304 0 .595 0 .995.021 1.304.02.301.057.448.097.544.159.383.463.687.846.846.096.04.243.076.544.097.31.021.709.021 1.304.021.595 0 .995 0 1.304-.021.301-.02.447-.058.544-.097.383-.159.687-.463.846-.846.04-.096.076-.243.097-.544.021-.31.021-.709.021-1.304 0-.595 0-.995-.021-1.304-.02-.301-.058-.448-.097-.544a1.563 1.563 0 00-.846-.846c-.097-.04-.243-.076-.544-.097-.31-.021-.709-.021-1.304-.021-.595 0-.995 0-1.304.021zm13.772-1.896h.064c.555 0 1.019 0 1.4.025.396.028.77.086 1.134.236a3.437 3.437 0 011.86 1.86c.15.363.209.738.236 1.134.026.381.026.845.026 1.4v.064c0 .555 0 1.019-.026 1.4-.027.396-.086.77-.236 1.134a3.437 3.437 0 01-1.86 1.86c-.363.15-.738.209-1.134.236-.381.026-.845.026-1.4.026h-.064c-.555 0-1.019 0-1.4-.026-.396-.027-.77-.086-1.134-.236a3.437 3.437 0 01-1.86-1.86c-.15-.363-.208-.738-.236-1.134-.025-.381-.025-.845-.025-1.4v-.064c0-.555 0-1.019.025-1.4.028-.396.086-.77.236-1.134a3.437 3.437 0 011.86-1.86c.363-.15.738-.208 1.134-.236.381-.025.845-.025 1.4-.025zm-1.272 1.896c-.301.02-.448.058-.544.097a1.563 1.563 0 00-.846.846c-.04.096-.076.243-.097.544-.021.31-.021.709-.021 1.304 0 .595 0 .995.021 1.304.02.301.058.448.097.544.159.383.463.687.846.846.096.04.243.076.544.097.31.021.709.021 1.304.021.595 0 .995 0 1.304-.021.301-.02.448-.058.544-.097.383-.159.687-.463.846-.846.04-.096.076-.243.097-.544.021-.31.021-.709.021-1.304 0-.595 0-.995-.021-1.304-.02-.301-.058-.448-.097-.544a1.563 1.563 0 00-.846-.846c-.096-.04-.243-.076-.544-.097-.31-.021-.709-.021-1.304-.021-.595 0-.995 0-1.304.021z"/></svg><svg viewBox="0 0 28 28" id="plus-type-2" xmlns="http://www.w3.org/2000/svg"><path fill-rule="evenodd" clip-rule="evenodd" d="M14 3a1 1 0 011 1v9h9a1 1 0 110 2h-9v9a1 1 0 11-2 0v-9H4a1 1 0 110-2h9V4a1 1 0 011-1z"/></svg><svg viewBox="0 0 28 28" id="question-mark" xmlns="http://www.w3.org/2000/svg"><path fill-rule="evenodd" clip-rule="evenodd" d="M14 4.75a9.25 9.25 0 100 18.5 9.25 9.25 0 000-18.5zM3.25 14C3.25 8.063 8.063 3.25 14 3.25S24.75 8.063 24.75 14 19.937 24.75 14 24.75 3.25 19.937 3.25 14zm12.309-4.339c-.972-1.296-3-.967-3.512.57l-.336 1.006a.75.75 0 01-1.422-.474l.335-1.006c.895-2.685 4.437-3.26 6.135-.996a3.508 3.508 0 01-.167 4.416l-.919 1.05a3.73 3.73 0 00-.923 2.456V17a.75.75 0 01-1.5 0v-.317c0-1.267.46-2.49 1.294-3.444l.92-1.05a2.008 2.008 0 00.095-2.528zM15 20a1 1 0 11-2 0 1 1 0 012 0z"/></svg><svg viewBox="0 0 24 24" id="refresh" xmlns="http://www.w3.org/2000/svg"><path d="M18.517 18.549a9.179 9.179 0 01-6.53 2.704c-5.09 0-9.23-4.138-9.235-9.225l1.884 1.886a.32.32 0 00.45-.45l-2.497-2.498-2.495 2.497a.318.318 0 10.448.45l1.586-1.586c.165 5.3 4.516 9.563 9.855 9.563a9.81 9.81 0 006.982-2.892.318.318 0 00-.448-.45zM23.906 10.087a.318.318 0 00-.45 0l-1.583 1.585c-.167-5.3-4.518-9.562-9.856-9.562a9.81 9.81 0 00-6.983 2.892.317.317 0 000 .45.317.317 0 00.45 0 9.178 9.178 0 016.53-2.705c5.088 0 9.23 4.137 9.236 9.225l-1.885-1.886a.319.319 0 00-.45.45l2.496 2.498 2.496-2.497a.318.318 0 000-.45z"/></svg><svg viewBox="0 0 28 28" id="settings" xmlns="http://www.w3.org/2000/svg"><path fill-rule="evenodd" clip-rule="evenodd" d="M3.063 5.5a3.437 3.437 0 116.874 0 3.437 3.437 0 01-6.874 0zM6.5 3.937a1.563 1.563 0 100 3.126 1.563 1.563 0 000-3.125zM13.063 5.5c0-.518.42-.938.937-.938h10a.937.937 0 110 1.875H14a.937.937 0 01-.938-.937zm5 8.75a3.437 3.437 0 116.874 0 3.437 3.437 0 01-6.875 0zm3.437-1.563a1.563 1.563 0 100 3.126 1.563 1.563 0 000-3.126zM3.062 14.25c0-.518.42-.938.938-.938h10a.937.937 0 110 1.876H4a.937.937 0 01-.938-.938zm0 8.75a3.437 3.437 0 116.875 0 3.437 3.437 0 01-6.874 0zM6.5 21.437a1.563 1.563 0 100 3.126 1.563 1.563 0 000-3.125zM13.063 23c0-.518.42-.938.937-.938h10a.937.937 0 110 1.875H14a.937.937 0 01-.938-.937z"/></svg><svg viewBox="0 0 28 28" id="settings-type-2" xmlns="http://www.w3.org/2000/svg"><path fill-rule="evenodd" clip-rule="evenodd" d="M10.784 5.725c.923-3.244 5.509-3.244 6.432 0a1.927 1.927 0 002.322 1.346c3.271-.823 5.55 3.164 3.217 5.582a1.942 1.942 0 000 2.694c2.334 2.418.054 6.404-3.217 5.582a1.927 1.927 0 00-2.322 1.346c-.923 3.244-5.509 3.244-6.432 0a1.927 1.927 0 00-2.322-1.346c-3.271.822-5.55-3.164-3.217-5.582a1.942 1.942 0 000-2.694C2.91 10.235 5.19 6.248 8.462 7.07a1.927 1.927 0 002.322-1.346zm5.07.387c-.533-1.872-3.175-1.872-3.708 0a3.343 3.343 0 01-4.03 2.332c-1.874-.471-3.208 1.82-1.852 3.225a3.358 3.358 0 010 4.662c-1.356 1.404-.022 3.696 1.853 3.225a3.343 3.343 0 014.029 2.332c.533 1.872 3.175 1.872 3.708 0a3.343 3.343 0 014.03-2.332c1.874.471 3.208-1.82 1.852-3.225a3.357 3.357 0 010-4.662c1.356-1.404.022-3.696-1.852-3.225a3.343 3.343 0 01-4.03-2.332zM10.47 14c0-1.953 1.579-3.54 3.531-3.54A3.535 3.535 0 0117.531 14 3.535 3.535 0 0114 17.54 3.536 3.536 0 0110.469 14zM14 11.876A2.12 2.12 0 0011.884 14 2.12 2.12 0 0014 16.124 2.12 2.12 0 0016.116 14 2.12 2.12 0 0014 11.876z"/></svg><svg viewBox="0 0 28 28" id="star" xmlns="http://www.w3.org/2000/svg"><path fill-rule="evenodd" clip-rule="evenodd" d="M9.771 6.158c1.324-4.21 7.133-4.21 8.458 0 .335 1.066 1.284 1.758 2.32 1.758 4.37 0 6.034 5.676 2.625 8.234-.86.646-1.234 1.806-.897 2.878a4.555 4.555 0 01-1.605 5.076c-1.43 1.073-3.503 1.31-5.248 0a2.355 2.355 0 00-2.848 0c-1.745 1.31-3.819 1.073-5.248 0a4.555 4.555 0 01-1.605-5.076c.337-1.072-.038-2.232-.897-2.878-3.41-2.558-1.745-8.234 2.624-8.234 1.037 0 1.986-.692 2.321-1.758zm6.55.6a2.411 2.411 0 00-4.642 0c-.587 1.865-2.283 3.158-4.229 3.158-2.303 0-3.412 3.143-1.424 4.635 1.555 1.166 2.19 3.216 1.605 5.077-.377 1.198.09 2.27.897 2.877.803.602 1.894.715 2.848 0a4.355 4.355 0 015.248 0c.953.715 2.045.602 2.848 0 .807-.606 1.274-1.678.897-2.877-.585-1.86.05-3.91 1.605-5.077 1.988-1.492.879-4.635-1.424-4.635-1.946 0-3.642-1.293-4.229-3.158zm-.735 2.062a1 1 0 011.262.638c.17.519.662.878 1.225.878a1 1 0 110 2 3.285 3.285 0 01-3.125-2.255 1 1 0 01.638-1.261z"/></svg><svg viewBox="0 0 28 28" id="text" xmlns="http://www.w3.org/2000/svg"><path fill-rule="evenodd" clip-rule="evenodd" d="M13.947 1.458h.106c2.142 0 3.822 0 5.154.144 1.36.148 2.462.454 3.403 1.137.57.414 1.07.915 1.484 1.484.683.941.99 2.043 1.137 3.403.144 1.332.144 3.012.144 5.154v2.44c0 2.142 0 3.821-.144 5.154-.148 1.36-.454 2.461-1.137 3.402a6.708 6.708 0 01-1.484 1.484c-.941.684-2.043.99-3.403 1.137-1.332.144-3.012.144-5.154.144h-.106c-2.142 0-3.822 0-5.154-.144-1.36-.147-2.462-.453-3.403-1.137a6.709 6.709 0 01-1.484-1.484c-.683-.94-.99-2.042-1.137-3.402-.144-1.333-.144-3.012-.144-5.155V12.78c0-2.142 0-3.822.144-5.154.148-1.36.454-2.462 1.137-3.403.414-.57.915-1.07 1.484-1.484.941-.683 2.043-.99 3.403-1.137 1.332-.144 3.012-.144 5.154-.144zM8.981 3.342c-1.21.131-1.97.382-2.562.813-.421.306-.791.676-1.097 1.097-.43.593-.682 1.351-.813 2.562-.133 1.227-.134 2.812-.134 5.019v2.333c0 2.207.001 3.792.134 5.02.131 1.21.382 1.969.813 2.561.306.421.676.792 1.097 1.097.593.431 1.351.682 2.562.813 1.227.133 2.812.134 5.019.134 2.207 0 3.792 0 5.019-.134 1.21-.131 1.97-.382 2.562-.813.421-.305.791-.676 1.097-1.097.43-.592.682-1.35.813-2.562.133-1.227.134-2.812.134-5.019v-2.333c0-2.207-.001-3.792-.134-5.019-.131-1.21-.382-1.97-.813-2.562a4.958 4.958 0 00-1.097-1.097c-.593-.43-1.351-.682-2.562-.813-1.227-.133-2.812-.134-5.019-.134-2.207 0-3.792.001-5.019.134zm-.523 5.991c0-.483.392-.875.875-.875h3.5a.875.875 0 110 1.75h-3.5a.875.875 0 01-.875-.875zm0 4.667c0-.484.392-.875.875-.875h9.334a.875.875 0 110 1.75H9.333A.875.875 0 018.458 14zm0 4.666c0-.483.392-.875.875-.875h9.334a.875.875 0 010 1.75H9.333a.875.875 0 01-.875-.875z"/></svg><svg viewBox="0 0 48 48" id="upload-file" xmlns="http://www.w3.org/2000/svg"><path fill-rule="evenodd" clip-rule="evenodd" d="M4.923 6.77A6.77 6.77 0 0111.693 0h19.659c1.388 0 2.69.668 3.5 1.796l7.417 10.333c.525.732.808 1.61.808 2.512v26.59A6.77 6.77 0 0136.307 48H11.692a6.77 6.77 0 01-6.77-6.77V6.77zm6.77-3.078A3.077 3.077 0 008.614 6.77v34.462c0 1.7 1.378 3.077 3.077 3.077h24.615c1.7 0 3.077-1.378 3.077-3.077V16.36h-8a1.846 1.846 0 01-1.846-1.845V3.692H11.692z"/><path d="M31.596 27a1.846 1.846 0 01-2.595.288l-3.155-2.524v8.467a1.846 1.846 0 01-3.692 0v-8.467L19 27.288a1.846 1.846 0 01-2.307-2.884l6.147-4.917a1.84 1.84 0 011.145-.41H24.006c.441.001.845.157 1.162.416l6.14 4.911c.795.637.924 1.8.288 2.595z"/></svg><svg viewBox="0 0 28 28" id="video" xmlns="http://www.w3.org/2000/svg"><path fill-rule="evenodd" clip-rule="evenodd" d="M10.966 5.25h.068c1.371 0 2.447 0 3.311.07.88.073 1.607.221 2.265.557a5.75 5.75 0 012.513 2.513c.05.098.096.197.138.3 1.167-.51 2.122-.924 2.898-1.135.825-.224 1.628-.27 2.347.2.718.47.998 1.225 1.123 2.07.121.82.121 1.9.121 3.225v1.9c0 1.326 0 2.406-.121 3.224-.125.846-.405 1.6-1.123 2.07-.719.47-1.522.425-2.347.2-.776-.21-1.731-.623-2.898-1.133a4.197 4.197 0 01-.138.3 5.75 5.75 0 01-2.513 2.512c-.658.336-1.385.485-2.265.556-.864.071-1.94.071-3.311.071h-.068c-1.371 0-2.447 0-3.311-.07-.88-.072-1.607-.221-2.265-.557a5.75 5.75 0 01-2.513-2.513c-.336-.658-.484-1.385-.556-2.265-.071-.864-.071-1.94-.071-3.311v-.068c0-1.371 0-2.447.07-3.311.073-.88.221-1.607.557-2.265A5.75 5.75 0 015.39 5.877c.658-.336 1.385-.484 2.265-.556.864-.071 1.94-.071 3.311-.071zm8.662 12.584l.07.031c1.287.562 2.175.948 2.854 1.132.665.18.946.115 1.132-.008.187-.122.36-.353.461-1.034.103-.696.105-1.664.105-3.068v-1.774c0-1.404-.002-2.372-.105-3.068-.101-.681-.274-.912-.46-1.034-.187-.123-.468-.189-1.133-.008-.679.184-1.567.57-2.853 1.132l-.07.03c.121.955.121 2.152.121 3.73v.21c0 1.578 0 2.775-.122 3.73zM7.778 6.816c-.788.064-1.296.188-1.707.397a4.25 4.25 0 00-1.858 1.858c-.21.411-.333.919-.397 1.706-.065.796-.066 1.81-.066 3.223 0 1.412 0 2.427.066 3.223.064.787.188 1.295.397 1.707a4.25 4.25 0 001.858 1.857c.411.21.919.333 1.706.397.796.065 1.81.066 3.223.066 1.412 0 2.427 0 3.223-.066.787-.064 1.295-.188 1.707-.397a4.251 4.251 0 001.857-1.857c.116-.228.205-.484.273-.8.186-.867.19-2.063.19-4.13 0-2.068-.004-3.263-.19-4.132a3.21 3.21 0 00-.273-.797 4.25 4.25 0 00-1.857-1.858c-.412-.21-.92-.333-1.707-.397-.796-.065-1.81-.066-3.223-.066-1.413 0-2.427 0-3.223.066zm5.003 3.804l.066.04c.697.43 1.266.78 1.688 1.097.428.323.799.678.998 1.155.29.694.29 1.482 0 2.176-.2.477-.57.832-.998 1.155-.422.317-.99.667-1.688 1.097l-.066.04c-.697.43-1.266.78-1.736 1.01-.471.232-.962.407-1.479.349a2.572 2.572 0 01-1.834-1.122c-.288-.422-.388-.934-.435-1.48-.047-.542-.047-1.239-.047-2.101v-.072c0-.862 0-1.559.047-2.102.047-.545.147-1.057.435-1.48a2.572 2.572 0 011.834-1.12c.517-.059 1.008.116 1.48.348.469.23 1.038.58 1.735 1.01zm-2.397.336c-.403-.198-.572-.213-.65-.204a1.072 1.072 0 00-.762.476c-.065.094-.14.286-.18.763-.041.471-.042 1.102-.042 2.009 0 .907 0 1.538.041 2.01.041.476.116.668.18.762.19.279.47.444.762.476.079.009.248-.006.65-.204.398-.195.906-.507 1.645-.962.738-.454 1.246-.768 1.604-1.038.359-.27.472-.428.517-.534a1.332 1.332 0 000-1.02c-.045-.106-.158-.264-.516-.534-.359-.27-.867-.584-1.605-1.038-.739-.455-1.247-.766-1.644-.962z"/></svg><svg viewBox="0 0 28 28" id="video-youtube" xmlns="http://www.w3.org/2000/svg"><path fill-rule="evenodd" clip-rule="evenodd" d="M14.447 3.125h.106c2.142 0 3.822 0 5.154.144 1.36.148 2.462.454 3.403 1.137.57.414 1.07.915 1.484 1.484.683.941.99 2.043 1.137 3.403.144 1.332.144 3.012.144 5.154v.106c0 2.142 0 3.822-.144 5.154-.148 1.36-.454 2.462-1.137 3.403a6.706 6.706 0 01-1.484 1.484c-.941.683-2.043.99-3.403 1.137-1.332.144-3.012.144-5.154.144h-.106c-2.142 0-3.822 0-5.154-.144-1.36-.148-2.462-.454-3.403-1.137a6.707 6.707 0 01-1.484-1.484c-.683-.941-.99-2.043-1.137-3.403-.144-1.332-.144-3.012-.144-5.154v-.106c0-2.142 0-3.822.144-5.154.148-1.36.454-2.462 1.137-3.403.414-.57.915-1.07 1.484-1.484.941-.683 2.043-.99 3.403-1.137 1.332-.144 3.012-.144 5.154-.144zM9.481 5.009c-1.21.131-1.97.382-2.562.813-.421.306-.791.676-1.097 1.097-.43.593-.682 1.351-.813 2.562-.133 1.227-.134 2.812-.134 5.019 0 2.207.001 3.792.134 5.019.131 1.21.382 1.97.813 2.562.306.421.676.791 1.097 1.097.593.43 1.351.682 2.562.813 1.227.133 2.812.134 5.019.134 2.207 0 3.792-.001 5.019-.134 1.21-.131 1.97-.382 2.562-.813.421-.306.791-.676 1.097-1.097.43-.593.682-1.351.813-2.562.133-1.227.134-2.812.134-5.019 0-2.207-.001-3.792-.134-5.019-.131-1.21-.382-1.97-.813-2.562a4.958 4.958 0 00-1.097-1.097c-.593-.43-1.351-.682-2.562-.813-1.227-.133-2.812-.134-5.019-.134-2.207 0-3.792.001-5.019.134zm7.097 5.547l.076.048c.814.5 1.478.91 1.97 1.28.5.376.932.79 1.164 1.347.338.809.338 1.73 0 2.538-.232.556-.665.971-1.164 1.347-.492.37-1.155.78-1.97 1.28l-.076.047c-.814.501-1.478.91-2.025 1.179-.55.27-1.123.474-1.726.407a3 3 0 01-2.14-1.309c-.335-.492-.453-1.09-.507-1.726-.055-.634-.055-1.446-.055-2.452v-.084c0-1.006 0-1.818.055-2.452.054-.636.172-1.234.507-1.726a3 3 0 012.14-1.309c.603-.067 1.176.137 1.726.407.547.27 1.211.678 2.024 1.178zm-2.797.393c-.47-.231-.668-.249-.76-.239-.34.039-.666.23-.888.555-.074.11-.162.334-.21.89-.047.55-.048 1.287-.048 2.345 0 1.058 0 1.794.048 2.344.048.557.136.78.21.89.222.325.549.517.889.555.091.01.289-.007.759-.238.464-.228 1.057-.592 1.918-1.122.862-.53 1.454-.896 1.872-1.21.418-.315.55-.5.602-.624a1.554 1.554 0 000-1.19c-.051-.123-.184-.309-.602-.623-.418-.315-1.01-.681-1.872-1.211-.861-.53-1.454-.894-1.918-1.122z"/></svg><svg fill="none" viewBox="0 0 24 24" id="vk-color" xmlns="http://www.w3.org/2000/svg"><g clip-path="url(#bmclip0_300_6)"><path fill-rule="evenodd" clip-rule="evenodd" d="M1.689 1.689C0 3.377 0 6.086 0 11.52v.96c0 5.434 0 8.143 1.689 9.831C3.377 24 6.086 24 11.52 24h.96c5.434 0 8.143 0 9.831-1.689C24 20.623 24 17.914 24 12.48v-.96c0-5.434 0-8.143-1.689-9.831C20.623 0 17.914 0 12.48 0h-.96C6.086 0 3.377 0 1.689 1.689zM3.986 7.5c.137 6.24 3.42 10.003 8.828 10.003h.317v-3.574c1.972.197 3.446 1.671 4.046 3.574h2.846a7.904 7.904 0 00-4.02-5.014 7.621 7.621 0 003.42-4.989h-2.589c-.548 1.989-2.16 3.789-3.703 3.96V7.5H10.5v6.926c-1.594-.395-3.686-2.34-3.771-6.926H3.986z" fill="#fff"/></g><defs><clipPath id="bmclip0_300_6"><path fill="#fff" d="M0 0h24v24H0z"/></clipPath></defs></svg><svg fill="none" viewBox="0 0 24 24" id="yandex-color" xmlns="http://www.w3.org/2000/svg"><g clip-path="url(#bnclip0_300_3)"><path d="M12 24c6.628 0 12-5.372 12-12S18.628 0 12 0 0 5.372 0 12s5.372 12 12 12z" fill="#FC3F1D"/><path d="M15.83 18.72h-2.38V6.94h-1.061c-1.94 0-2.96.98-2.96 2.43 0 1.65.71 2.409 2.16 3.39l1.2.8-3.45 5.16h-2.57l3.1-4.606C8.087 12.845 7.09 11.595 7.09 9.51c0-2.63 1.82-4.41 5.29-4.41h3.45v13.62z" fill="#fff"/></g><defs><clipPath id="bnclip0_300_3"><path fill="#fff" d="M0 0h24v24H0z"/></clipPath></defs></svg><svg fill="none" viewBox="0 0 28 28" id="youtube-color" xmlns="http://www.w3.org/2000/svg"><g clip-path="url(#boclip0_294_195)"><path d="M27.442 7.217a3.52 3.52 0 00-2.476-2.492c-2.189-.588-10.939-.588-10.939-.588s-8.75 0-10.939.588A3.52 3.52 0 00.613 7.217C.027 9.415.027 14 .027 14s0 4.585.586 6.784a3.52 3.52 0 002.475 2.491c2.19.589 10.94.589 10.94.589s8.75 0 10.938-.589a3.52 3.52 0 002.476-2.491c.585-2.199.585-6.784.585-6.784s0-4.585-.585-6.783z" fill="#FF0302"/><path d="M11.164 18.164V9.837L18.482 14l-7.318 4.164z" fill="#FEFEFE"/></g><defs><clipPath id="boclip0_294_195"><path fill="#fff" d="M0 0h28v28H0z"/></clipPath></defs></svg></svg>