<svg width="24" height="24" viewBox="0 0 24 24" xmlns="http://www.w3.org/2000/svg"><path fill-rule="evenodd" clip-rule="evenodd" d="M3.95169 3.95108C4.42032 3.48245 5.18012 3.48245 5.64875 3.95108L12.0002 10.3026L18.3517 3.95108C18.8203 3.48245 19.5801 3.48245 20.0487 3.95108C20.5174 4.41971 20.5174 5.17951 20.0487 5.64814L13.6973 11.9996L20.0487 18.3511C20.5174 18.8197 20.5174 19.5795 20.0487 20.0481C19.5801 20.5168 18.8203 20.5168 18.3517 20.0481L12.0002 13.6967L5.64875 20.0481C5.18012 20.5168 4.42032 20.5168 3.95169 20.0481C3.48306 19.5795 3.48306 18.8197 3.95169 18.3511L10.3032 11.9996L3.95169 5.64814C3.48306 5.17951 3.48306 4.41971 3.95169 3.95108Z"/></svg>