<svg width="28" height="28" viewBox="0 0 28 28" xmlns="http://www.w3.org/2000/svg"><path fill-rule="evenodd" clip-rule="evenodd" d="M13.9472 2.625H14.0528C16.1954 2.62499 17.875 2.62498 19.2074 2.76935C20.5672 2.91667 21.669 3.22271 22.6097 3.90618C23.1792 4.31994 23.6801 4.82077 24.0938 5.39027C24.7773 6.33099 25.0833 7.43276 25.2306 8.79256C25.375 10.1251 25.375 11.8046 25.375 13.9473V14.007C25.375 15.097 25.375 16.0629 25.3573 16.9173C25.3053 19.4304 25.1087 21.2129 24.0938 22.6097C23.6801 23.1792 23.1792 23.6801 22.6097 24.0938C21.669 24.7773 20.5672 25.0833 19.2074 25.2306C17.8749 25.375 16.1954 25.375 14.0527 25.375H13.9473C11.8046 25.375 10.1251 25.375 8.79256 25.2306C7.43276 25.0833 6.33099 24.7773 5.39027 24.0938C4.84144 23.6951 4.35639 23.2155 3.95157 22.6715C3.93632 22.651 3.92119 22.6304 3.90618 22.6097C3.22271 21.669 2.91667 20.5672 2.76935 19.2074C2.62498 17.875 2.62499 16.1954 2.625 14.0528V13.9472C2.62499 11.8046 2.62498 10.125 2.76935 8.79255C2.91667 7.43276 3.22271 6.33099 3.90618 5.39027C4.31995 4.82077 4.82077 4.31995 5.39027 3.90618C6.33099 3.22271 7.43276 2.91667 8.79255 2.76935C10.125 2.62498 11.8046 2.62499 13.9472 2.625ZM8.98105 4.50917C7.77016 4.64036 7.01157 4.89136 6.4189 5.32196C5.99796 5.62779 5.62779 5.99796 5.32196 6.4189C4.89136 7.01157 4.64036 7.77016 4.50917 8.98105C4.3762 10.2083 4.375 11.7932 4.375 14C4.375 16.2068 4.3762 17.7917 4.50917 19.0189C4.55609 19.452 4.61834 19.8273 4.69865 20.1577C5.01991 19.5401 5.28618 19.0855 5.60167 18.6972C6.84408 17.1679 8.69597 16.2622 10.6659 16.2204C11.403 16.2047 12.1883 16.3618 13.4706 16.6184C13.5093 16.6262 13.5486 16.6341 13.5883 16.642L13.6163 16.6476C13.8171 16.3151 13.9943 16.0484 14.1793 15.8207C16.4093 13.0768 20.386 12.5348 23.2689 14.5817C23.3841 14.6635 23.5011 14.7555 23.6246 14.8602C23.625 14.584 23.625 14.2975 23.625 14C23.625 11.7932 23.6238 10.2083 23.4908 8.98105C23.3596 7.77016 23.1086 7.01157 22.678 6.4189C22.3722 5.99796 22.002 5.62779 21.5811 5.32196C20.9884 4.89136 20.2298 4.64036 19.0189 4.50917C17.7917 4.3762 16.2068 4.375 14 4.375C11.7932 4.375 10.2083 4.3762 8.98105 4.50917ZM23.5985 17.2529C22.8788 16.5349 22.5446 16.2136 22.2558 16.0086C20.125 14.4957 17.1856 14.8963 15.5374 16.9244C15.355 17.1488 15.1535 17.4717 14.7808 18.1236C14.6632 18.3292 14.5315 18.5622 14.3799 18.8305L11.6747 23.6166C12.3648 23.6248 13.1346 23.625 14 23.625C16.2068 23.625 17.7917 23.6238 19.0189 23.4908C20.2298 23.3596 20.9884 23.1086 21.5811 22.678C22.002 22.3722 22.3722 22.002 22.678 21.5811C23.3006 20.7242 23.5318 19.5521 23.5985 17.2529ZM9.70448 23.5522C9.71472 23.5299 9.72597 23.5079 9.73826 23.4861L12.6982 18.2492C11.6484 18.0422 11.152 17.9604 10.703 17.97C9.24701 18.0009 7.87822 18.6703 6.95992 19.8006C6.63153 20.2048 6.36096 20.7346 5.70555 22.0455C5.9223 22.2782 6.16087 22.4906 6.4189 22.678C7.01157 23.1086 7.77016 23.3596 8.98105 23.4908C9.20926 23.5156 9.44984 23.5357 9.70448 23.5522ZM9.625 10.5C9.625 8.72809 11.0614 7.29167 12.8333 7.29167C14.6052 7.29167 16.0417 8.72809 16.0417 10.5C16.0417 12.2719 14.6052 13.7083 12.8333 13.7083C11.0614 13.7083 9.625 12.2719 9.625 10.5ZM12.8333 9.04167C12.0279 9.04167 11.375 9.69458 11.375 10.5C11.375 11.3054 12.0279 11.9583 12.8333 11.9583C13.6387 11.9583 14.2917 11.3054 14.2917 10.5C14.2917 9.69458 13.6387 9.04167 12.8333 9.04167Z"/></svg>