<svg width="24" height="24" viewBox="0 0 24 24" xmlns="http://www.w3.org/2000/svg"><path d="M18.5171 18.5485C16.7716 20.2924 14.4533 21.2531 11.9863 21.2531C6.89789 21.2531 2.75733 17.1149 2.7525 12.0281L4.63556 13.9136C4.76038 14.0376 4.96121 14.0376 5.08589 13.9136C5.20909 13.7888 5.20909 13.5873 5.08589 13.4633L2.58948 10.9658L0.0936102 13.4633C-0.0312034 13.5873 -0.0312034 13.7889 0.0936102 13.9136C0.155146 13.976 0.236791 14.0064 0.317631 14.0064C0.40008 14.0064 0.481591 13.9752 0.542456 13.9136L2.1279 12.3274C2.29347 17.6271 6.64438 21.8899 11.9832 21.8899C14.6207 21.8899 17.0996 20.8628 18.9651 18.9981C19.0891 18.8741 19.0891 18.6725 18.9651 18.5486C18.8443 18.4237 18.6419 18.4237 18.5171 18.5485Z"/><path d="M23.9064 10.0866C23.7832 9.96261 23.5815 9.96261 23.4568 10.0866L21.8729 11.6721C21.7057 6.37238 17.3548 2.11035 12.0168 2.11035C9.37771 2.11035 6.89954 3.13742 5.03404 5.00211C4.90923 5.12612 4.90923 5.32775 5.03404 5.45163C5.15724 5.57644 5.35968 5.57644 5.48356 5.45163C7.22827 3.70772 9.5473 2.74702 12.0143 2.74702C17.1019 2.74702 21.2433 6.88437 21.2498 11.972L19.3651 10.0865C19.2411 9.96248 19.0394 9.96248 18.9148 10.0865C18.7916 10.2113 18.7916 10.4128 18.9148 10.5368L21.4114 13.0335L23.9073 10.5368C24.0312 10.4129 24.0312 10.2113 23.9064 10.0866Z"/></svg>