<svg width="28" height="28" viewBox="0 0 28 28" xmlns="http://www.w3.org/2000/svg"><path fill-rule="evenodd" clip-rule="evenodd" d="M10.7842 5.72453C11.7071 2.48115 16.293 2.48115 17.2159 5.72453C17.5021 6.73032 18.5308 7.32402 19.5383 7.07073C22.8091 6.24844 25.0887 10.2351 22.7552 12.6526C22.0304 13.4034 22.0304 14.5964 22.7552 15.3473C25.0887 17.7648 22.8091 21.7514 19.5383 20.9291C18.5308 20.6758 17.5021 21.2695 17.2159 22.2753C16.293 25.5187 11.7071 25.5187 10.7842 22.2753C10.498 21.2695 9.46925 20.6758 8.46176 20.9291C5.19094 21.7514 2.91133 17.7648 5.24485 15.3473C5.96963 14.5964 5.96963 13.4034 5.24485 12.6526C2.91133 10.2351 5.19093 6.24844 8.46175 7.07073C9.46925 7.32402 10.498 6.73032 10.7842 5.72453ZM15.8541 6.11203C15.3213 4.23979 12.6787 4.23979 12.146 6.11203C11.6513 7.85041 9.86902 8.88444 8.11655 8.44387C6.24231 7.97268 4.90765 10.2646 6.26355 11.6692C7.51788 12.9687 7.51788 15.0311 6.26355 16.3306C4.90765 17.7353 6.24231 20.0272 8.11655 19.556C9.86902 19.1154 11.6513 20.1494 12.146 21.8878C12.6787 23.7601 15.3213 23.7601 15.8541 21.8878C16.3487 20.1494 18.131 19.1154 19.8835 19.556C21.7577 20.0272 23.0924 17.7353 21.7365 16.3306C20.4821 15.0311 20.4821 12.9687 21.7365 11.6692C23.0924 10.2646 21.7577 7.97268 19.8835 8.44387C18.131 8.88444 16.3487 7.85041 15.8541 6.11203ZM10.4687 13.9999C10.4687 12.047 12.0478 10.4603 14 10.4603C15.9523 10.4603 17.5313 12.047 17.5313 13.9999C17.5313 15.9529 15.9523 17.5396 14 17.5396C12.0478 17.5396 10.4687 15.9529 10.4687 13.9999ZM14 11.8761C12.8336 11.8761 11.8845 12.825 11.8845 13.9999C11.8845 15.1748 12.8336 16.1237 14 16.1237C15.1664 16.1237 16.1155 15.1748 16.1155 13.9999C16.1155 12.825 15.1664 11.8761 14 11.8761Z"/></svg>