<svg width="28" height="28" viewBox="0 0 28 28" xmlns="http://www.w3.org/2000/svg"><path fill-rule="evenodd" clip-rule="evenodd" d="M13.9472 1.45801H14.0528C16.1954 1.458 17.875 1.45799 19.2074 1.60236C20.5672 1.74968 21.669 2.05572 22.6097 2.73919C23.1792 3.15295 23.6801 3.65378 24.0938 4.22328C24.7773 5.16399 25.0833 6.26577 25.2306 7.62556C25.375 8.95807 25.375 10.6376 25.375 12.7803V15.2191C25.375 17.3617 25.375 19.0413 25.2306 20.3738C25.0833 21.7336 24.7773 22.8354 24.0938 23.7761C23.6801 24.3456 23.1792 24.8464 22.6097 25.2602C21.669 25.9436 20.5672 26.2497 19.2074 26.397C17.8749 26.5414 16.1954 26.5414 14.0527 26.5413H13.9473C11.8046 26.5414 10.1251 26.5414 8.79256 26.397C7.43276 26.2497 6.33099 25.9436 5.39027 25.2602C4.82077 24.8464 4.31994 24.3456 3.90618 23.7761C3.22271 22.8354 2.91667 21.7336 2.76935 20.3738C2.62498 19.0413 2.62499 17.3618 2.625 15.2191V12.7802C2.62499 10.6376 2.62498 8.95806 2.76935 7.62556C2.91667 6.26577 3.22271 5.16399 3.90618 4.22328C4.31995 3.65378 4.82077 3.15295 5.39027 2.73919C6.33099 2.05572 7.43276 1.74968 8.79255 1.60236C10.125 1.45799 11.8046 1.458 13.9472 1.45801ZM8.98105 3.34218C7.77016 3.47337 7.01157 3.72436 6.4189 4.15497C5.99796 4.46079 5.62779 4.83097 5.32196 5.25191C4.89136 5.84458 4.64036 6.60316 4.50917 7.81406C4.3762 9.04133 4.375 10.6262 4.375 12.833V15.1663C4.375 17.3732 4.3762 18.958 4.50917 20.1853C4.64036 21.3962 4.89136 22.1548 5.32196 22.7474C5.62779 23.1684 5.99796 23.5386 6.4189 23.8444C7.01157 24.275 7.77016 24.526 8.98105 24.6572C10.2083 24.7901 11.7932 24.7913 14 24.7913C16.2068 24.7913 17.7917 24.7901 19.0189 24.6572C20.2298 24.526 20.9884 24.275 21.5811 23.8444C22.002 23.5386 22.3722 23.1684 22.678 22.7474C23.1086 22.1548 23.3596 21.3962 23.4908 20.1853C23.6238 18.958 23.625 17.3732 23.625 15.1663V12.833C23.625 10.6262 23.6238 9.04133 23.4908 7.81406C23.3596 6.60316 23.1086 5.84458 22.678 5.25191C22.3722 4.83097 22.002 4.46079 21.5811 4.15497C20.9884 3.72436 20.2298 3.47337 19.0189 3.34218C17.7917 3.20921 16.2068 3.20801 14 3.20801C11.7932 3.20801 10.2083 3.20921 8.98105 3.34218ZM8.45833 9.33301C8.45833 8.84976 8.85008 8.45801 9.33333 8.45801H12.8333C13.3166 8.45801 13.7083 8.84976 13.7083 9.33301C13.7083 9.81626 13.3166 10.208 12.8333 10.208H9.33333C8.85008 10.208 8.45833 9.81626 8.45833 9.33301ZM8.45833 13.9997C8.45833 13.5164 8.85008 13.1247 9.33333 13.1247H18.6667C19.1499 13.1247 19.5417 13.5164 19.5417 13.9997C19.5417 14.4829 19.1499 14.8747 18.6667 14.8747H9.33333C8.85008 14.8747 8.45833 14.4829 8.45833 13.9997ZM8.45833 18.6663C8.45833 18.1831 8.85008 17.7913 9.33333 17.7913H18.6667C19.1499 17.7913 19.5417 18.1831 19.5417 18.6663C19.5417 19.1496 19.1499 19.5413 18.6667 19.5413H9.33333C8.85008 19.5413 8.45833 19.1496 8.45833 18.6663Z"/></svg>