<svg width="28" height="28" viewBox="0 0 28 28" xmlns="http://www.w3.org/2000/svg"><path fill-rule="evenodd" clip-rule="evenodd" d="M10.9664 5.25H11.0336C12.4053 5.25 13.4807 5.24999 14.3451 5.32061C15.2252 5.39252 15.9523 5.54138 16.6104 5.87671C17.6924 6.42798 18.572 7.30762 19.1233 8.38955C19.1733 8.48774 19.2192 8.58748 19.2613 8.68909C20.428 8.17938 21.3834 7.76561 22.159 7.55522C22.9839 7.33144 23.7874 7.28534 24.5057 7.75537C25.2241 8.2254 25.5036 8.98019 25.6288 9.82567C25.7501 10.6444 25.75 11.7243 25.75 13.0498V14.9502C25.75 16.2757 25.7501 17.3556 25.6288 18.1743C25.5036 19.0198 25.2241 19.7746 24.5057 20.2446C23.7874 20.7147 22.9839 20.6686 22.159 20.4448C21.3834 20.2344 20.428 19.8206 19.2613 19.3109C19.2192 19.4125 19.1733 19.5123 19.1233 19.6104C18.572 20.6924 17.6924 21.572 16.6104 22.1233C15.9523 22.4586 15.2252 22.6075 14.3451 22.6794C13.4807 22.75 12.4053 22.75 11.0336 22.75H10.9664C9.59471 22.75 8.51928 22.75 7.65494 22.6794C6.77479 22.6075 6.04769 22.4586 5.38955 22.1233C4.30762 21.572 3.42798 20.6924 2.87671 19.6104C2.54138 18.9523 2.39252 18.2252 2.32061 17.3451C2.24999 16.4807 2.25 15.4053 2.25 14.0336V13.9664C2.25 12.5947 2.24999 11.5193 2.32061 10.6549C2.39252 9.77479 2.54138 9.04769 2.87671 8.38955C3.42798 7.30762 4.30762 6.42798 5.38955 5.87671C6.04769 5.54138 6.77479 5.39252 7.65494 5.32061C8.51929 5.24999 9.59472 5.25 10.9664 5.25ZM19.6285 17.8344L19.6987 17.8651C20.9854 18.4273 21.873 18.813 22.5517 18.9971C23.217 19.1776 23.4978 19.1116 23.6844 18.9895C23.871 18.8674 24.044 18.6364 24.145 17.9546C24.248 17.2589 24.25 16.2911 24.25 14.887V13.113C24.25 11.7089 24.248 10.7411 24.145 10.0454C24.044 9.36358 23.871 9.13264 23.6844 9.01054C23.4978 8.88845 23.217 8.82242 22.5517 9.0029C21.873 9.18703 20.9854 9.57271 19.6987 10.1349L19.6285 10.1656C19.7501 11.1198 19.7501 12.3165 19.75 13.8942V14.1058C19.7501 15.6834 19.7501 16.8802 19.6285 17.8344ZM7.77708 6.81563C6.9897 6.87996 6.48197 7.00359 6.07054 7.21322C5.27085 7.62068 4.62068 8.27085 4.21322 9.07054C4.00359 9.48197 3.87996 9.9897 3.81563 10.7771C3.75058 11.5732 3.75 12.5875 3.75 14C3.75 15.4125 3.75058 16.4268 3.81563 17.2229C3.87996 18.0103 4.00359 18.518 4.21322 18.9295C4.62068 19.7291 5.27085 20.3793 6.07054 20.7868C6.48197 20.9964 6.9897 21.12 7.77708 21.1844C8.57322 21.2494 9.58749 21.25 11 21.25C12.4125 21.25 13.4268 21.2494 14.2229 21.1844C15.0103 21.12 15.518 20.9964 15.9295 20.7868C16.7291 20.3793 17.3793 19.7291 17.7868 18.9295C17.9027 18.702 17.9919 18.4456 18.0595 18.1308C18.2458 17.2625 18.25 16.067 18.25 14C18.25 11.9324 18.2458 10.7369 18.0593 9.86848C17.9918 9.55403 17.9026 9.2978 17.7868 9.07054C17.3793 8.27085 16.7291 7.62068 15.9295 7.21322C15.518 7.00359 15.0103 6.87996 14.2229 6.81563C13.4268 6.75058 12.4125 6.75 11 6.75C9.58749 6.75 8.57322 6.75058 7.77708 6.81563ZM12.7807 10.6199L12.8468 10.6605C13.5445 11.0899 14.1134 11.44 14.5349 11.7574C14.9627 12.0796 15.3337 12.4355 15.5328 12.9123C15.8224 13.6056 15.8224 14.3944 15.5328 15.0877C15.3337 15.5645 14.9627 15.9204 14.5349 16.2426C14.1134 16.56 13.5445 16.9101 12.8467 17.3395L12.7808 17.3801C12.0837 17.8091 11.5146 18.1594 11.0453 18.3901C10.5738 18.6219 10.0828 18.7967 9.56605 18.7388C8.81915 18.6551 8.15604 18.2392 7.73207 17.6172C7.44434 17.1951 7.34363 16.6827 7.29674 16.1378C7.24998 15.5946 7.24999 14.8983 7.25 14.0359V13.9641C7.24999 13.1017 7.24998 12.4054 7.29674 11.8622C7.34363 11.3173 7.44434 10.8049 7.73207 10.3828C8.15604 9.76076 8.81915 9.34486 9.56605 9.26118C10.0828 9.20329 10.5738 9.37812 11.0453 9.60993C11.5146 9.84061 12.0837 10.1909 12.7807 10.6199ZM10.3836 10.9561C9.9809 10.7581 9.81155 10.7431 9.73306 10.7519C9.44154 10.7845 9.16131 10.9492 8.97155 11.2276C8.90747 11.3216 8.83227 11.5138 8.79121 11.9908C8.75066 12.462 8.75 13.0932 8.75 14C8.75 14.9068 8.75066 15.538 8.79121 16.0092C8.83227 16.4862 8.90747 16.6784 8.97155 16.7724C9.16131 17.0508 9.44154 17.2155 9.73306 17.2481C9.81155 17.2569 9.9809 17.2419 10.3836 17.0439C10.7811 16.8485 11.2894 16.5366 12.028 16.0821C12.7662 15.6278 13.2742 15.3142 13.6325 15.0444C13.9909 14.7745 14.1044 14.6157 14.1487 14.5096C14.2838 14.1862 14.2838 13.8138 14.1487 13.4904C14.1044 13.3843 13.9909 13.2255 13.6325 12.9556C13.2742 12.6858 12.7662 12.3722 12.028 11.9179C11.2894 11.4634 10.7811 11.1515 10.3836 10.9561Z"/></svg>