<svg width="28" height="28" viewBox="0 0 28 28" fill="none" xmlns="http://www.w3.org/2000/svg">
<g clip-path="url(#clip0_294_195)">
<path d="M27.4419 7.21672C27.2836 6.62104 26.9716 6.07738 26.5372 5.64015C26.1027 5.20292 25.5611 4.88747 24.9664 4.72536C22.7773 4.13672 14.0273 4.13672 14.0273 4.13672C14.0273 4.13672 5.27734 4.13672 3.08825 4.72536C2.4936 4.88747 1.95195 5.20292 1.51751 5.64015C1.08308 6.07738 0.7711 6.62104 0.612798 7.21672C0.0273438 9.41536 0.0273438 14.0004 0.0273438 14.0004C0.0273438 14.0004 0.0273438 18.5854 0.612798 20.784C0.7711 21.3797 1.08308 21.9233 1.51751 22.3606C1.95195 22.7978 2.4936 23.1132 3.08825 23.2754C5.27734 23.864 14.0273 23.864 14.0273 23.864C14.0273 23.864 22.7773 23.864 24.9664 23.2754C25.5611 23.1132 26.1027 22.7978 26.5372 22.3606C26.9716 21.9233 27.2836 21.3797 27.4419 20.784C28.0273 18.5854 28.0273 14.0004 28.0273 14.0004C28.0273 14.0004 28.0273 9.41536 27.4419 7.21672Z" fill="#FF0302"/>
<path d="M11.1642 18.1637V9.83691L18.4824 14.0003L11.1642 18.1637Z" fill="#FEFEFE"/>
</g>
<defs>
<clipPath id="clip0_294_195">
<rect width="28" height="28" fill="white"/>
</clipPath>
</defs>
</svg>
