<svg width="28" height="28" viewBox="0 0 28 28" xmlns="http://www.w3.org/2000/svg"><path fill-rule="evenodd" clip-rule="evenodd" d="M16.9295 6.19239L21.8507 11.2124C22.2711 10.7767 22.5812 10.4383 22.8051 10.1389C23.1078 9.73427 23.1784 9.4961 23.1784 9.28925C23.1784 9.0824 23.1078 8.84422 22.8051 8.4396C22.4878 8.01538 21.9976 7.51287 21.2656 6.76614C20.5333 6.01919 20.041 5.51947 19.6257 5.19627C19.2287 4.88728 19.0029 4.82179 18.815 4.82179C18.6271 4.82179 18.4013 4.88728 18.0042 5.19627C17.7059 5.42846 17.3678 5.75176 16.9295 6.19239ZM20.7018 12.3875L15.7777 7.36457L10.5959 12.6503C10.0299 13.2278 9.88827 13.3872 9.80268 13.5689C9.71644 13.7519 9.68256 13.9671 9.59418 14.7785C9.45464 16.0596 9.36143 16.9333 9.382 17.5828C9.40193 18.2124 9.52684 18.4674 9.68357 18.6272C9.83702 18.7838 10.0778 18.908 10.6861 18.928C11.3186 18.9489 12.171 18.8544 13.4284 18.7119C14.2262 18.6214 14.4287 18.5874 14.6012 18.5029C14.7751 18.4176 14.9297 18.2754 15.4972 17.6966L20.7018 12.3875ZM16.9951 3.89962C17.5364 3.47836 18.1133 3.17871 18.815 3.17871C19.5167 3.17871 20.0936 3.47836 20.6349 3.89962C21.1479 4.29889 21.7172 4.87962 22.3989 5.57508L22.4784 5.65622C23.1606 6.35207 23.7298 6.93263 24.1209 7.45547C24.5341 8.00797 24.8215 8.58865 24.8215 9.28925C24.8215 9.98984 24.5341 10.5705 24.1209 11.123C23.7298 11.6459 23.1606 12.2264 22.4784 12.9223L16.6705 18.8468C16.6439 18.8739 16.6176 18.9007 16.5917 18.9273C16.1418 19.3869 15.7834 19.7532 15.3245 19.9782C14.8642 20.2038 14.3573 20.2608 13.7243 20.332C13.6878 20.3361 13.6508 20.3403 13.6134 20.3445L13.5488 20.3518C12.3725 20.4852 11.3994 20.5955 10.632 20.5702C9.82651 20.5437 9.08669 20.3655 8.51025 19.7775C7.93709 19.1928 7.76547 18.4474 7.73974 17.6348C7.71507 16.8556 7.8229 15.866 7.95394 14.6632L7.96076 14.6006C7.96483 14.5633 7.96882 14.5263 7.97277 14.4899C8.04285 13.8417 8.09796 13.332 8.31632 12.8686C8.53529 12.4038 8.89289 12.0396 9.34533 11.5789C9.37079 11.5529 9.39656 11.5267 9.42262 11.5001L15.2311 5.57505C15.9128 4.8796 16.4821 4.29888 16.9951 3.89962ZM11.3382 5.28114C11.3438 5.73483 10.9805 6.10711 10.5268 6.11266C7.84097 6.1455 6.59172 6.33018 5.70234 6.98932C5.3162 7.2755 4.97597 7.62237 4.6945 8.01757C4.29765 8.57474 4.066 9.28884 3.94504 10.4277C3.82254 11.5811 3.82146 13.0701 3.82146 15.1418C3.82146 17.2134 3.82254 18.7025 3.94504 19.8558C4.066 20.9947 4.29765 21.7088 4.6945 22.266C4.97598 22.6612 5.3162 23.008 5.70234 23.2942C6.244 23.6957 6.93722 23.9301 8.04834 24.0529C9.17581 24.1775 10.6325 24.1787 12.6644 24.1787C14.6964 24.1787 16.1531 24.1775 17.2805 24.0529C18.3917 23.9301 19.0849 23.6957 19.6265 23.2942C20.0127 23.008 20.3529 22.6612 20.6344 22.266C21.2867 21.3502 21.4675 20.0626 21.4997 17.3229C21.5051 16.8692 21.8772 16.5057 22.3309 16.5111C22.7846 16.5164 23.148 16.8885 23.1427 17.3422C23.1115 19.9998 22.969 21.8204 21.9727 23.2192C21.5918 23.7539 21.1304 24.2248 20.6049 24.6143C19.7352 25.2588 18.7161 25.5474 17.461 25.6861C16.2328 25.8218 14.6854 25.8218 12.7149 25.8218H12.614C10.6434 25.8218 9.09607 25.8218 7.86785 25.6861C6.61283 25.5474 5.59371 25.2588 4.72401 24.6143C4.19851 24.2248 3.73704 23.7539 3.35618 23.2192C2.7276 22.3367 2.44654 21.3041 2.31115 20.0293C2.17836 18.7791 2.17837 17.2029 2.17838 15.1904V15.0931C2.17837 13.0806 2.17836 11.5044 2.31115 10.2542C2.44654 8.97949 2.7276 7.94688 3.35618 7.06436C3.73704 6.52963 4.19851 6.05871 4.724 5.66926C6.1037 4.64673 7.90143 4.50156 10.5067 4.4697C10.9604 4.46416 11.3327 4.82745 11.3382 5.28114Z"/></svg>