<svg width="28" height="28" viewBox="0 0 28 28" xmlns="http://www.w3.org/2000/svg"><path fill-rule="evenodd" clip-rule="evenodd" d="M18.78 3.96144C17.6111 3.8348 16.1018 3.83366 14 3.83366C13.0574 3.83366 12.2314 3.83371 11.498 3.84568C11.4931 4.37307 11.4767 4.76132 11.4214 5.11088C10.9884 7.84464 8.84433 9.98868 6.11057 10.4217C5.76101 10.477 5.37276 10.4934 4.84537 10.4983C4.83341 11.2317 4.83335 12.0577 4.83335 13.0003V15.2225C4.83335 17.3243 4.8345 18.8337 4.96113 20.0025C5.08608 21.1557 5.32512 21.8782 5.73522 22.4426C6.02648 22.8435 6.37903 23.1961 6.77992 23.4874C7.34437 23.8974 8.06684 24.1365 9.22007 24.2614C10.3889 24.3881 11.8983 24.3892 14 24.3892C16.1018 24.3892 17.6111 24.3881 18.78 24.2614C19.9332 24.1365 20.6557 23.8974 21.2201 23.4874C21.621 23.1961 21.9736 22.8435 22.2648 22.4426C22.6749 21.8782 22.914 21.1557 23.0389 20.0025C23.1655 18.8337 23.1667 17.3243 23.1667 15.2225V13.0003C23.1667 10.8986 23.1655 9.38921 23.0389 8.22038C22.914 7.06714 22.6749 6.34468 22.2648 5.78023C21.9736 5.37934 21.621 5.02679 21.2201 4.73552C20.6557 4.32543 19.9332 4.08638 18.78 3.96144ZM4.90829 8.83056C5.35823 8.82537 5.62204 8.8116 5.84985 8.77552C7.87045 8.45549 9.45518 6.87076 9.77522 4.85016C9.8113 4.62234 9.82506 4.35853 9.83026 3.90859C8.31877 4.01278 7.44598 4.2516 6.77992 4.73552C6.37903 5.02679 6.02648 5.37934 5.73522 5.78023C5.2513 6.44629 5.01248 7.31908 4.90829 8.83056ZM18.9595 2.30447C20.2545 2.44478 21.3038 2.73624 22.1998 3.38716C22.7421 3.78123 23.2191 4.2582 23.6132 4.80059C24.2641 5.6965 24.5556 6.74581 24.6959 8.04085C24.8334 9.30989 24.8334 10.9094 24.8334 12.95V15.2729C24.8334 17.3134 24.8334 18.913 24.6959 20.182C24.5556 21.4771 24.2641 22.5264 23.6132 23.4223C23.2191 23.9647 22.7421 24.4416 22.1998 24.8357C21.3038 25.4866 20.2545 25.7781 18.9595 25.9184C17.6905 26.0559 16.0909 26.0559 14.0503 26.0559H13.9497C11.9091 26.0559 10.3096 26.0559 9.04055 25.9184C7.74551 25.7781 6.6962 25.4866 5.80028 24.8357C5.2579 24.4416 4.78092 23.9647 4.38686 23.4223C3.73593 22.5264 3.44447 21.4771 3.30416 20.182C3.16667 18.913 3.16668 17.3134 3.16669 15.2728L3.16669 12.9881C3.16669 11.6991 3.16669 10.5909 3.19932 9.63846C3.27064 7.55685 3.4959 6.02688 4.38686 4.80059C4.78092 4.2582 5.2579 3.78123 5.80028 3.38716C7.02657 2.49621 8.55655 2.27094 10.6382 2.19962C11.5906 2.16699 12.6988 2.16699 13.9877 2.16699L14.0503 2.16699C16.0909 2.16698 17.6905 2.16698 18.9595 2.30447ZM14 11.0559C14.4603 11.0559 14.8334 11.429 14.8334 11.8892V14.3892H17.3334C17.7936 14.3892 18.1667 14.7623 18.1667 15.2225C18.1667 15.6828 17.7936 16.0559 17.3334 16.0559H14.8334V18.5559C14.8334 19.0161 14.4603 19.3892 14 19.3892C13.5398 19.3892 13.1667 19.0161 13.1667 18.5559V16.0559H10.6667C10.2065 16.0559 9.83335 15.6828 9.83335 15.2225C9.83335 14.7623 10.2065 14.3892 10.6667 14.3892H13.1667V11.8892C13.1667 11.429 13.5398 11.0559 14 11.0559Z"/></svg>