<svg width="24" height="24" viewBox="0 0 24 24" xmlns="http://www.w3.org/2000/svg"><path fill-rule="evenodd" clip-rule="evenodd" d="M21.0237 2.49201L21.0228 2.49446ZM20.7289 3.2711L14.2673 20.3437L11.4677 13.4447C11.3931 13.2344 11.2725 13.0433 11.1146 12.8854C10.9566 12.7274 10.7655 12.6068 10.5551 12.5322L3.65309 9.73386L20.7289 3.2711ZM20.9736 1.57466C21.1761 1.49752 21.3966 1.48051 21.6086 1.5257C21.8211 1.571 22.0159 1.67686 22.1695 1.83048C22.3231 1.9841 22.429 2.17892 22.4743 2.39141C22.5195 2.60346 22.5024 2.82404 22.4252 3.02662C22.4251 3.02704 22.4249 3.02745 22.4248 3.02787L15.3252 21.7863C15.2405 22 15.0923 22.1825 14.9008 22.3095C14.7093 22.4364 14.4835 22.5017 14.2537 22.4965C14.024 22.4913 13.8014 22.4158 13.6158 22.2803C13.4371 22.1498 13.301 21.9696 13.2243 21.7624L10.0704 13.9906C10.0644 13.9759 10.059 13.961 10.0539 13.946C10.039 13.941 10.0242 13.9356 10.0096 13.9297L2.24046 10.7797C2.03245 10.7042 1.8511 10.5689 1.71938 10.3906C1.58162 10.204 1.50488 9.97946 1.49965 9.74764C1.49441 9.51581 1.56094 9.28802 1.69014 9.09546C1.81933 8.90289 2.00488 8.75496 2.22138 8.6719L2.22455 8.67068L20.9721 1.57521C20.9726 1.57503 20.9731 1.57484 20.9736 1.57466Z"/><path fill-rule="evenodd" clip-rule="evenodd" d="M22.0928 1.90717C22.3857 2.20006 22.3857 2.67494 22.0928 2.96783L11.171 13.8897C10.8781 14.1826 10.4032 14.1826 10.1103 13.8897C9.8174 13.5968 9.8174 13.1219 10.1103 12.829L21.0322 1.90717C21.3251 1.61428 21.7999 1.61428 22.0928 1.90717Z"/></svg>