<svg width="48" height="48" viewBox="0 0 48 48" fill="none" xmlns="http://www.w3.org/2000/svg">
<path d="M23.6038 26.6725C25.7112 26.6725 27.4196 24.9641 27.4196 22.8568C27.4196 20.7493 25.7112 19.041 23.6038 19.041C21.4964 19.041 19.7881 20.7493 19.7881 22.8568C19.7881 24.9641 21.4964 26.6725 23.6038 26.6725Z" fill="#E6E6E6"/>
<path fill-rule="evenodd" clip-rule="evenodd" d="M23.6053 7.90774C22.4311 7.90774 20.8434 8.98096 19.4471 11.9377L19.4471 11.9377C18.1129 14.7631 17.2402 18.7886 17.2402 23.3288C17.2402 27.8691 18.1129 31.8946 19.4471 34.72L18.6662 35.0888L19.4471 34.72C20.8434 37.6767 22.4311 38.75 23.6053 38.75C24.7794 38.75 26.3672 37.6768 27.7634 34.72L28.5491 35.091L27.7634 34.72C29.0976 31.8946 29.9703 27.8691 29.9703 23.3288C29.9703 18.7886 29.0976 14.7631 27.7634 11.9377L27.7634 11.9377C26.3672 8.98095 24.7794 7.90774 23.6053 7.90774ZM17.8757 11.1957C19.3434 8.08748 21.3697 6.16992 23.6053 6.16992C25.8409 6.16992 27.8671 8.08749 29.3348 11.1957L28.5491 11.5667L29.3348 11.1957C30.8011 14.3008 31.7081 18.5905 31.7081 23.3288C31.7081 28.0672 30.8011 32.3569 29.3348 35.462C27.8671 38.5702 25.8409 40.4878 23.6053 40.4878C21.3697 40.4878 19.3434 38.5702 17.8757 35.462C16.4094 32.3569 15.5024 28.0672 15.5024 23.3288C15.5024 18.5905 16.4094 14.3008 17.8757 11.1957ZM18.6614 11.5667L17.8757 11.1957L18.6614 11.5667Z" fill="#E6E6E6"/>
<path fill-rule="evenodd" clip-rule="evenodd" d="M15.8179 14.0208C12.5591 13.7516 10.8358 14.5901 10.2487 15.6069C9.66169 16.6237 9.79728 18.5354 11.6597 21.2229C13.4395 23.7911 16.4893 26.5596 20.4213 28.8297C24.3533 31.0999 28.2758 32.3569 31.3898 32.6141C34.6485 32.8833 36.3719 32.0449 36.959 31.028C37.546 30.0112 37.4104 28.0995 35.548 25.412C33.7682 22.8438 30.7184 20.0753 26.7864 17.8052C22.8543 15.535 18.9319 14.278 15.8179 14.0209L15.8179 14.0208ZM8.74373 14.738C9.86152 12.8019 12.5354 12.0059 15.961 12.2889C19.3833 12.5716 23.5517 13.931 27.6553 16.3002L27.2208 17.0527L27.6553 16.3002C31.7588 18.6694 35.0203 21.5996 36.9763 24.4221L36.2621 24.917L36.9763 24.4221C38.9341 27.2473 39.5818 29.9608 38.464 31.8969L38.464 31.8969C37.3461 33.8331 34.6724 34.6291 31.2467 34.3461C27.8244 34.0633 23.6559 32.7039 19.5524 30.3347C15.4489 27.9655 12.1874 25.0353 10.2314 22.2128C8.27357 19.3877 7.62595 16.6741 8.74373 14.738Z" fill="#E6E6E6"/>
<path fill-rule="evenodd" clip-rule="evenodd" d="M36.958 15.6323C36.371 14.6155 34.6476 13.777 31.3889 14.0462L31.3889 14.0462C28.2749 14.3034 24.3525 15.5604 20.4205 17.8306C16.4885 20.1007 13.4386 22.8692 11.6588 25.4374C9.79634 28.1249 9.66075 30.0366 10.2479 31.0535L10.2479 31.0535C10.8349 32.0703 12.5583 32.9087 15.817 32.6395C18.931 32.3823 22.8535 31.1253 26.7854 28.8552L27.2199 29.6077L26.7854 28.8552C30.7174 26.585 33.7673 23.8165 35.547 21.2483L35.547 21.2483C37.4095 18.5608 37.5451 16.6491 36.958 15.6323ZM31.2459 12.3143C34.6714 12.0313 37.3452 12.8273 38.463 14.7634C39.5808 16.6995 38.9333 19.4131 36.9754 22.2382C35.0194 25.0607 31.7578 27.991 27.6544 30.3602L27.2533 29.6656L27.6543 30.3602C23.5509 32.7293 19.3823 34.0887 15.9601 34.3714C12.5345 34.6544 9.86066 33.8585 8.74288 31.9224C7.62501 29.9862 8.27263 27.2727 10.2304 24.4475L10.2304 24.4475C12.1864 21.625 15.4481 18.6948 19.5515 16.3256C23.655 13.9564 27.8236 12.597 31.2459 12.3143Z" fill="#E6E6E6"/>
<path d="M29.3228 14.7433C31.1655 14.7433 32.6593 13.2495 32.6593 11.4068C32.6593 9.56412 31.1655 8.07031 29.3228 8.07031C27.4801 8.07031 25.9863 9.56412 25.9863 11.4068C25.9863 13.2495 27.4801 14.7433 29.3228 14.7433Z" fill="#E6E6E6"/>
<path fill-rule="evenodd" clip-rule="evenodd" d="M25.0331 11.4069C25.0331 9.03779 26.9536 7.11719 29.3228 7.11719C31.692 7.11719 33.6126 9.03779 33.6126 11.4069C33.6126 13.7761 31.692 15.6967 29.3228 15.6967C26.9536 15.6967 25.0331 13.7761 25.0331 11.4069ZM29.3228 9.02374C28.0066 9.02374 26.9396 10.0907 26.9396 11.4069C26.9396 12.7231 28.0066 13.7902 29.3228 13.7902C30.639 13.7902 31.706 12.7231 31.706 11.4069C31.706 10.0907 30.639 9.02374 29.3228 9.02374Z" fill="#ABABAB"/>
<path d="M8.3513 31.9073C10.194 31.9073 11.6878 30.4135 11.6878 28.5709C11.6878 26.7282 10.194 25.2344 8.3513 25.2344C6.50862 25.2344 5.01483 26.7282 5.01483 28.5709C5.01483 30.4135 6.50862 31.9073 8.3513 31.9073Z" fill="#E6E6E6"/>
<path fill-rule="evenodd" clip-rule="evenodd" d="M4.06155 28.571C4.06155 26.2019 5.98213 24.2812 8.3513 24.2812C10.7205 24.2812 12.6411 26.2018 12.6411 28.571C12.6411 30.9402 10.7204 32.8607 8.3513 32.8607C5.98216 32.8607 4.06155 30.9402 4.06155 28.571ZM8.3513 26.1878C7.0351 26.1878 5.9681 27.2548 5.9681 28.571C5.9681 29.8872 7.03507 30.9541 8.3513 30.9541C9.66753 30.9541 10.7345 29.8872 10.7345 28.571C10.7345 27.2548 9.6675 26.1878 8.3513 26.1878Z" fill="#ABABAB"/>
<path d="M35.9959 37.632C37.8385 37.632 39.3323 36.1381 39.3323 34.2955C39.3323 32.4528 37.8385 30.959 35.9959 30.959C34.1532 30.959 32.6595 32.4528 32.6595 34.2955C32.6595 36.1381 34.1532 37.632 35.9959 37.632Z" fill="#E6E6E6"/>
<path fill-rule="evenodd" clip-rule="evenodd" d="M31.7062 34.2956C31.7062 31.9265 33.6267 30.0059 35.9959 30.0059C38.365 30.0059 40.2856 31.9265 40.2856 34.2956C40.2856 36.6648 38.365 38.5854 35.9959 38.5854C33.6267 38.5854 31.7062 36.6647 31.7062 34.2956ZM35.9959 31.9124C34.6797 31.9124 33.6127 32.9794 33.6127 34.2956C33.6127 35.6118 34.6797 36.6788 35.9959 36.6788C37.3121 36.6788 38.3791 35.6118 38.3791 34.2956C38.3791 32.9794 37.3121 31.9124 35.9959 31.9124Z" fill="#ABABAB"/>
</svg>