<svg width="28" height="28" viewBox="0 0 28 28" xmlns="http://www.w3.org/2000/svg"><path fill-rule="evenodd" clip-rule="evenodd" d="M7.71844 3.0625H7.78157C8.33714 3.06249 8.80094 3.06248 9.18171 3.08846C9.57808 3.11551 9.95249 3.17381 10.3155 3.32416C11.1578 3.67305 11.827 4.34224 12.1758 5.18453C12.3262 5.54751 12.3845 5.92192 12.4115 6.3183C12.4375 6.69907 12.4375 7.16287 12.4375 7.71846V7.78155C12.4375 8.33713 12.4375 8.80094 12.4115 9.18171C12.3845 9.57808 12.3262 9.95249 12.1758 10.3155C11.827 11.1578 11.1578 11.827 10.3155 12.1758C9.95249 12.3262 9.57808 12.3845 9.18171 12.4115C8.80094 12.4375 8.33713 12.4375 7.78154 12.4375H7.71846C7.16287 12.4375 6.69907 12.4375 6.3183 12.4115C5.92192 12.3845 5.54751 12.3262 5.18453 12.1758C4.34224 11.827 3.67305 11.1578 3.32416 10.3155C3.17381 9.95249 3.11551 9.57808 3.08846 9.18171C3.06248 8.80094 3.06249 8.33714 3.0625 7.78157V7.71844C3.06249 7.16286 3.06248 6.69906 3.08846 6.31829C3.11551 5.92192 3.17381 5.54751 3.32416 5.18453C3.67305 4.34224 4.34224 3.67305 5.18453 3.32416C5.54751 3.17381 5.92192 3.11551 6.31829 3.08846C6.69906 3.06248 7.16286 3.06249 7.71844 3.0625ZM6.44593 4.95911C6.14502 4.97964 5.9985 5.01649 5.90206 5.05644C5.5192 5.21502 5.21502 5.5192 5.05644 5.90206C5.01649 5.9985 4.97964 6.14502 4.95911 6.44593C4.93801 6.75526 4.9375 7.15475 4.9375 7.75C4.9375 8.34525 4.93801 8.74474 4.95911 9.05407C4.97964 9.35498 5.01649 9.5015 5.05644 9.59794C5.21502 9.9808 5.5192 10.285 5.90206 10.4436C5.9985 10.4835 6.14502 10.5204 6.44593 10.5409C6.75526 10.562 7.15475 10.5625 7.75 10.5625C8.34525 10.5625 8.74474 10.562 9.05407 10.5409C9.35498 10.5204 9.5015 10.4835 9.59794 10.4436C9.9808 10.285 10.285 9.9808 10.4436 9.59794C10.4835 9.5015 10.5204 9.35498 10.5409 9.05407C10.562 8.74474 10.5625 8.34525 10.5625 7.75C10.5625 7.15475 10.562 6.75526 10.5409 6.44593C10.5204 6.14502 10.4835 5.9985 10.4436 5.90206C10.285 5.5192 9.9808 5.21502 9.59794 5.05644C9.5015 5.01649 9.35498 4.97964 9.05407 4.95911C8.74474 4.93801 8.34525 4.9375 7.75 4.9375C7.15475 4.9375 6.75526 4.93801 6.44593 4.95911ZM20.25 3.0625C20.7678 3.0625 21.1875 3.48223 21.1875 4V6.8125H24C24.5178 6.8125 24.9375 7.23223 24.9375 7.75C24.9375 8.26777 24.5178 8.6875 24 8.6875H21.1875V11.5C21.1875 12.0178 20.7678 12.4375 20.25 12.4375C19.7322 12.4375 19.3125 12.0178 19.3125 11.5V8.6875H16.5C15.9822 8.6875 15.5625 8.26777 15.5625 7.75C15.5625 7.23223 15.9822 6.8125 16.5 6.8125H19.3125V4C19.3125 3.48223 19.7322 3.0625 20.25 3.0625ZM7.71846 15.5625H7.78155C8.33713 15.5625 8.80094 15.5625 9.18171 15.5885C9.57808 15.6155 9.95249 15.6738 10.3155 15.8242C11.1578 16.1731 11.827 16.8422 12.1758 17.6845C12.3262 18.0475 12.3845 18.4219 12.4115 18.8183C12.4375 19.1991 12.4375 19.6629 12.4375 20.2185V20.2815C12.4375 20.8371 12.4375 21.3009 12.4115 21.6817C12.3845 22.0781 12.3262 22.4525 12.1758 22.8155C11.827 23.6578 11.1578 24.327 10.3155 24.6758C9.95249 24.8262 9.57808 24.8845 9.18171 24.9115C8.80094 24.9375 8.33713 24.9375 7.78154 24.9375H7.71846C7.16287 24.9375 6.69907 24.9375 6.3183 24.9115C5.92192 24.8845 5.54751 24.8262 5.18453 24.6758C4.34224 24.327 3.67305 23.6578 3.32416 22.8155C3.17381 22.4525 3.11551 22.0781 3.08846 21.6817C3.06248 21.3009 3.06249 20.8371 3.0625 20.2816V20.2184C3.06249 19.6629 3.06248 19.1991 3.08846 18.8183C3.11551 18.4219 3.17381 18.0475 3.32416 17.6845C3.67305 16.8422 4.34224 16.1731 5.18453 15.8242C5.54751 15.6738 5.92192 15.6155 6.3183 15.5885C6.69907 15.5625 7.16287 15.5625 7.71846 15.5625ZM6.44593 17.4591C6.14502 17.4796 5.9985 17.5165 5.90206 17.5564C5.5192 17.715 5.21502 18.0192 5.05644 18.4021C5.01649 18.4985 4.97964 18.645 4.95911 18.9459C4.93801 19.2553 4.9375 19.6547 4.9375 20.25C4.9375 20.8453 4.93801 21.2447 4.95911 21.5541C4.97964 21.855 5.01649 22.0015 5.05644 22.0979C5.21502 22.4808 5.5192 22.785 5.90206 22.9436C5.9985 22.9835 6.14502 23.0204 6.44593 23.0409C6.75526 23.062 7.15475 23.0625 7.75 23.0625C8.34525 23.0625 8.74474 23.062 9.05407 23.0409C9.35498 23.0204 9.5015 22.9835 9.59794 22.9436C9.9808 22.785 10.285 22.4808 10.4436 22.0979C10.4835 22.0015 10.5204 21.855 10.5409 21.5541C10.562 21.2447 10.5625 20.8453 10.5625 20.25C10.5625 19.6547 10.562 19.2553 10.5409 18.9459C10.5204 18.645 10.4835 18.4985 10.4436 18.4021C10.285 18.0192 9.9808 17.715 9.59794 17.5564C9.5015 17.5165 9.35498 17.4796 9.05407 17.4591C8.74474 17.438 8.34525 17.4375 7.75 17.4375C7.15475 17.4375 6.75526 17.438 6.44593 17.4591ZM20.2185 15.5625H20.2815C20.8371 15.5625 21.3009 15.5625 21.6817 15.5885C22.0781 15.6155 22.4525 15.6738 22.8155 15.8242C23.6578 16.173 24.327 16.8422 24.6758 17.6845C24.8262 18.0475 24.8845 18.4219 24.9115 18.8183C24.9375 19.1991 24.9375 19.6629 24.9375 20.2185V20.2815C24.9375 20.8371 24.9375 21.3009 24.9115 21.6817C24.8845 22.0781 24.8262 22.4525 24.6758 22.8155C24.327 23.6578 23.6578 24.327 22.8155 24.6758C22.4525 24.8262 22.0781 24.8845 21.6817 24.9115C21.3009 24.9375 20.8371 24.9375 20.2815 24.9375H20.2185C19.6629 24.9375 19.1991 24.9375 18.8183 24.9115C18.4219 24.8845 18.0475 24.8262 17.6845 24.6758C16.8422 24.327 16.173 23.6578 15.8242 22.8155C15.6738 22.4525 15.6155 22.0781 15.5885 21.6817C15.5625 21.3009 15.5625 20.8371 15.5625 20.2815V20.2185C15.5625 19.6629 15.5625 19.1991 15.5885 18.8183C15.6155 18.4219 15.6738 18.0475 15.8242 17.6845C16.173 16.8422 16.8422 16.173 17.6845 15.8242C18.0475 15.6738 18.4219 15.6155 18.8183 15.5885C19.1991 15.5625 19.6629 15.5625 20.2185 15.5625ZM18.9459 17.4591C18.645 17.4796 18.4985 17.5165 18.4021 17.5564C18.0192 17.715 17.715 18.0192 17.5564 18.4021C17.5165 18.4985 17.4796 18.645 17.4591 18.9459C17.438 19.2553 17.4375 19.6547 17.4375 20.25C17.4375 20.8453 17.438 21.2447 17.4591 21.5541C17.4796 21.855 17.5165 22.0015 17.5564 22.0979C17.715 22.4808 18.0192 22.785 18.4021 22.9436C18.4985 22.9835 18.645 23.0204 18.9459 23.0409C19.2553 23.062 19.6547 23.0625 20.25 23.0625C20.8453 23.0625 21.2447 23.062 21.5541 23.0409C21.855 23.0204 22.0015 22.9835 22.0979 22.9436C22.4808 22.785 22.785 22.4808 22.9436 22.0979C22.9835 22.0015 23.0204 21.855 23.0409 21.5541C23.062 21.2447 23.0625 20.8453 23.0625 20.25C23.0625 19.6547 23.062 19.2553 23.0409 18.9459C23.0204 18.645 22.9835 18.4985 22.9436 18.4021C22.785 18.0192 22.4808 17.715 22.0979 17.5564C22.0015 17.5165 21.855 17.4796 21.5541 17.4591C21.2447 17.438 20.8453 17.4375 20.25 17.4375C19.6547 17.4375 19.2553 17.438 18.9459 17.4591Z"/></svg>