<svg width="28" height="28" viewBox="0 0 28 28" xmlns="http://www.w3.org/2000/svg"><path fill-rule="evenodd" clip-rule="evenodd" d="M14 4.75C8.89137 4.75 4.75 8.89137 4.75 14C4.75 19.1086 8.89137 23.25 14 23.25C19.1086 23.25 23.25 19.1086 23.25 14C23.25 8.89137 19.1086 4.75 14 4.75ZM3.25 14C3.25 8.06294 8.06294 3.25 14 3.25C19.9371 3.25 24.75 8.06294 24.75 14C24.75 19.9371 19.9371 24.75 14 24.75C8.06294 24.75 3.25 19.9371 3.25 14ZM15.5585 9.66138C14.5866 8.36542 12.5591 8.69444 12.0468 10.2313L11.7115 11.2372C11.5805 11.6301 11.1558 11.8425 10.7628 11.7115C10.3699 11.5805 10.1575 11.1558 10.2885 10.7628L10.6238 9.75691C11.5187 7.0722 15.0606 6.49743 16.7585 8.76138C17.7532 10.0875 17.6838 11.9289 16.5922 13.1765L15.673 14.227C15.078 14.907 14.75 15.7798 14.75 16.6834V17C14.75 17.4142 14.4142 17.75 14 17.75C13.5858 17.75 13.25 17.4142 13.25 17V16.6834C13.25 15.4165 13.7098 14.1927 14.5441 13.2392L15.4633 12.1887C16.0882 11.4746 16.1279 10.4205 15.5585 9.66138ZM15 20C15 20.5523 14.5523 21 14 21C13.4477 21 13 20.5523 13 20C13 19.4477 13.4477 19 14 19C14.5523 19 15 19.4477 15 20Z"/></svg>