<svg width="28" height="28" viewBox="0 0 28 28" xmlns="http://www.w3.org/2000/svg"><path fill-rule="evenodd" clip-rule="evenodd" d="M3.0625 5.5C3.0625 3.60152 4.60152 2.0625 6.5 2.0625C8.39848 2.0625 9.9375 3.60152 9.9375 5.5C9.9375 7.39848 8.39848 8.9375 6.5 8.9375C4.60152 8.9375 3.0625 7.39848 3.0625 5.5ZM6.5 3.9375C5.63706 3.9375 4.9375 4.63706 4.9375 5.5C4.9375 6.36295 5.63706 7.0625 6.5 7.0625C7.36295 7.0625 8.0625 6.36295 8.0625 5.5C8.0625 4.63706 7.36295 3.9375 6.5 3.9375ZM13.0625 5.5C13.0625 4.98223 13.4822 4.5625 14 4.5625L24 4.5625C24.5178 4.5625 24.9375 4.98223 24.9375 5.5C24.9375 6.01777 24.5178 6.4375 24 6.4375L14 6.4375C13.4822 6.4375 13.0625 6.01777 13.0625 5.5ZM18.0625 14.25C18.0625 12.3515 19.6015 10.8125 21.5 10.8125C23.3985 10.8125 24.9375 12.3515 24.9375 14.25C24.9375 16.1485 23.3985 17.6875 21.5 17.6875C19.6015 17.6875 18.0625 16.1485 18.0625 14.25ZM21.5 12.6875C20.6371 12.6875 19.9375 13.3871 19.9375 14.25C19.9375 15.1129 20.6371 15.8125 21.5 15.8125C22.3629 15.8125 23.0625 15.1129 23.0625 14.25C23.0625 13.3871 22.3629 12.6875 21.5 12.6875ZM3.0625 14.25C3.0625 13.7322 3.48223 13.3125 4 13.3125L14 13.3125C14.5178 13.3125 14.9375 13.7322 14.9375 14.25C14.9375 14.7678 14.5178 15.1875 14 15.1875L4 15.1875C3.48223 15.1875 3.0625 14.7678 3.0625 14.25ZM3.0625 23C3.0625 21.1015 4.60152 19.5625 6.5 19.5625C8.39848 19.5625 9.9375 21.1015 9.9375 23C9.9375 24.8985 8.39848 26.4375 6.5 26.4375C4.60152 26.4375 3.0625 24.8985 3.0625 23ZM6.5 21.4375C5.63706 21.4375 4.9375 22.1371 4.9375 23C4.9375 23.8629 5.63706 24.5625 6.5 24.5625C7.36295 24.5625 8.0625 23.8629 8.0625 23C8.0625 22.1371 7.36295 21.4375 6.5 21.4375ZM13.0625 23C13.0625 22.4822 13.4822 22.0625 14 22.0625H24C24.5178 22.0625 24.9375 22.4822 24.9375 23C24.9375 23.5178 24.5178 23.9375 24 23.9375H14C13.4822 23.9375 13.0625 23.5178 13.0625 23Z"/></svg>