<svg width="28" height="28" viewBox="0 0 28 28" xmlns="http://www.w3.org/2000/svg"><path fill-rule="evenodd" clip-rule="evenodd" d="M9.7711 6.15784C11.0955 1.94739 16.9045 1.94739 18.2289 6.15784C18.5642 7.22404 19.5125 7.91578 20.5499 7.91578C24.9187 7.91578 26.5833 13.5918 23.1742 16.1504C22.3147 16.7955 21.94 17.9565 22.2769 19.0275C22.9306 21.1058 22.0973 23.0349 20.6723 24.1043C19.2427 25.1773 17.1693 25.4144 15.4237 24.1043C14.5725 23.4655 13.4274 23.4655 12.5762 24.1043C10.8306 25.4144 8.75727 25.1773 7.32761 24.1043C5.90263 23.0349 5.06933 21.1058 5.72303 19.0275C6.05992 17.9565 5.68523 16.7955 4.82577 16.1504C1.4166 13.5918 3.08128 7.91578 7.45007 7.91578C8.48744 7.91578 9.43573 7.22404 9.7711 6.15784ZM16.321 6.75794C15.5837 4.41402 12.4162 4.41402 11.6789 6.75794C11.0923 8.62295 9.39631 9.91578 7.45007 9.91578C5.14727 9.91578 4.03804 13.0586 6.02629 14.5508C7.58064 15.7174 8.21598 17.7675 7.63088 19.6276C7.25376 20.8265 7.7206 21.8987 8.52814 22.5047C9.331 23.1073 10.4225 23.2201 11.3757 22.5047C12.9382 21.332 15.0617 21.332 16.6243 22.5047C17.5774 23.2201 18.6689 23.1073 19.4718 22.5047C20.2793 21.8987 20.7462 20.8265 20.3691 19.6276C19.784 17.7675 20.4193 15.7174 21.9737 14.5508C23.9619 13.0586 22.8527 9.91578 20.5499 9.91578C18.6036 9.91578 16.9076 8.62296 16.321 6.75794ZM15.5863 8.8197C16.1111 8.64761 16.676 8.93353 16.8481 9.45832C17.0181 9.97676 17.5097 10.336 18.0734 10.336C18.6257 10.336 19.0734 10.7837 19.0734 11.336C19.0734 11.8883 18.6257 12.336 18.0734 12.336C16.6551 12.336 15.3901 11.4308 14.9477 10.0815C14.7756 9.55672 15.0615 8.99179 15.5863 8.8197Z"/></svg>