<svg width="28" height="28" viewBox="0 0 28 28" xmlns="http://www.w3.org/2000/svg"><path fill-rule="evenodd" clip-rule="evenodd" d="M14.4472 3.125H14.5528C16.6954 3.12499 18.375 3.12498 19.7074 3.26935C21.0672 3.41667 22.169 3.72271 23.1097 4.40618C23.6792 4.81994 24.1801 5.32077 24.5938 5.89027C25.2773 6.83099 25.5833 7.93276 25.7306 9.29256C25.875 10.6251 25.875 12.3046 25.875 14.4473V14.5527C25.875 16.6954 25.875 18.3749 25.7306 19.7074C25.5833 21.0672 25.2773 22.169 24.5938 23.1097C24.1801 23.6792 23.6792 24.1801 23.1097 24.5938C22.169 25.2773 21.0672 25.5833 19.7074 25.7306C18.3749 25.875 16.6954 25.875 14.5527 25.875H14.4473C12.3046 25.875 10.6251 25.875 9.29256 25.7306C7.93276 25.5833 6.83099 25.2773 5.89027 24.5938C5.32077 24.1801 4.81994 23.6792 4.40618 23.1097C3.72271 22.169 3.41667 21.0672 3.26935 19.7074C3.12498 18.375 3.12499 16.6954 3.125 14.5528V14.4472C3.12499 12.3046 3.12498 10.625 3.26935 9.29255C3.41667 7.93276 3.72271 6.83099 4.40618 5.89027C4.81995 5.32077 5.32077 4.81995 5.89027 4.40618C6.83099 3.72271 7.93276 3.41667 9.29255 3.26935C10.625 3.12498 12.3046 3.12499 14.4472 3.125ZM9.48105 5.00917C8.27016 5.14036 7.51157 5.39136 6.9189 5.82196C6.49796 6.12779 6.12779 6.49796 5.82196 6.9189C5.39136 7.51157 5.14036 8.27016 5.00917 9.48105C4.8762 10.7083 4.875 12.2932 4.875 14.5C4.875 16.7068 4.8762 18.2917 5.00917 19.5189C5.14036 20.7298 5.39136 21.4884 5.82196 22.0811C6.12779 22.502 6.49796 22.8722 6.9189 23.178C7.51157 23.6086 8.27016 23.8596 9.48105 23.9908C10.7083 24.1238 12.2932 24.125 14.5 24.125C16.7068 24.125 18.2917 24.1238 19.5189 23.9908C20.7298 23.8596 21.4884 23.6086 22.0811 23.178C22.502 22.8722 22.8722 22.502 23.178 22.0811C23.6086 21.4884 23.8596 20.7298 23.9908 19.5189C24.1238 18.2917 24.125 16.7068 24.125 14.5C24.125 12.2932 24.1238 10.7083 23.9908 9.48105C23.8596 8.27016 23.6086 7.51157 23.178 6.9189C22.8722 6.49796 22.502 6.12779 22.0811 5.82196C21.4884 5.39136 20.7298 5.14036 19.5189 5.00917C18.2917 4.8762 16.7068 4.875 14.5 4.875C12.2932 4.875 10.7083 4.8762 9.48105 5.00917ZM16.5775 10.5565L16.6545 10.6039C17.4685 11.1048 18.1323 11.5133 18.624 11.8836C19.1232 12.2596 19.5559 12.6748 19.7883 13.231C20.1261 14.0399 20.1261 14.9601 19.7883 15.769C19.5559 16.3252 19.1232 16.7404 18.624 17.1164C18.1323 17.4867 17.4685 17.8952 16.6545 18.3961L16.5775 18.4435C15.7643 18.944 15.1004 19.3526 14.5529 19.6217C14.0028 19.8922 13.4299 20.0962 12.8271 20.0286C11.9557 19.931 11.182 19.4458 10.6874 18.7201C10.3517 18.2276 10.2342 17.6298 10.1795 16.9941C10.125 16.3603 10.125 15.548 10.125 14.5419V14.4581C10.125 13.452 10.125 12.6397 10.1795 12.0059C10.2342 11.3702 10.3517 10.7724 10.6874 10.2799C11.182 9.55422 11.9557 9.06901 12.8271 8.97138C13.4299 8.90383 14.0028 9.10781 14.5529 9.37825C15.1004 9.64738 15.7644 10.056 16.5775 10.5565ZM13.7808 10.9487C13.311 10.7178 13.1135 10.7002 13.0219 10.7105C12.6818 10.7486 12.3549 10.9407 12.1335 11.2655C12.0587 11.3752 11.971 11.5994 11.9231 12.1559C11.8758 12.7056 11.875 13.4421 11.875 14.5C11.875 15.5579 11.8758 16.2944 11.9231 16.8441C11.971 17.4006 12.0587 17.6248 12.1335 17.7345C12.3549 18.0593 12.6818 18.2514 13.0219 18.2895C13.1135 18.2998 13.311 18.2822 13.7808 18.0513C14.2446 17.8233 14.8376 17.4594 15.6993 16.9291C16.5605 16.3991 17.1532 16.0333 17.5712 15.7185C17.9894 15.4036 18.1218 15.2183 18.1735 15.0945C18.3311 14.7172 18.3311 14.2828 18.1735 13.9055C18.1218 13.7817 17.9894 13.5964 17.5712 13.2815C17.1532 12.9667 16.5605 12.6009 15.6993 12.0709C14.8376 11.5406 14.2446 11.1767 13.7808 10.9487Z"/></svg>