<svg width="24" height="24" viewBox="0 0 24 24" fill="none" xmlns="http://www.w3.org/2000/svg">
<g clip-path="url(#clip0_300_3)">
<path d="M12 24C18.6277 24 24 18.6277 24 12C24 5.37231 18.6277 0 12 0C5.37231 0 0 5.37231 0 12C0 18.6277 5.37231 24 12 24Z" fill="#FC3F1D"/>
<path d="M15.8308 18.7196H13.4492V6.9393H12.3886C10.4492 6.9393 9.42924 7.91961 9.42924 9.36976C9.42924 11.0193 10.1391 11.779 11.5892 12.7593L12.7892 13.5596L9.33877 18.7196H6.76985L9.86954 14.1135C8.08616 12.8451 7.09016 11.5953 7.09016 9.51007C7.09016 6.8793 8.90954 5.09961 12.3794 5.09961H15.8299L15.8308 18.7196Z" fill="white"/>
</g>
<defs>
<clipPath id="clip0_300_3">
<rect width="24" height="24" fill="white"/>
</clipPath>
</defs>
</svg>
