<svg width="28" height="28" viewBox="0 0 28 28" fill="none" xmlns="http://www.w3.org/2000/svg">
<path d="M8.44444 17.1746L10.067 13.8668C10.8866 12.196 13.2954 12.2776 14 14C14.7046 15.7224 17.1134 15.804 17.933 14.1332L19.5556 10.8254M14 24C9.83363 24 7.75045 24 6.29008 22.939C5.81844 22.5963 5.40368 22.1816 5.06102 21.7099C4 20.2496 4 18.1664 4 14C4 9.83363 4 7.75045 5.06102 6.29008C5.40368 5.81844 5.81844 5.40368 6.29008 5.06102C7.75045 4 9.83363 4 14 4C18.1664 4 20.2496 4 21.7099 5.06102C22.1816 5.40368 22.5963 5.81844 22.939 6.29008C24 7.75045 24 9.83363 24 14C24 18.1664 24 20.2496 22.939 21.7099C22.5963 22.1816 22.1816 22.5963 21.7099 22.939C20.2496 24 18.1664 24 14 24Z" stroke="url(#paint0_linear_2032_8499)" stroke-width="1.66667" stroke-linecap="round"/>
<defs>
<linearGradient id="paint0_linear_2032_8499" x1="4" y1="14" x2="24" y2="14" gradientUnits="userSpaceOnUse">
<stop stop-color="#5D5CE6"/>
<stop offset="1" stop-color="#D72BEA"/>
</linearGradient>
</defs>
</svg>
