<svg width="24" height="24" viewBox="0 0 24 24" fill="none" xmlns="http://www.w3.org/2000/svg">
<g clip-path="url(#clip0_420_18)">
<path d="M16.5697 15.6986C19.4118 14.1383 21.5851 12.9494 21.7709 12.8565C22.3653 12.5407 22.9783 11.7048 21.7709 11.0547C21.3808 10.8503 19.2817 9.69864 16.5697 8.21257L12.8359 11.9649L16.5697 15.6986Z" fill="#FFD400"/>
<path d="M12.8359 11.9649L0.910217 23.9835C1.18886 24.0206 1.50464 23.9463 1.87616 23.742C2.65635 23.3147 10.9412 18.7822 16.5697 15.6986L12.8359 11.9649Z" fill="#FF3333"/>
<path d="M12.8359 11.9649L16.5697 8.21257C16.5697 8.21257 2.71203 0.652195 1.87612 0.206375C1.56033 0.0206163 1.20739 -0.0351113 0.891602 0.0206163L12.8359 11.9649Z" fill="#48FF48"/>
<path d="M12.8359 11.9649L0.891602 0.0206163C0.408629 0.132071 0 0.559319 0 1.43238C0 2.82557 0 21.4014 0 22.5717C0 23.3705 0.31579 23.9463 0.910217 24.002L12.8359 11.9649Z" fill="#3BCCFF"/>
</g>
<defs>
<clipPath id="clip0_420_18">
<rect width="24" height="24" fill="white"/>
</clipPath>
</defs>
</svg>
