<svg width="28" height="28" viewBox="0 0 28 28" fill="none" xmlns="http://www.w3.org/2000/svg">
<path d="M16.5 6.8125C15.9822 6.8125 15.5625 7.23223 15.5625 7.75C15.5625 8.26777 15.9822 8.6875 16.5 8.6875V6.8125ZM24 8.6875C24.5178 8.6875 24.9375 8.26777 24.9375 7.75C24.9375 7.23223 24.5178 6.8125 24 6.8125V8.6875ZM19.3125 11.5C19.3125 12.0178 19.7322 12.4375 20.25 12.4375C20.7678 12.4375 21.1875 12.0178 21.1875 11.5H19.3125ZM21.1875 4C21.1875 3.48223 20.7678 3.0625 20.25 3.0625C19.7322 3.0625 19.3125 3.48223 19.3125 4H21.1875ZM7.75 10.5625C7.15475 10.5625 6.75526 10.562 6.44593 10.5409C6.14502 10.5204 5.9985 10.4835 5.90206 10.4436L5.18453 12.1758C5.54751 12.3262 5.92192 12.3845 6.31829 12.4115C6.70625 12.438 7.1804 12.4375 7.75 12.4375V10.5625ZM3.0625 7.75C3.0625 8.3196 3.06199 8.79375 3.08846 9.18171C3.11551 9.57808 3.17381 9.95249 3.32416 10.3155L5.05644 9.59794C5.01649 9.5015 4.97964 9.35498 4.95911 9.05407C4.93801 8.74474 4.9375 8.34525 4.9375 7.75H3.0625ZM5.90206 10.4436C5.5192 10.285 5.21502 9.9808 5.05644 9.59794L3.32416 10.3155C3.67305 11.1578 4.34224 11.827 5.18453 12.1758L5.90206 10.4436ZM10.5625 7.75C10.5625 8.34525 10.562 8.74474 10.5409 9.05407C10.5204 9.35498 10.4835 9.5015 10.4436 9.59794L12.1758 10.3155C12.3262 9.95249 12.3845 9.57808 12.4115 9.18171C12.438 8.79375 12.4375 8.3196 12.4375 7.75H10.5625ZM7.75 12.4375C8.3196 12.4375 8.79375 12.438 9.18171 12.4115C9.57808 12.3845 9.95249 12.3262 10.3155 12.1758L9.59794 10.4436C9.5015 10.4835 9.35498 10.5204 9.05407 10.5409C8.74474 10.562 8.34525 10.5625 7.75 10.5625V12.4375ZM10.4436 9.59794C10.285 9.9808 9.9808 10.285 9.59794 10.4436L10.3155 12.1758C11.1578 11.827 11.827 11.1578 12.1758 10.3155L10.4436 9.59794ZM7.75 4.9375C8.34525 4.9375 8.74474 4.93801 9.05407 4.95911C9.35498 4.97964 9.5015 5.01649 9.59794 5.05644L10.3155 3.32416C9.95249 3.17381 9.57808 3.11551 9.18171 3.08846C8.79375 3.06199 8.3196 3.0625 7.75 3.0625V4.9375ZM12.4375 7.75C12.4375 7.1804 12.438 6.70625 12.4115 6.31829C12.3845 5.92192 12.3262 5.54751 12.1758 5.18453L10.4436 5.90206C10.4835 5.9985 10.5204 6.14502 10.5409 6.44593C10.562 6.75526 10.5625 7.15475 10.5625 7.75H12.4375ZM9.59794 5.05644C9.9808 5.21502 10.285 5.5192 10.4436 5.90206L12.1758 5.18453C11.827 4.34224 11.1578 3.67305 10.3155 3.32416L9.59794 5.05644ZM7.75 3.0625C7.1804 3.0625 6.70625 3.06199 6.31829 3.08846C5.92192 3.11551 5.54751 3.17381 5.18453 3.32416L5.90206 5.05644C5.9985 5.01649 6.14502 4.97964 6.44593 4.95911C6.75526 4.93801 7.15475 4.9375 7.75 4.9375V3.0625ZM4.9375 7.75C4.9375 7.15475 4.93801 6.75526 4.95911 6.44593C4.97964 6.14502 5.01649 5.9985 5.05644 5.90206L3.32416 5.18453C3.17381 5.54751 3.11551 5.92192 3.08846 6.31829C3.06199 6.70625 3.0625 7.1804 3.0625 7.75H4.9375ZM5.18453 3.32416C4.34224 3.67305 3.67305 4.34224 3.32416 5.18453L5.05644 5.90206C5.21502 5.5192 5.5192 5.21502 5.90206 5.05644L5.18453 3.32416ZM16.5 8.6875H24V6.8125H16.5V8.6875ZM21.1875 11.5V4H19.3125V11.5H21.1875ZM7.75 23.0625C7.15475 23.0625 6.75526 23.062 6.44593 23.0409C6.14502 23.0204 5.9985 22.9835 5.90206 22.9436L5.18453 24.6758C5.54751 24.8262 5.92192 24.8845 6.31829 24.9115C6.70625 24.938 7.1804 24.9375 7.75 24.9375V23.0625ZM3.0625 20.25C3.0625 20.8196 3.06199 21.2938 3.08846 21.6817C3.11551 22.0781 3.17381 22.4525 3.32416 22.8155L5.05644 22.0979C5.01649 22.0015 4.97964 21.855 4.95911 21.5541C4.93801 21.2447 4.9375 20.8453 4.9375 20.25H3.0625ZM5.90206 22.9436C5.5192 22.785 5.21502 22.4808 5.05644 22.0979L3.32416 22.8155C3.67305 23.6578 4.34224 24.327 5.18453 24.6758L5.90206 22.9436ZM10.5625 20.25C10.5625 20.8453 10.562 21.2447 10.5409 21.5541C10.5204 21.855 10.4835 22.0015 10.4436 22.0979L12.1758 22.8155C12.3262 22.4525 12.3845 22.0781 12.4115 21.6817C12.438 21.2938 12.4375 20.8196 12.4375 20.25H10.5625ZM7.75 24.9375C8.3196 24.9375 8.79375 24.938 9.18171 24.9115C9.57808 24.8845 9.95249 24.8262 10.3155 24.6758L9.59794 22.9436C9.5015 22.9835 9.35498 23.0204 9.05407 23.0409C8.74474 23.062 8.34525 23.0625 7.75 23.0625V24.9375ZM10.4436 22.0979C10.285 22.4808 9.9808 22.785 9.59794 22.9436L10.3155 24.6758C11.1578 24.327 11.827 23.6578 12.1758 22.8155L10.4436 22.0979ZM7.75 17.4375C8.34525 17.4375 8.74474 17.438 9.05407 17.4591C9.35498 17.4796 9.5015 17.5165 9.59794 17.5564L10.3155 15.8242C9.95249 15.6738 9.57808 15.6155 9.18171 15.5885C8.79375 15.562 8.3196 15.5625 7.75 15.5625V17.4375ZM12.4375 20.25C12.4375 19.6804 12.438 19.2062 12.4115 18.8183C12.3845 18.4219 12.3262 18.0475 12.1758 17.6845L10.4436 18.4021C10.4835 18.4985 10.5204 18.645 10.5409 18.9459C10.562 19.2553 10.5625 19.6547 10.5625 20.25H12.4375ZM9.59794 17.5564C9.9808 17.715 10.285 18.0192 10.4436 18.4021L12.1758 17.6845C11.827 16.8422 11.1578 16.173 10.3155 15.8242L9.59794 17.5564ZM7.75 15.5625C7.1804 15.5625 6.70625 15.562 6.31829 15.5885C5.92192 15.6155 5.54751 15.6738 5.18453 15.8242L5.90206 17.5564C5.9985 17.5165 6.14502 17.4796 6.44593 17.4591C6.75526 17.438 7.15475 17.4375 7.75 17.4375V15.5625ZM4.9375 20.25C4.9375 19.6547 4.93801 19.2553 4.95911 18.9459C4.97964 18.645 5.01649 18.4985 5.05644 18.4021L3.32416 17.6845C3.17381 18.0475 3.11551 18.4219 3.08846 18.8183C3.06199 19.2062 3.0625 19.6804 3.0625 20.25H4.9375ZM5.18453 15.8242C4.34224 16.173 3.67305 16.8422 3.32416 17.6845L5.05644 18.4021C5.21502 18.0192 5.5192 17.715 5.90206 17.5564L5.18453 15.8242ZM20.25 23.0625C19.6547 23.0625 19.2553 23.062 18.9459 23.0409C18.645 23.0204 18.4985 22.9835 18.4021 22.9436L17.6845 24.6758C18.0475 24.8262 18.4219 24.8845 18.8183 24.9115C19.2062 24.938 19.6804 24.9375 20.25 24.9375V23.0625ZM15.5625 20.25C15.5625 20.8196 15.562 21.2938 15.5885 21.6817C15.6155 22.0781 15.6738 22.4525 15.8242 22.8155L17.5564 22.0979C17.5165 22.0015 17.4796 21.855 17.4591 21.5541C17.438 21.2447 17.4375 20.8453 17.4375 20.25H15.5625ZM18.4021 22.9436C18.0192 22.785 17.715 22.4808 17.5564 22.0979L15.8242 22.8155C16.173 23.6578 16.8422 24.327 17.6845 24.6758L18.4021 22.9436ZM23.0625 20.25C23.0625 20.8453 23.062 21.2447 23.0409 21.5541C23.0204 21.855 22.9835 22.0015 22.9436 22.0979L24.6758 22.8155C24.8262 22.4525 24.8845 22.0781 24.9115 21.6817C24.938 21.2938 24.9375 20.8196 24.9375 20.25H23.0625ZM20.25 24.9375C20.8196 24.9375 21.2938 24.938 21.6817 24.9115C22.0781 24.8845 22.4525 24.8262 22.8155 24.6758L22.0979 22.9436C22.0015 22.9835 21.855 23.0204 21.5541 23.0409C21.2447 23.062 20.8453 23.0625 20.25 23.0625V24.9375ZM22.9436 22.0979C22.785 22.4808 22.4808 22.785 22.0979 22.9436L22.8155 24.6758C23.6578 24.327 24.327 23.6578 24.6758 22.8155L22.9436 22.0979ZM20.25 17.4375C20.8453 17.4375 21.2447 17.438 21.5541 17.4591C21.855 17.4796 22.0015 17.5165 22.0979 17.5564L22.8155 15.8242C22.4525 15.6738 22.0781 15.6155 21.6817 15.5885C21.2938 15.562 20.8196 15.5625 20.25 15.5625V17.4375ZM24.9375 20.25C24.9375 19.6804 24.938 19.2062 24.9115 18.8183C24.8845 18.4219 24.8262 18.0475 24.6758 17.6845L22.9436 18.4021C22.9835 18.4985 23.0204 18.645 23.0409 18.9459C23.062 19.2553 23.0625 19.6547 23.0625 20.25H24.9375ZM22.0979 17.5564C22.4808 17.715 22.785 18.0192 22.9436 18.4021L24.6758 17.6845C24.327 16.8422 23.6578 16.173 22.8155 15.8242L22.0979 17.5564ZM20.25 15.5625C19.6804 15.5625 19.2062 15.562 18.8183 15.5885C18.4219 15.6155 18.0475 15.6738 17.6845 15.8242L18.4021 17.5564C18.4985 17.5165 18.645 17.4796 18.9459 17.4591C19.2553 17.438 19.6547 17.4375 20.25 17.4375V15.5625ZM17.4375 20.25C17.4375 19.6547 17.438 19.2553 17.4591 18.9459C17.4796 18.645 17.5165 18.4985 17.5564 18.4021L15.8242 17.6845C15.6738 18.0475 15.6155 18.4219 15.5885 18.8183C15.562 19.2062 15.5625 19.6804 15.5625 20.25H17.4375ZM17.6845 15.8242C16.8422 16.173 16.173 16.8422 15.8242 17.6845L17.5564 18.4021C17.715 18.0192 18.0192 17.715 18.4021 17.5564L17.6845 15.8242Z" fill="url(#paint0_linear_2032_8373)"/>
<defs>
<linearGradient id="paint0_linear_2032_8373" x1="4" y1="14" x2="24" y2="14" gradientUnits="userSpaceOnUse">
<stop stop-color="#5D5CE6"/>
<stop offset="1" stop-color="#D72BEA"/>
</linearGradient>
</defs>
</svg>
