<svg width="28" height="28" viewBox="0 0 28 28" fill="none" xmlns="http://www.w3.org/2000/svg">
<path d="M5.90459 24.5528L6.4189 23.8449L5.90459 24.5528ZM4.61407 23.2622L5.32196 22.7479L4.61407 23.2622ZM23.3859 23.2622L22.678 22.7479L23.3859 23.2622ZM22.0954 24.5528L21.5811 23.8449L22.0954 24.5528ZM22.0954 3.44756L21.5811 4.15545L22.0954 3.44756ZM23.3859 4.73808L22.678 5.25239L23.3859 4.73808ZM5.90459 3.44756L6.4189 4.15545L5.90459 3.44756ZM4.61407 4.73808L5.32196 5.25239L4.61407 4.73808ZM9.33333 17.7918C8.85008 17.7918 8.45833 18.1836 8.45833 18.6668C8.45833 19.1501 8.85008 19.5418 9.33333 19.5418V17.7918ZM18.6667 19.5418C19.1499 19.5418 19.5417 19.1501 19.5417 18.6668C19.5417 18.1836 19.1499 17.7918 18.6667 17.7918V19.5418ZM9.33333 13.1252C8.85008 13.1252 8.45833 13.5169 8.45833 14.0002C8.45833 14.4834 8.85008 14.8752 9.33333 14.8752V13.1252ZM18.6667 14.8752C19.1499 14.8752 19.5417 14.4834 19.5417 14.0002C19.5417 13.5169 19.1499 13.1252 18.6667 13.1252V14.8752ZM9.33333 8.4585C8.85008 8.4585 8.45833 8.85025 8.45833 9.3335C8.45833 9.81675 8.85008 10.2085 9.33333 10.2085V8.4585ZM12.8333 10.2085C13.3166 10.2085 13.7083 9.81675 13.7083 9.3335C13.7083 8.85025 13.3166 8.4585 12.8333 8.4585V10.2085ZM23.625 12.8335V15.1668H25.375V12.8335H23.625ZM4.375 15.1668V12.8335H2.625V15.1668H4.375ZM14 24.7918C11.7932 24.7918 10.2083 24.7906 8.98105 24.6577C7.77016 24.5265 7.01157 24.2755 6.4189 23.8449L5.39027 25.2607C6.33098 25.9441 7.43276 26.2502 8.79255 26.3975C10.136 26.543 11.8321 26.5418 14 26.5418V24.7918ZM2.625 15.1668C2.625 17.3347 2.6238 19.0309 2.76935 20.3743C2.91667 21.7341 3.22271 22.8358 3.90618 23.7766L5.32196 22.7479C4.89136 22.1553 4.64036 21.3967 4.50917 20.1858C4.3762 18.9585 4.375 17.3737 4.375 15.1668H2.625ZM6.4189 23.8449C5.99796 23.539 5.62779 23.1689 5.32196 22.7479L3.90618 23.7766C4.31994 24.3461 4.82077 24.8469 5.39027 25.2607L6.4189 23.8449ZM23.625 15.1668C23.625 17.3737 23.6238 18.9585 23.4908 20.1858C23.3596 21.3967 23.1086 22.1553 22.678 22.7479L24.0938 23.7766C24.7773 22.8358 25.0833 21.7341 25.2306 20.3743C25.3762 19.0309 25.375 17.3347 25.375 15.1668H23.625ZM14 26.5418C16.1679 26.5418 17.864 26.543 19.2074 26.3975C20.5672 26.2502 21.669 25.9441 22.6097 25.2607L21.5811 23.8449C20.9884 24.2755 20.2298 24.5265 19.0189 24.6577C17.7917 24.7906 16.2068 24.7918 14 24.7918V26.5418ZM22.678 22.7479C22.3722 23.1689 22.002 23.539 21.5811 23.8449L22.6097 25.2607C23.1792 24.8469 23.6801 24.3461 24.0938 23.7766L22.678 22.7479ZM14 3.2085C16.2068 3.2085 17.7917 3.2097 19.0189 3.34266C20.2298 3.47386 20.9884 3.72485 21.5811 4.15545L22.6097 2.73967C21.669 2.05621 20.5672 1.75017 19.2074 1.60285C17.864 1.4573 16.1679 1.4585 14 1.4585V3.2085ZM25.375 12.8335C25.375 10.6656 25.3762 8.96947 25.2306 7.62605C25.0833 6.26626 24.7773 5.16448 24.0938 4.22377L22.678 5.25239C23.1086 5.84507 23.3596 6.60365 23.4908 7.81455C23.6238 9.04182 23.625 10.6267 23.625 12.8335H25.375ZM21.5811 4.15545C22.002 4.46128 22.3722 4.83146 22.678 5.25239L24.0938 4.22377C23.6801 3.65427 23.1792 3.15344 22.6097 2.73967L21.5811 4.15545ZM14 1.4585C11.8321 1.4585 10.136 1.4573 8.79255 1.60285C7.43276 1.75017 6.33098 2.05621 5.39027 2.73967L6.4189 4.15545C7.01157 3.72485 7.77016 3.47386 8.98105 3.34266C10.2083 3.2097 11.7932 3.2085 14 3.2085V1.4585ZM4.375 12.8335C4.375 10.6267 4.3762 9.04182 4.50917 7.81455C4.64036 6.60365 4.89136 5.84507 5.32196 5.25239L3.90618 4.22377C3.22271 5.16448 2.91667 6.26626 2.76935 7.62605C2.6238 8.96947 2.625 10.6656 2.625 12.8335H4.375ZM5.39027 2.73967C4.82077 3.15344 4.31994 3.65427 3.90618 4.22377L5.32196 5.25239C5.62779 4.83146 5.99796 4.46128 6.4189 4.15545L5.39027 2.73967ZM9.33333 19.5418H18.6667V17.7918H9.33333V19.5418ZM9.33333 14.8752H18.6667V13.1252H9.33333V14.8752ZM9.33333 10.2085H12.8333V8.4585H9.33333V10.2085Z" fill="url(#paint0_linear_4041_1935)"/>
<defs>
<linearGradient id="paint0_linear_4041_1935" x1="3.5" y1="14.0002" x2="24.5" y2="14.0002" gradientUnits="userSpaceOnUse">
<stop stop-color="#5D5CE6"/>
<stop offset="1" stop-color="#D72BEA"/>
</linearGradient>
</defs>
</svg>
